<svg width="61" height="93" viewBox="0 0 61 93" fill="none" xmlns="http://www.w3.org/2000/svg">
<path fill-rule="evenodd" clip-rule="evenodd" d="M31.5101 0.307979C33.3206 -0.195943 35.6811 0.0410254 36.3177 0.167495C37.9787 0.497765 40.3958 1.91505 41.5518 3.23665C45.1511 7.35145 45.1052 13.1261 41.4415 17.1339C37.1233 21.8577 29.2907 21.2199 25.7917 15.8598C24.4497 13.8043 23.9978 12.1371 24.1068 9.6411C24.3033 5.1337 27.0483 1.54979 31.5101 0.307979ZM27.7992 10.1092C27.8005 7.41378 28.8995 5.63156 31.3718 4.31643C32.6992 3.61037 35.294 3.58166 36.7676 4.25669C40.0668 5.76786 41.4408 9.74688 39.8057 13.055C37.8561 17.0001 32.5353 17.7975 29.5449 14.5926C28.2004 13.1515 27.7982 12.1193 27.7992 10.1092Z" fill="white"/>
<path fill-rule="evenodd" clip-rule="evenodd" d="M6.62461 92.6961C4.50474 92.0888 3.05046 90.1064 3.03943 87.8098C3.03174 86.1962 3.60396 84.3762 5.2701 80.7151C9.62552 71.1453 11.0293 67.5224 12.9255 60.9576L14.8309 54.3615L14.2959 52.9256C14.0017 52.136 13.6967 50.644 13.618 49.6102L13.4751 47.7305L12.5505 47.9291C12.0421 48.0383 10.5296 48.1267 9.18949 48.1257C7.0904 48.1239 6.55049 48.0282 5.29191 47.4352C1.57668 45.6845 -0.298758 42.1545 0.0387798 37.548C0.604848 29.8261 5.42451 23.1405 12.954 19.6327C16.1518 18.1428 18.2148 18.2615 20.4726 20.0646C21.4132 20.8157 21.497 20.8341 22.7015 20.5537C23.8544 20.2855 24.2656 20.3478 27.9208 21.3467C30.1032 21.9428 32.4657 22.6972 33.1711 23.0231C33.8764 23.3487 36.8519 25.4938 39.7833 27.7894C42.715 30.085 45.2542 31.9544 45.4261 31.9435C45.5982 31.9324 47.0663 31.2633 48.6886 30.4564L51.6382 28.9892L51.7093 25.4666C51.7726 22.3341 51.837 21.8929 52.2897 21.4796C52.9327 20.8928 54.2218 20.8798 54.7925 21.4545C55.1341 21.7988 55.248 22.4779 55.316 24.5826L55.4029 27.2711H56.7998C59.282 27.2711 61 28.8681 61 31.1751C61 32.9397 59.9669 34.4132 57.4348 36.2598L55.3573 37.7751V64.7527V91.7304L54.7276 92.3651L54.0982 93H53.1181L52.4423 92.4639L51.7664 91.928V66.0836C51.7664 50.7459 51.6715 40.2396 51.5333 40.2396C51.405 40.2396 50.0803 40.9855 48.5893 41.8969C47.0971 42.8093 45.4194 43.6325 44.8567 43.7285C43.0571 44.035 41.4405 43.3317 37.4552 40.5091C35.4384 39.0806 33.7438 37.9119 33.6894 37.9119C33.6348 37.9119 33.532 38.1154 33.4607 38.3645C33.3891 38.6136 32.7805 41.3501 32.1082 44.4459L30.8855 50.075L36.4393 55.6963C39.7854 59.0833 42.1415 61.6776 42.3667 62.2231C43.0584 63.8982 43.0941 65.3398 42.5457 69.4647C42.2525 71.6695 41.6665 76.2085 41.2433 79.5513C40.3576 86.5469 40.1273 87.7291 39.3017 89.5175C38.5691 91.1042 37.5309 92.1476 36.2138 92.6211L33.0988 92.6969C31.735 92.3891 30.4408 91.1374 30.0194 89.7185C29.5374 88.0969 29.6431 85.2807 30.4905 77.145C31.1297 71.009 31.2118 69.5824 30.9394 69.3344C28.7369 67.3276 25.3536 64.5921 25.2625 64.7439C25.1982 64.851 23.8498 68.1974 22.266 72.1803C19.2028 79.8831 18.441 81.5492 16.3324 85.1599C13.5103 89.9921 11.4356 92.2554 9.37544 92.7489L6.62461 92.6961ZM4.18516 34.9377C5.4499 29.9303 9.76864 25.0293 14.8045 22.8871C16.1188 22.3279 16.5969 22.2345 17.1211 22.435C18.1953 22.8452 18.936 23.7051 18.936 24.5415C18.936 25.2654 14.5875 41.5105 14.0548 42.7765C13.7488 43.5037 12.0916 44.2649 10.2932 44.5038C7.64902 44.8553 4.88947 43.3692 4.05615 41.1448C3.64987 40.0606 3.7181 36.7874 4.18516 34.9377ZM17.3666 45.6708C17.6862 43.6861 22.7713 24.9985 23.1198 24.5278C23.473 24.0509 24.0853 24.1218 27.1054 24.989C31.4226 26.2288 32.0169 26.4895 32.0169 27.1436C32.0169 27.4563 30.9204 32.6819 29.5803 38.7563C28.2401 44.8305 27.1436 50.2315 27.1436 50.7585C27.1436 51.6666 27.4401 52.0082 32.8128 57.2928C35.9309 60.3599 38.6432 63.1834 38.8402 63.5677C39.3399 64.5419 39.2922 65.9062 38.5694 71.3348C38.2234 73.9336 37.6427 78.3846 37.2793 81.2261C36.7791 85.1351 36.4657 86.7287 35.9912 87.7733C35.4012 89.073 35.3148 89.1495 34.5241 89.0727C33.1139 88.9359 33.0929 88.3105 34.1475 77.8808C34.8457 70.9795 35.0104 68.5264 34.8062 68.0743C34.6562 67.7427 31.2174 64.6622 27.1644 61.2284C23.1114 57.7948 19.4257 54.4665 18.974 53.8324C17.442 51.6811 16.868 48.7666 17.3666 45.6708ZM34.7321 34.0056C34.592 33.8783 34.6826 32.9043 34.9573 31.5848C35.2099 30.3705 35.4885 29.3776 35.5762 29.3782C35.6641 29.3787 37.6819 30.8917 40.0603 32.7403C42.4749 34.617 44.6248 36.1015 44.9277 36.1015C45.2263 36.1015 47.8014 34.9948 50.6502 33.6422C57.3825 30.4455 58.8417 30.1308 56.2455 32.4352C54.4732 34.0081 44.7464 39.9809 43.9569 39.9809C43.587 39.9809 42.971 39.7784 42.588 39.5309C41.5841 38.8823 35.0104 34.2585 34.7321 34.0056ZM16.0044 63.6618C16.7846 60.9501 17.4751 58.5756 17.5389 58.385C17.6551 58.039 18.5144 58.6755 21.198 61.0949L22.306 62.0938L19.3608 69.4647C15.7671 78.4588 15.2962 79.5145 13.4226 82.7779C10.8977 87.1759 9.25002 89.1252 8.06479 89.1167C7.17786 89.1102 6.8298 88.7248 6.8298 87.749C6.8298 86.4926 7.20299 85.4134 8.99354 81.491C12.6562 73.467 14.6216 68.4687 16.0044 63.6618Z" fill="white"/>
</svg>
