<svg width="81" height="93" viewBox="0 0 81 93" fill="none" xmlns="http://www.w3.org/2000/svg">
<path fill-rule="evenodd" clip-rule="evenodd" d="M34.4095 0.857074C35.2029 1.26292 36.3234 2.021 36.8991 2.54159C37.857 3.40762 39.7561 5.81043 40.3382 6.89284C40.5507 7.28826 40.6707 7.1854 41.4123 5.97296C42.5734 4.07424 44.8321 1.85483 46.5227 0.95144C49.8165 -0.808517 54.8328 -0.0106534 58.2799 2.82177C61.717 5.64595 62.9096 10.0741 61.2624 13.8951L60.5854 15.4651L68.2223 15.5403C75.6303 15.6131 75.8898 15.6317 76.8721 16.1628C78.4646 17.0239 79.4055 18.003 80.2336 19.6604L81 21.1947V28.2297C81 34.5677 80.9578 35.3835 80.574 36.4633C80.0698 37.8822 78.72 39.5473 77.3864 40.3956L76.4291 41.0045L76.3674 63.97C76.3093 85.6671 76.283 86.9994 75.8914 88.0964C75.317 89.7047 73.5663 91.7128 72.1202 92.4222L70.9423 93H40.5458H10.1492L8.88399 92.3256C7.49469 91.585 6.31124 90.3109 5.52115 88.705L5.00866 87.6631L4.94854 64.3349L4.88819 41.0064L3.69803 40.2775C2.28102 39.4092 1.45405 38.4047 0.670447 36.5989C0.104758 35.295 0.0897843 35.1295 0.0175925 29.3213C-0.0626454 22.8736 0.110123 21.12 0.984694 19.4966C1.72539 18.1219 3.03624 16.8228 4.33815 16.1729C5.42348 15.6313 5.67291 15.6131 13.0139 15.5425C17.1708 15.5024 20.5357 15.3933 20.4914 15.2999C19.4303 13.0601 19.335 12.6606 19.3241 10.396C19.3138 8.27194 19.3706 7.96046 20.0357 6.49282C22.3716 1.33836 29.7195 -1.54258 34.4095 0.857074ZM28.8798 5.41574C26.4069 6.02099 24.2901 7.82486 23.9857 9.58603C23.5733 11.9711 25.4839 14.2318 28.7001 15.1643C30.2306 15.608 38.2001 15.6303 38.1963 15.1907C38.1813 13.4815 36.425 9.53096 34.8471 7.65699C32.8311 5.26267 31.5187 4.76973 28.8798 5.41574ZM48.5361 5.6787C47.8631 6.04598 46.8877 6.8977 46.2485 7.67615C44.8648 9.36091 43.3736 12.5635 43.1903 14.2437L43.0537 15.494H47.1729C51.8195 15.494 53.2683 15.2179 55.0179 13.9994C55.6046 13.5909 56.3004 12.9274 56.5643 12.525C57.1921 11.568 57.3566 9.74055 56.9009 8.78404C56.0228 6.94112 53.7048 5.52127 51.0505 5.20057C49.8735 5.05817 49.566 5.11688 48.5361 5.6787ZM6.52491 20.7425C6.25246 20.8085 5.77483 21.1911 5.46326 21.593L4.89691 22.3235V28.5096V34.6956L5.55021 35.4046L6.20351 36.1137H22.2013H38.199V28.6161V21.1183L36.9138 20.9829C35.2481 20.8073 7.17553 20.5853 6.52491 20.7425ZM47.6979 20.8432C45.9769 20.9373 44.1918 21.0276 43.7307 21.0438L42.8926 21.0734V28.5936V36.1137H58.8233C76.3176 36.1137 75.3505 36.1955 76.0843 34.6555C76.5858 33.6025 76.5706 23.3147 76.0657 22.1597C75.3686 20.5657 75.528 20.5836 62.5272 20.6302C56.092 20.6535 49.4189 20.7493 47.6979 20.8432ZM9.59049 63.6593C9.59049 88.2878 9.51114 86.9839 11.0509 87.6823C11.6789 87.9671 14.1077 88.027 25.0051 88.027H38.199V64.7388V41.4506H23.8947H9.59049V63.6593ZM42.8926 64.7388V88.027H56.0865C70.262 88.027 70.3398 88.0207 71.1365 86.7857C71.4671 86.2736 71.5011 84.1384 71.5011 63.8357V41.4506H57.1968H42.8926V64.7388Z" fill="white"/>
</svg>
