<svg width="98" height="93" viewBox="0 0 98 93" fill="none" xmlns="http://www.w3.org/2000/svg">
<path fill-rule="evenodd" clip-rule="evenodd" d="M49.8492 0.319556C50.1024 0.568781 50.1074 0.653624 50.0723 4.14037C50.0332 8.04819 50.0003 8.23824 49.3157 8.51579C48.8414 8.70801 48.1811 8.59111 47.8779 8.26138C47.6594 8.02348 47.6478 7.79667 47.683 4.44021C47.7227 0.649767 47.7593 0.402712 48.3228 0.111789C48.7384 -0.102728 49.5296 0.00501176 49.8492 0.319556ZM38.8333 1.70548C39.0785 1.82961 39.7136 2.71407 40.9748 4.68823C41.9608 6.23166 42.8031 7.63783 42.8464 7.81294C42.9396 8.18991 42.6621 8.7802 42.2628 9.05389C41.9455 9.27154 41.4389 9.29697 41.0332 9.11571C40.7428 8.98592 37.3384 3.76593 37.0908 3.07067C36.9134 2.57271 37.2283 1.93687 37.7657 1.70825C38.2765 1.49084 38.4088 1.4906 38.8333 1.70548ZM60.2106 1.84793C60.4287 2.07823 60.5125 2.3036 60.5125 2.65936C60.5125 3.07911 60.2474 3.58455 58.7172 6.08307C57.2342 8.5041 56.8508 9.04738 56.5138 9.20465C55.7076 9.58102 54.8485 9.01616 54.8487 8.10965C54.8487 7.68821 55.1051 7.19615 56.5814 4.78295C57.5343 3.2253 58.4346 1.85721 58.5821 1.7426C58.7403 1.61979 59.0672 1.53326 59.3795 1.5317C59.7957 1.52965 59.9731 1.59714 60.2106 1.84793ZM37.6507 12.9183C47.4371 16.3904 47.3384 16.3465 47.3373 17.2281C47.3362 18.1593 45.8788 23.5669 44.1304 29.127C41.726 36.7738 39.938 41.3546 37.5432 46.0043C34.892 51.1514 32.2214 54.9135 29.1608 57.8125C27.5378 59.35 26.4366 60.1699 25.0515 60.8721C23.7929 61.5104 22.8386 61.795 21.626 61.8936L20.7199 61.9674L16.2367 74.0189C13.7708 80.6472 11.6177 86.4318 11.4523 86.8734C11.1761 87.6098 11.1685 87.6831 11.36 87.7571C11.4749 87.8015 13.1645 88.4021 15.1146 89.0919C17.0647 89.7818 18.7613 90.399 18.8848 90.4638C19.0083 90.5285 19.2032 90.7752 19.3181 91.0119C19.49 91.3664 19.502 91.5159 19.3868 91.8578C19.1575 92.5377 18.3298 92.9969 17.9655 92.6464C17.8596 92.5446 14.8855 91.4762 4.30441 87.7392C2.34052 87.0455 0.61401 86.4018 0.46761 86.3086C-0.270667 85.8385 -0.10272 84.597 0.746127 84.2499C1.28112 84.031 0.925279 83.9327 5.5357 85.5731C7.29643 86.1996 8.76942 86.6762 8.80907 86.6322C8.84871 86.5883 10.8557 81.2377 13.2691 74.742C15.6826 68.2462 17.8187 62.4986 18.0164 61.9694L18.3755 61.0073L17.6195 60.2695C15.3521 58.0565 14.3465 54.2678 14.5035 48.5299C14.6687 42.4932 16.167 35.7782 19.0208 28.2834C21.0497 22.9552 23.9228 16.3819 25.9686 12.3873C27.2972 9.79313 27.5133 9.54016 28.2929 9.66574C28.4842 9.69647 32.6952 11.1601 37.6507 12.9183ZM70.5742 10.0819C70.8967 10.2743 71.1864 10.7504 72.1324 12.6423C74.717 17.8112 79.0438 28.0371 80.4546 32.3104C82.4264 38.2833 83.483 43.7785 83.6197 48.771C83.7764 54.5009 82.7757 58.2788 80.5089 60.514L79.7582 61.2543L80.7142 63.8403C86.5664 79.6716 89.3244 86.9112 89.492 86.8807C89.5926 86.8624 91.2055 86.3047 93.076 85.6413C94.9467 84.9779 96.6279 84.4057 96.8121 84.3697C97.274 84.2793 97.7799 84.6922 97.9456 85.2949C98.1327 85.9746 97.8297 86.5709 97.1521 86.8568C96.2015 87.2578 79.8859 93 79.6969 93C79.3794 93 78.8844 92.5376 78.7384 92.1046C78.6294 91.7815 78.6379 91.607 78.7785 91.2776C78.8765 91.048 79.0315 90.8147 79.1231 90.7591C79.2147 90.7036 81.0072 90.0508 83.1066 89.3084C85.9768 88.2934 86.9152 87.9137 86.8896 87.7771C86.8709 87.6772 85.7979 84.7577 84.5052 81.2893C83.2125 77.8208 81.0862 72.1087 79.78 68.5957L77.4051 62.2084L76.4981 62.1346C73.9554 61.928 71.3669 60.4633 68.4976 57.608C64.414 53.544 60.0329 46.1978 57.1469 38.5751C54.9083 32.6624 50.7854 18.959 50.7854 17.4312C50.7854 17.1825 50.8817 16.8652 51.0011 16.7209C51.1551 16.5347 53.8578 15.518 60.4512 13.1656C65.5301 11.3537 69.7964 9.86544 69.9318 9.85833C70.0673 9.85121 70.3564 9.95185 70.5742 10.0819ZM28.2343 13.7359C27.1468 15.8542 25.1319 20.3913 23.533 24.3225C22.6874 26.4016 21.9613 28.2178 21.9194 28.3586C21.8593 28.5612 21.9855 28.7418 22.5241 29.2235C23.7589 30.3282 25.4026 30.8954 27.0216 30.7758C27.5295 30.7383 28.7485 30.4898 29.7304 30.2237C32.6875 29.4221 33.7374 29.3472 35.5719 29.8061C37.1734 30.2068 38.5291 30.9806 39.7163 32.1719C40.4235 32.8814 40.4385 32.8892 40.5495 32.6034C40.8088 31.9361 42.3261 27.2024 43.016 24.909C44.2263 20.8855 44.8921 18.2449 44.7223 18.1421C44.6415 18.0932 43.9642 17.8364 43.217 17.5714C38.2243 15.8002 31.6496 13.4758 30.3756 13.0316L28.8659 12.5053L28.2343 13.7359ZM68.0233 13.0946C65.7903 13.8967 58.2114 16.5768 55.8336 17.4055C54.5808 17.842 53.5145 18.2335 53.464 18.2755C53.3027 18.4096 54.5444 23.0544 55.785 26.9577C56.6942 29.8184 57.7049 32.7958 57.8025 32.9009C57.8525 32.9549 58.0729 32.7775 58.292 32.5066C59.4621 31.0605 62.5492 29.7379 64.7686 29.7316C65.8315 29.7287 66.7559 29.9124 68.5159 30.4765C71 31.2726 72.5391 31.2376 74.5062 30.34C74.9226 30.1499 75.5469 29.7272 75.8932 29.4003L76.523 28.8062L76.3514 28.3339C75.5827 26.2186 72.8359 19.77 71.3764 16.6537C70.6134 15.0249 69.3975 12.6113 69.3459 12.6234C69.3295 12.6273 68.7344 12.8394 68.0233 13.0946ZM20.4921 31.8745C20.1088 32.8754 19.084 36.2378 18.6534 37.9071C18.1001 40.0522 17.5924 42.6711 17.2833 44.9747C16.914 47.7275 16.882 51.9287 17.2154 53.8859C17.603 56.1601 18.2119 57.6961 19.1142 58.6756C20.9286 60.6452 24.142 59.5078 28.0554 55.5105C31.992 51.4894 35.3324 45.9175 38.3926 38.267C38.6933 37.5152 39.0351 36.6735 39.1521 36.3966L39.365 35.893L38.7896 35.0459C37.8052 33.5965 36.5631 32.7486 34.7787 32.3078C33.6599 32.0313 32.5082 32.1427 30.3461 32.7361C28.0402 33.3689 26.7468 33.5359 25.554 33.3548C23.9324 33.1085 22.5726 32.5449 21.2932 31.5891L20.7553 31.1873L20.4921 31.8745ZM76.7655 31.6707C76.2138 32.1376 74.5782 32.9167 73.6257 33.1664C72.5699 33.4432 71.1562 33.5201 70.1678 33.3547C69.6994 33.2762 68.6236 32.9897 67.7771 32.7179C64.0458 31.5198 61.4066 32.2555 59.3587 35.0644L58.8005 35.8299L59.3918 37.3382C64.4488 50.2388 71.7858 59.6318 76.7923 59.6147C77.7699 59.6113 78.3936 59.3393 79.0654 58.6231C80.2823 57.326 80.9492 55.1914 81.1966 51.8038C81.4714 48.0399 80.782 42.5229 79.4096 37.5028C78.7562 35.1126 77.4746 31.2957 77.3274 31.3012C77.2554 31.3039 77.0025 31.4702 76.7655 31.6707Z" fill="white"/>
</svg>
