<svg width="92" height="92" viewBox="0 0 92 92" fill="none" xmlns="http://www.w3.org/2000/svg">
<path fill-rule="evenodd" clip-rule="evenodd" d="M51.9986 0.909371C52.9605 2.71601 51.434 13.0211 49.3322 18.9113C47.9378 22.8186 45.8598 27.0695 44.0422 29.7329L42.718 31.6737L51.1024 40.0703L59.4872 48.4668L63.3875 47.1155C65.533 46.3723 68.4008 45.7174 69.7608 45.6599C72.2054 45.5566 72.2333 45.5706 72.2333 46.9168C72.2333 48.2444 72.1286 48.3042 67.9841 49.3255C65.6474 49.9019 63.2787 50.6189 62.7201 50.919C61.7304 51.4514 61.7257 51.4963 62.5303 52.7172C65.1498 56.6933 66.44 59.2688 66.9432 61.5294C67.9957 66.2561 70.5501 64.865 34.3839 79.2658C16.6366 86.3325 1.67202 92.0506 1.12925 91.973C0.534389 91.8875 0.0864981 91.4346 0.000919762 90.832C-0.174888 89.5924 24.9103 25.6774 25.8893 24.8711C27.5041 23.5412 32.2384 24.7276 36.5871 27.5523C38.1754 28.5844 39.6623 29.4286 39.8907 29.4286C40.4962 29.4286 43.3933 24.4752 44.9812 20.7249C47.0262 15.8954 48.3011 10.5647 48.6015 5.58935C48.749 3.14699 49.0769 0.885999 49.3299 0.564403C50.0257 -0.319052 51.4419 -0.136285 51.9986 0.909371ZM24.9317 3.52702C25.1103 4.78349 23.9443 5.75248 22.7224 5.36264C21.7853 5.06395 21.3923 3.32041 22.1015 2.60757C22.8057 1.8994 24.7921 2.54493 24.9317 3.52702ZM67.6153 3.51907C66.2107 4.9312 67.019 6.99166 68.9776 6.99166C71.0003 6.99166 71.7417 4.94241 70.2198 3.55833C69.158 2.59261 68.5469 2.58326 67.6153 3.51907ZM37.5954 7.8667C41.6097 11.9011 38.5042 18.0853 32.8216 17.3739C32.1212 17.286 30.9254 16.5886 30.165 15.8243C26.5088 12.1498 28.9618 6.56909 34.2472 6.53684C35.8527 6.52656 36.5299 6.7958 37.5954 7.8667ZM15.9232 8.66087C16.325 9.06521 16.6538 9.90659 16.6538 10.5306C16.6538 11.4748 16.8836 11.666 18.018 11.666C18.984 11.666 19.47 11.9451 19.6839 12.6233C20.0695 13.8443 19.1747 14.9381 17.7905 14.9381C16.9747 14.9381 16.6803 15.2368 16.5682 16.1763C16.2576 18.7902 13.3325 18.8136 13.0209 16.2048C12.913 15.2994 12.5735 14.9582 11.6726 14.8497C9.13641 14.5436 9.00153 11.666 11.5233 11.666C12.7061 11.666 12.933 11.4833 12.933 10.5306C12.933 9.42092 14.0004 7.92653 14.7934 7.92653C15.0125 7.92653 15.5208 8.25701 15.9232 8.66087ZM32.5602 10.3572C31.8426 11.0785 31.8426 12.721 32.5602 13.4423C33.4146 14.301 35.1685 14.1098 35.7066 13.0992C36.3606 11.8708 36.3141 11.3921 35.4573 10.5306C34.5867 9.65605 33.3328 9.58079 32.5602 10.3572ZM60.2802 14.5641C61.6727 15.9636 60.0918 18.1727 58.3844 17.2126C57.0394 16.4558 57.6705 14.0032 59.2105 14.0032C59.4918 14.0032 59.9732 14.2556 60.2802 14.5641ZM84.9305 18.3036C85.8225 19.2002 85.5774 20.5338 84.4421 20.961C83.8663 21.1779 81.9306 21.6967 80.14 22.1146C78.3493 22.5325 74.9611 23.8413 72.6109 25.023C67.9636 27.3588 66.6521 27.5093 66.6521 25.7055C66.6521 24.902 67.2013 24.1854 68.5125 23.2776C70.8063 21.6893 76.4113 19.3811 80.14 18.4883C83.6901 17.6389 84.2477 17.6174 84.9305 18.3036ZM90.6354 18.6939C91.7242 19.2796 91.8051 20.6749 90.7982 21.5149C89.3485 22.7242 87.5313 20.38 88.7629 18.8889C89.4308 18.0797 89.4833 18.0741 90.6354 18.6939ZM58.8909 27.9094C59.0105 29.1538 59.2356 29.4286 60.1369 29.4286C61.2174 29.4286 62.6987 30.5098 62.6987 31.2984C62.6987 32.0953 61.2118 33.1681 60.1076 33.1681C59.1681 33.1681 58.9779 33.399 58.9779 34.5391C58.9779 35.51 58.7003 35.9984 58.0254 36.2135C56.8324 36.5939 55.7222 35.7086 55.7222 34.376C55.7222 33.6351 55.3153 33.241 54.2116 32.9143C51.7628 32.1893 52.0837 29.4286 54.6162 29.4286C55.4604 29.4286 55.7222 29.1739 55.7222 28.3535C55.7222 25.7602 58.6454 25.3502 58.8909 27.9094ZM29.6766 28.4045C29.6766 29.0766 32.7291 33.901 35.5415 37.6733C39.2163 42.6028 49.4015 52.779 54.5074 56.6222C58.8463 59.8877 63.0568 62.4124 63.4712 61.9963C63.7763 61.6892 60.6723 55.771 59.4002 54.2345C58.4872 53.1314 58.4203 53.1211 57.1352 53.884C55.3901 54.9203 54.4692 54.8763 53.8576 53.7278C53.4344 52.9327 53.5897 52.5705 54.8511 51.4126L56.3464 50.0402L48.5936 42.3009C41.5041 35.2234 40.7613 34.6116 39.9084 35.1468C38.633 35.947 37.3508 35.0851 37.3508 33.4275C37.3508 31.9874 36.6196 31.3344 32.8295 29.3908C29.9547 27.9169 29.6766 27.83 29.6766 28.4045ZM25.3 34.5461L24.0322 37.7934L26.273 40.742C27.5055 42.3635 29.0264 44.6685 29.6529 45.8646C30.6305 47.7311 30.7022 48.1485 30.1589 48.8067C29.0245 50.1805 27.7655 49.4354 25.8498 46.2563C22.6834 41.0024 22.7508 41.0192 21.189 45.084L19.837 48.6029L21.4988 50.8779C23.6471 53.819 25.7251 58.3246 26.6907 62.1338C27.2795 64.4569 27.4009 66.4594 27.2162 70.7813C27.0837 73.8748 26.82 76.9034 26.6302 77.511C26.3181 78.509 26.3925 78.5843 27.3995 78.2902C29.5315 77.6681 30.7691 76.3443 32.5598 72.7726C37.4638 62.9901 37.6001 50.4301 32.9039 41.0472C31.2342 37.7116 27.2655 31.3376 26.8432 31.3138C26.6916 31.3054 25.9972 32.7596 25.3 34.5461ZM83.6436 32.0075C86.5337 33.5098 87.2453 38.0365 84.9733 40.4671C81.4013 44.2884 75.489 41.8414 75.489 36.5416C75.489 34.7794 75.7276 34.2787 77.2261 32.8984C79.1898 31.0904 81.3115 30.7954 83.6436 32.0075ZM79.7237 35.1776C79.1739 35.582 78.9498 36.2466 79.0535 37.1642C79.1865 38.3384 79.4339 38.5656 80.7181 38.6899C81.9566 38.8101 82.3231 38.6222 82.7682 37.6401C83.2212 36.6407 83.1719 36.2896 82.4673 35.5072C81.4836 34.4148 80.8637 34.3404 79.7237 35.1776ZM39.2865 50.1506C40.4818 56.9924 39.6428 64.5869 36.9452 71.3418L35.4206 75.1593L37.781 74.2133C39.0791 73.6935 41.219 72.8483 42.5357 72.336C44.7756 71.4647 45.0207 71.2044 46.3398 68.296C47.8406 64.9879 49.0731 60.9624 49.3034 58.6191C49.4285 57.3435 48.8755 56.6432 44.0724 51.996L38.701 46.7995L39.2865 50.1506ZM15.6473 59.0033C13.3902 64.7033 13.0953 65.7886 13.5879 66.5898C15.6362 69.9217 16.8966 76.3672 16.2622 80.2624C16.0422 81.6118 16.005 82.7164 16.179 82.7164C16.3534 82.7164 17.7347 82.2102 19.2491 81.5917C21.9453 80.49 22.0201 80.4101 22.8615 77.7354C24.1075 73.7715 24.3647 67.3359 23.4359 63.3645C22.6662 60.0752 20.5774 55.2699 19.1016 53.3941C18.29 52.3625 18.2552 52.4186 15.6473 59.0033ZM32.2347 53.969C32.2347 55.1362 32.0482 55.3714 31.1226 55.3714C29.6338 55.3714 28.818 54.0742 29.6627 53.051C30.0092 52.6312 30.7296 52.3508 31.2635 52.4274C32.0017 52.5331 32.2347 52.9033 32.2347 53.969ZM79.2098 54.4365C79.2098 55.6037 79.0233 55.8388 78.0977 55.8388C76.6089 55.8388 75.7931 54.5417 76.6378 53.5184C76.9843 53.0987 77.7047 52.8182 78.2386 52.8949C78.9767 53.0005 79.2098 53.3707 79.2098 54.4365ZM52.2507 61.5443C52.0712 62.5199 51.5121 64.5518 51.0094 66.0602C50.5061 67.5682 50.1815 68.8901 50.288 68.9971C50.5447 69.2547 60.3779 65.3451 60.3579 64.9931C60.3448 64.7664 53.8511 60.3524 52.8786 59.9083C52.713 59.833 52.4307 60.5692 52.2507 61.5443ZM85.0049 67.0348C85.9732 68.2076 85.3979 69.3945 83.8608 69.3945C82.8999 69.3945 82.4292 69.1383 82.3171 68.554C82.1324 67.5901 82.9994 66.3561 83.8608 66.3561C84.1817 66.3561 84.6965 66.6613 85.0049 67.0348ZM7.94297 78.6418C6.09419 83.2937 4.6468 87.165 4.72633 87.2449C4.80587 87.3249 6.45511 86.742 8.39132 85.9492C11.8089 84.5502 11.927 84.4483 12.4223 82.4705C13.3153 78.9059 12.7828 71.1029 11.5963 70.3658C11.4359 70.2658 9.79174 73.9903 7.94297 78.6418ZM77.4889 73.9286C77.7959 74.2371 78.047 74.9593 78.047 75.5338C78.047 76.3139 78.3582 76.615 79.2791 76.7257C81.8376 77.0328 81.998 79.9118 79.4567 79.9118C78.274 79.9118 78.047 80.0945 78.047 81.0472C78.047 82.1569 76.9796 83.6513 76.1866 83.6513C75.3936 83.6513 74.3262 82.1569 74.3262 81.0472C74.3262 80.0945 74.0992 79.9118 72.9165 79.9118C70.3752 79.9118 70.5356 77.0328 73.0942 76.7257C73.8137 76.6393 74.3262 76.2859 74.3262 75.8769C74.3262 73.8304 76.2266 72.66 77.4889 73.9286Z" fill="white"/>
</svg>
