<svg width="97" height="18" viewBox="0 0 97 18" fill="none" xmlns="http://www.w3.org/2000/svg">
<path fill-rule="evenodd" clip-rule="evenodd" d="M88.4042 0.0355344C85.7407 0.268595 83.8265 1.3552 82.9612 3.12514C82.5214 4.02484 82.3883 5.14293 82.5859 6.27837C82.8674 7.89555 83.8407 8.97357 85.7059 9.73387C86.5021 10.0585 87.3885 10.3122 88.9657 10.6671C90.791 11.0779 91.8334 11.4495 92.2901 11.8523C92.6022 12.1275 92.7233 12.5015 92.6477 12.9562C92.5185 13.7326 91.7707 14.1205 90.2807 14.1842C89.386 14.2225 88.0669 14.1171 87.0773 13.9284C85.8132 13.6872 84.472 13.238 83.3892 12.6932C83.2032 12.5996 83.0469 12.5284 83.0419 12.5349C83.0176 12.5662 81.7669 16.1834 81.7772 16.1926C81.8099 16.2217 82.3183 16.4666 82.5851 16.5818C84.0932 17.2329 85.9599 17.69 87.9872 17.9046C88.8709 17.9981 90.5793 18.0181 91.2852 17.9431C94.1701 17.6368 96.0398 16.3999 96.7225 14.3461C97.0909 13.2378 97.0926 11.9737 96.7271 10.8996C96.2218 9.41428 94.8828 8.29232 92.7614 7.57692C92.4786 7.48155 91.3868 7.19045 90.3352 6.93004C87.5139 6.23143 87.0564 6.05413 86.8034 5.56161C86.6796 5.32046 86.6658 4.88791 86.7739 4.63613C86.9397 4.25011 87.3562 3.97926 88.027 3.8214C88.3533 3.7446 88.4832 3.737 89.4846 3.7364C90.5946 3.73571 90.8328 3.75364 91.7781 3.90925C92.8924 4.09263 94.065 4.44883 94.8474 4.84153C95.1076 4.97212 95.3237 5.07566 95.3277 5.07159C95.3538 5.04482 96.6304 1.642 96.6304 1.5992C96.6304 1.56874 96.4752 1.47298 96.2701 1.37696C94.6486 0.61773 92.7647 0.172233 90.5846 0.0324199C89.8922 -0.0119817 88.9314 -0.0106143 88.4042 0.0355344ZM4.36903 8.97122C1.96604 13.699 0 17.5872 0 17.6116C0 17.6451 0.573907 17.6536 2.33975 17.6462L4.67951 17.6364L5.39914 16.1836L6.11873 14.7308H9.64068C12.6912 14.7308 13.1598 14.7234 13.1416 14.676C13.1301 14.646 12.7402 13.8342 12.2752 12.8722L11.4297 11.1232L9.66471 11.1133L7.89966 11.1034L9.1987 8.46419C9.91317 7.01258 10.512 5.82015 10.5294 5.81434C10.5467 5.80853 11.8854 8.47042 13.504 11.7296L16.4471 17.6554H18.8381C20.7264 17.6554 21.2288 17.6454 21.2278 17.6079C21.227 17.5818 19.2608 13.6976 16.8584 8.97642L12.4905 0.39238L10.6143 0.383796L8.73806 0.375212L4.36903 8.97122ZM22.1483 9.00491L22.1579 17.6364L24.2524 17.6462L26.3469 17.6561V9.01471V0.373389H24.2428H22.1388L22.1483 9.00491ZM29.1901 9.01471V17.6561L31.2845 17.6462L33.379 17.6364L33.3886 10.8644L33.3982 4.09233L36.0802 4.10483C38.7482 4.11728 38.7636 4.11782 39.0462 4.20415C39.4554 4.32923 39.734 4.49126 39.9751 4.74445C40.3596 5.1484 40.5577 5.76534 40.5107 6.4126C40.4353 7.45013 39.948 8.04574 38.9517 8.3183C38.6588 8.3984 38.5696 8.40178 36.3615 8.41656C34.6374 8.42807 34.0789 8.44277 34.092 8.47623C34.1217 8.55204 39.7341 17.5185 39.7959 17.5889C39.8503 17.6509 40.0134 17.6554 42.1988 17.6554C43.8696 17.6554 44.5433 17.6435 44.5433 17.6139C44.5433 17.5911 44.0707 16.8262 43.4931 15.9142C42.9155 15.0022 42.0458 13.6241 41.5604 12.8519L40.6779 11.4479L41.1649 11.2892C42.5357 10.8426 43.4673 10.0973 44.0565 8.97585C44.8322 7.49951 44.9011 5.32612 44.2232 3.71558C43.5426 2.0989 42.1052 0.991781 40.1342 0.566378C39.258 0.377263 39.1352 0.373389 33.9953 0.373389H29.1901V9.01471ZM46.7041 9.01649V17.6596L52.1725 17.6446C57.8688 17.629 57.7864 17.6313 58.6455 17.4605C59.7482 17.2412 60.7798 16.7241 61.4677 16.0458C62.3454 15.1804 62.7778 14.1145 62.7774 12.8172C62.777 11.4927 62.3613 10.435 61.5205 9.61916C61.1428 9.25267 60.8376 9.04042 60.3794 8.82582L60.0392 8.66648L60.3613 8.45173C61.4845 7.70298 62.0575 6.53263 62.0569 4.98826C62.0562 2.75983 60.6701 1.11386 58.3295 0.561934C57.5392 0.375592 57.4647 0.373389 51.9086 0.373389H46.7041V9.01649ZM64.5972 5.45355C64.5972 8.64548 64.6118 10.689 64.6363 10.9515C65.0288 15.1483 67.3818 17.5852 71.4019 17.9585C72.3002 18.0419 73.4541 17.9974 74.3399 17.8452C76.8458 17.4145 78.6562 16.0355 79.583 13.8515C79.9152 13.0685 80.0703 12.49 80.2432 11.3883C80.2987 11.0348 80.3073 10.3869 80.3189 5.68144L80.332 0.373389H78.1902H76.0483L76.0363 5.60548C76.023 11.3535 76.0349 11.0511 75.7928 11.8203C75.3024 13.3787 74.0591 14.1586 72.2015 14.0731C71.1511 14.0247 70.4387 13.7251 69.8355 13.078C69.4277 12.6405 69.1588 12.0712 68.9836 11.2744C68.9056 10.9195 68.9041 10.8262 68.8914 5.64346L68.8784 0.373389H66.7378H64.5972L64.5972 5.45355ZM57.1008 4.1411C57.383 4.27362 57.6966 4.57281 57.8218 4.82881C58.2109 5.62504 57.9103 6.5332 57.1303 6.91796L56.8844 7.03932L53.8792 7.04968L50.8741 7.06009V5.53878V4.0175L53.8784 4.0281L56.8827 4.0387L57.1008 4.1411ZM57.2208 10.5816C57.5538 10.7083 57.733 10.8253 57.9562 11.0617C58.8785 12.0388 58.3163 13.7167 56.9816 13.9703C56.8538 13.9946 55.6751 14.0091 53.8258 14.0091H50.8741V12.2416V10.4742L53.9353 10.4852L56.9964 10.4963L57.2208 10.5816Z" fill="white"/>
</svg>
