<svg width="154" height="19" viewBox="0 0 154 19" fill="none" xmlns="http://www.w3.org/2000/svg">
<path fill-rule="evenodd" clip-rule="evenodd" d="M75.6871 0.0731944C74.1611 0.272894 72.2557 1.13587 71.5234 1.95903C71.2747 2.23852 70.9018 2.82459 70.6945 3.26152C70.3678 3.95044 70.3177 4.2467 70.317 5.4916C70.3163 6.82632 70.3498 6.99451 70.7941 7.88513C71.6522 9.60522 73.012 10.4231 76.3633 11.2343C79.554 12.0068 80.1144 12.3245 80.1144 13.3608C80.1144 13.6842 80.0163 14.087 79.8963 14.2561C79.0786 15.4081 74.4883 15.0457 71.2798 13.5759C70.7718 13.3432 70.2983 13.1528 70.2274 13.1528C70.1564 13.1528 70.0985 14.1168 70.0985 15.295V17.4371L70.788 17.7385C72.8017 18.6184 74.5531 18.9428 77.2839 18.9421C81.9343 18.9408 84.2272 17.4004 84.6126 14.018C84.9096 11.4115 84.0339 9.74217 81.7979 8.6517C81.2018 8.36118 79.7812 7.88843 78.5727 7.57871C76.0058 6.92073 75.8082 6.84867 75.2072 6.34942C74.2842 5.583 74.7408 4.29454 76.0314 4.02336C77.5856 3.69688 80.1486 4.04456 82.4348 4.89207L83.7434 5.37714V3.27298V1.16882L82.6058 0.778018C81.9802 0.563133 80.9513 0.296245 80.3196 0.185221C79.2615 -0.000869503 76.722 -0.0623266 75.6871 0.0731944ZM93.8319 0.0731944C93.0735 0.172471 91.8369 0.559121 91.101 0.927148C89.117 1.91935 88.1032 4.11232 88.5245 6.50027C88.7382 7.7105 89.1098 8.43581 89.9094 9.20281C90.8219 10.078 92.1353 10.6509 94.6645 11.2765C97.0144 11.8579 97.5768 12.0731 98.0254 12.5622C98.3809 12.9498 98.3912 13.9177 98.0437 14.2965C97.0325 15.3992 92.7101 15.0397 89.4522 13.5819C88.9248 13.3459 88.4699 13.1528 88.441 13.1528C88.4121 13.1528 88.3885 14.1382 88.3885 15.3424V17.5319L89.4104 17.9243C92.1523 18.9771 95.5673 19.2848 98.2906 18.7244C100.123 18.3473 101.711 17.2027 102.336 15.8098C102.76 14.8623 102.95 13.1911 102.755 12.1261C102.54 10.9554 102.205 10.3367 101.379 9.58602C100.476 8.76416 99.2433 8.23483 96.6827 7.56925C94.1134 6.90139 93.94 6.83793 93.352 6.34942C92.4461 5.59718 92.9087 4.28967 94.1748 4.02365C94.9922 3.85202 97.061 3.92637 98.1933 4.16819C98.7558 4.28824 99.8172 4.60942 100.552 4.88175L101.888 5.37714V3.25994V1.14275L100.726 0.760684C100.086 0.550669 99.0578 0.289656 98.4395 0.180924C97.4019 -0.00158562 94.8579 -0.0611806 93.8319 0.0731944ZM6.25879 1.08344C5.8326 2.306 0.479022 17.423 0.221512 18.131L0 18.7399H2.50892H5.01798L5.41513 17.3365C5.63345 16.5646 5.85771 15.8605 5.91345 15.7716C5.98748 15.6532 6.24761 15.6656 6.88384 15.8173C7.94959 16.0715 10.4711 16.1042 11.7449 15.8803C12.2638 15.7892 12.7495 15.7147 12.8242 15.715C12.8989 15.7153 13.1621 16.3798 13.4091 17.1918L13.8581 18.6682L16.3527 18.7073L18.8472 18.7466L18.6251 18.1343C18.3139 17.2765 12.9332 2.08753 12.5846 1.08344L12.2988 0.259715H9.42237H6.54591L6.25879 1.08344ZM18.7125 2.26531V4.27091H21.1076H23.5027V11.5054V18.7399H25.6801H27.8575V11.5054V4.27091H30.4703H33.0832V2.26531V0.259715H25.8978H18.7125V2.26531ZM36.4218 9.49978V18.7399H40.8859H45.3498L46.0027 16.8523C46.3617 15.8143 46.6772 14.9117 46.7038 14.8467C46.7305 14.7818 45.4077 14.7287 43.7644 14.7287H40.7766V7.49419V0.259715H38.5992H36.4218V9.49978ZM51.827 9.39234C50.057 14.4154 48.6102 18.5734 48.6119 18.6324C48.6137 18.6914 49.7144 18.7399 51.0578 18.7399H53.5007L53.9109 17.3156C54.1366 16.5323 54.3609 15.8282 54.4094 15.7507C54.4656 15.661 54.8129 15.6852 55.3667 15.8173C56.4325 16.0715 58.954 16.1042 60.2278 15.8803C60.7467 15.7892 61.2362 15.7137 61.3156 15.7128C61.3948 15.7118 61.6569 16.3764 61.8978 17.1897L62.3359 18.6682L64.8316 18.7073L67.3272 18.7466L67.0589 17.991C66.9114 17.5756 65.4828 13.5289 63.8842 8.99838C62.2857 4.46789 60.9327 0.648227 60.8775 0.510414C60.7868 0.283495 60.5059 0.259715 57.9115 0.259715H55.0455L51.827 9.39234ZM107.985 9.49978V18.7399H110.09H112.194V9.49978V0.259715H110.09H107.985V9.49978ZM121.951 1.08344C121.316 2.91527 115.982 17.9797 115.839 18.3459L115.685 18.7399H118.187H120.688L121.11 17.2715C121.342 16.4638 121.551 15.7651 121.575 15.7187C121.599 15.6723 122.029 15.7221 122.531 15.8294C123.658 16.0703 126.363 16.0935 127.436 15.8716C127.875 15.7807 128.326 15.6959 128.437 15.6832C128.577 15.6671 128.777 16.1396 129.079 17.1998L129.518 18.7399H131.961C133.501 18.7399 134.404 18.6867 134.404 18.5959C134.404 18.5167 133.09 14.7292 131.484 10.1795C129.878 5.6297 128.435 1.53656 128.277 1.08344L127.99 0.259715H125.114H122.237L121.951 1.08344ZM137.742 9.49692V18.7399H139.702H141.662L141.666 11.6845L141.671 4.62905L142.471 6.41976C142.911 7.40465 144.558 10.5791 146.131 13.4742L148.992 18.7377L151.496 18.7388L154 18.7399V9.49978V0.259715H152.04H150.081V6.1619C150.081 9.60622 150.027 12.0074 149.952 11.928C149.881 11.8532 149.5 11.0505 149.105 10.1444C148.71 9.23834 147.4 6.65972 146.194 4.41416L144.001 0.331343L140.872 0.292664L137.742 0.254128V9.49692ZM10.6433 7.9125C11.2492 9.95477 11.7449 11.7061 11.7449 11.8044C11.7449 12.0351 10.5187 12.2933 9.42237 12.2933C8.35023 12.2933 7.10099 12.0369 7.09606 11.8158C7.08793 11.4547 9.35574 4.0086 9.44574 4.101C9.49843 4.15501 10.0374 5.87023 10.6433 7.9125ZM59.1256 7.82096C59.7387 9.89173 60.2735 11.6711 60.3138 11.7751C60.4034 12.0053 59.1028 12.2933 57.9735 12.2933C57.2215 12.2933 55.7422 12.0687 55.6055 11.9337C55.5407 11.87 57.7019 4.36474 57.8662 4.08224C57.9036 4.01792 57.9515 3.98568 57.9726 4.01061C57.9936 4.03568 58.5126 5.75018 59.1256 7.82096ZM127.43 11.7442C127.437 12.0392 126.365 12.2933 125.114 12.2933C124.017 12.2933 122.791 12.0351 122.791 11.8044C122.791 11.5968 124.96 4.26217 125.078 4.07106C125.159 3.93927 127.42 11.3147 127.43 11.7442Z" fill="white"/>
</svg>
