<svg width="83" height="49" viewBox="0 0 83 49" fill="none" xmlns="http://www.w3.org/2000/svg">
<path d="M24.4583 17.238C24.4583 18.2147 24.5634 19.0067 24.7473 19.5875C24.9575 20.1682 25.2202 20.8018 25.588 21.4881C25.7193 21.6993 25.7719 21.9105 25.7719 22.0953C25.7719 22.3593 25.6143 22.6232 25.2727 22.8872L23.6176 23.996C23.3811 24.1543 23.1447 24.2335 22.9345 24.2335C22.6718 24.2335 22.4091 24.1015 22.1464 23.864C21.7786 23.468 21.4633 23.0456 21.2006 22.6232C20.9379 22.1745 20.6751 21.6729 20.3862 21.0658C18.3369 23.4944 15.7623 24.7087 12.6622 24.7087C10.4554 24.7087 8.69518 24.0751 7.40786 22.808C6.12054 21.5409 5.46375 19.8514 5.46375 17.7396C5.46375 15.4957 6.2519 13.6743 7.85448 12.3016C9.45707 10.9288 11.5851 10.2425 14.2911 10.2425C15.1843 10.2425 16.1038 10.3217 17.0759 10.4537C18.048 10.5857 19.0463 10.7969 20.0972 11.0344V9.10737C20.0972 7.10111 19.6768 5.70201 18.8624 4.88366C18.0217 4.06532 16.603 3.66935 14.5801 3.66935C13.6606 3.66935 12.7148 3.77494 11.7427 4.01252C10.7707 4.25011 9.82487 4.54049 8.90536 4.91006C8.48501 5.09485 8.16975 5.20044 7.98584 5.25324C7.80194 5.30604 7.67058 5.33243 7.56549 5.33243C7.19769 5.33243 7.01378 5.06845 7.01378 4.51409V3.22058C7.01378 2.79821 7.06633 2.48143 7.19769 2.29664C7.32905 2.11185 7.56549 1.92707 7.9333 1.74228C8.85281 1.26711 9.95623 0.87114 11.2436 0.554362C12.5309 0.211185 13.897 0.0527964 15.342 0.0527964C18.4683 0.0527964 20.754 0.765547 22.2252 2.19105C23.6701 3.61655 24.4057 5.7812 24.4057 8.685V17.238H24.4583ZM13.7919 21.2505C14.6589 21.2505 15.5521 21.0922 16.4979 20.7754C17.4437 20.4586 18.2844 19.8778 18.9937 19.0859C19.4141 18.5843 19.7294 18.03 19.887 17.3964C20.0446 16.7628 20.1497 15.9973 20.1497 15.0998V13.991C19.3878 13.8063 18.5734 13.6479 17.7327 13.5423C16.892 13.4367 16.0776 13.3839 15.2631 13.3839C13.5029 13.3839 12.2156 13.7271 11.3486 14.4398C10.4817 15.1526 10.0613 16.1557 10.0613 17.4756C10.0613 18.7163 10.3766 19.6403 11.0334 20.2738C11.6639 20.9338 12.5834 21.2505 13.7919 21.2505ZM34.8882 24.1015C34.4153 24.1015 34.1001 24.0224 33.8899 23.8376C33.6797 23.6792 33.4958 23.3096 33.3382 22.808L27.1643 2.40224C27.0067 1.87427 26.9278 1.53109 26.9278 1.34631C26.9278 0.923937 27.138 0.686353 27.5584 0.686353H30.133C30.6322 0.686353 30.9737 0.765547 31.1576 0.950335C31.3678 1.10872 31.5254 1.4783 31.683 1.97986L36.0967 19.4555L40.1951 1.97986C40.3265 1.4519 40.4841 1.10872 40.6943 0.950335C40.9045 0.791946 41.2723 0.686353 41.7452 0.686353H43.8469C44.3461 0.686353 44.6876 0.765547 44.8978 0.950335C45.108 1.10872 45.2919 1.4783 45.3969 1.97986L49.5479 19.6666L54.0929 1.97986C54.2506 1.4519 54.4345 1.10872 54.6184 0.950335C54.8285 0.791946 55.1701 0.686353 55.643 0.686353H58.0863C58.5066 0.686353 58.743 0.897538 58.743 1.34631C58.743 1.4783 58.7168 1.61029 58.6905 1.76868C58.6642 1.92707 58.6117 2.13825 58.5066 2.42863L52.1751 22.8344C52.0175 23.3624 51.8336 23.7056 51.6234 23.864C51.4132 24.0224 51.0717 24.1279 50.625 24.1279H48.3657C47.8665 24.1279 47.525 24.0487 47.3148 23.864C47.1046 23.6792 46.9207 23.336 46.8156 22.808L42.7435 5.7812L38.6976 22.7816C38.5663 23.3096 38.4086 23.6528 38.1985 23.8376C37.9883 24.0224 37.6205 24.1015 37.1476 24.1015H34.8882ZM68.6475 24.8143C67.2814 24.8143 65.9153 24.6559 64.6017 24.3391C63.2881 24.0224 62.2635 23.6792 61.5804 23.2832C61.1601 23.0456 60.8711 22.7816 60.766 22.5441C60.6609 22.3065 60.6083 22.0425 60.6083 21.8049V20.4586C60.6083 19.9042 60.8185 19.6403 61.2126 19.6403C61.3702 19.6403 61.5279 19.6666 61.6855 19.7194C61.8431 19.7722 62.0796 19.8778 62.3423 19.9834C63.2355 20.3794 64.2076 20.6962 65.2322 20.9074C66.2831 21.1185 67.3077 21.2241 68.3585 21.2241C70.0137 21.2241 71.301 20.9338 72.1942 20.353C73.0875 19.7722 73.5604 18.9275 73.5604 17.8452C73.5604 17.106 73.3239 16.4989 72.851 15.9973C72.3781 15.4957 71.4849 15.047 70.1976 14.6246L66.3882 13.4367C64.4703 12.8295 63.0516 11.932 62.1847 10.7441C61.3177 9.58254 60.8711 8.28903 60.8711 6.91633C60.8711 5.8076 61.1075 4.83087 61.5804 3.98613C62.0533 3.14138 62.6838 2.40224 63.472 1.82147C64.2601 1.21432 65.1534 0.765547 66.2043 0.448769C67.2551 0.131991 68.3585 0 69.5145 0C70.0925 0 70.6967 0.0263982 71.2747 0.105593C71.879 0.184787 72.4307 0.29038 72.9824 0.395973C73.5078 0.527964 74.007 0.659955 74.4799 0.818344C74.9528 0.976733 75.3206 1.13512 75.5833 1.29351C75.9511 1.5047 76.2138 1.71588 76.3715 1.95347C76.5291 2.16465 76.6079 2.45503 76.6079 2.82461V4.06532C76.6079 4.61968 76.3977 4.91006 76.0037 4.91006C75.7935 4.91006 75.4519 4.80447 75.0053 4.59328C73.5078 3.90693 71.8264 3.56376 69.9611 3.56376C68.4636 3.56376 67.2814 3.80134 66.467 4.3029C65.6525 4.80447 65.2322 5.57002 65.2322 6.65234C65.2322 7.39149 65.4949 8.02505 66.0204 8.52661C66.5458 9.02818 67.5178 9.52975 68.9103 9.97851L72.6409 11.1664C74.5324 11.7736 75.8986 12.6183 76.713 13.7007C77.5274 14.783 77.9215 16.0237 77.9215 17.3964C77.9215 18.5315 77.6851 19.5611 77.2384 20.4586C76.7655 21.3561 76.135 22.1481 75.3206 22.7816C74.5062 23.4416 73.5341 23.9168 72.4044 24.2599C71.2222 24.6295 69.9874 24.8143 68.6475 24.8143Z" fill="white"/>
<path fill-rule="evenodd" clip-rule="evenodd" d="M73.4736 37.5136C64.8231 43.8982 52.2549 47.2875 41.4484 47.2875C26.3034 47.2875 12.6572 41.6912 2.35023 32.3902C1.53514 31.6545 2.27135 30.6561 3.2442 31.2342C14.3926 37.6976 28.144 41.6124 42.3686 41.6124C51.9657 41.6124 62.5093 39.6155 72.2115 35.5168C73.6576 34.86 74.8934 36.4627 73.4736 37.5136V37.5136Z" stroke="white" stroke-width="2"/>
<path fill-rule="evenodd" clip-rule="evenodd" d="M77.0756 33.4144C75.9713 31.9956 69.7661 32.7313 66.9527 33.0729C66.1113 33.178 65.9798 32.4423 66.7423 31.8905C71.6855 28.4224 79.8101 29.4208 80.7567 30.5768C81.7032 31.7592 80.4937 39.8778 75.8661 43.7664C75.1562 44.3707 74.4726 44.0554 74.7881 43.2672C75.8398 40.666 78.1799 34.8069 77.0756 33.4144V33.4144Z" stroke="white" stroke-width="2"/>
</svg>
