<svg width="27" height="32" viewBox="0 0 27 32" fill="none" xmlns="http://www.w3.org/2000/svg">
<path fill-rule="evenodd" clip-rule="evenodd" d="M13.4325 1.04507C11.546 1.38675 10.4635 3.38074 11.1997 5.15791C11.534 5.96502 12.2919 6.62536 13.1788 6.88233C13.3921 6.94411 13.4851 6.95216 13.9713 6.95066C14.4814 6.9491 14.5423 6.94279 14.7932 6.86567C15.8489 6.54117 16.589 5.77545 16.8855 4.70093C16.9287 4.54414 16.9397 4.39167 16.9381 3.96723C16.9363 3.47584 16.9293 3.40915 16.8538 3.16257C16.4519 1.85016 15.2786 0.985489 13.9195 1.00018C13.7797 1.00168 13.5605 1.02189 13.4325 1.04507ZM14.377 2.23752C15.0133 2.3876 15.5488 2.91684 15.7135 3.55832C15.9596 4.51757 15.3115 5.52338 14.3169 5.72563C14.0257 5.78488 13.8788 5.78527 13.6041 5.72756C13.2605 5.6554 12.9707 5.4942 12.7022 5.22585C12.3291 4.85312 12.1712 4.4747 12.1705 3.95192C12.1694 3.11566 12.771 2.39005 13.6041 2.22276C13.8053 2.18235 14.1728 2.18936 14.377 2.23752ZM22.6236 4.65874C22.5362 4.70227 22.4387 4.77462 22.4068 4.81947C22.2905 4.98318 20.0354 8.88437 19.997 8.98834C19.8522 9.38024 20.079 9.82347 20.4812 9.93433C20.5787 9.96122 21.2415 9.96829 23.0459 9.96167L25.479 9.95277L25.6153 9.87622C25.9088 9.71142 26.064 9.35559 25.975 9.05181C25.9364 8.92001 25.6264 8.37461 23.9557 5.49806C23.7552 5.15286 23.5545 4.8308 23.5098 4.78237C23.3106 4.5668 22.9179 4.51202 22.6236 4.65874ZM4.06547 5.73613C3.89977 5.81415 1.16064 8.53663 1.07063 8.7128C0.97946 8.8912 0.976277 9.1353 1.06268 9.32513C1.14877 9.51431 3.90589 12.2657 4.08185 12.3381C4.24699 12.4059 4.51418 12.3993 4.68257 12.3231C4.78592 12.2764 5.1666 11.9157 6.20856 10.8772C7.72846 9.36232 7.74226 9.34555 7.74281 9.01097C7.74336 8.69088 7.73442 8.68019 6.22343 7.19125C5.45781 6.43682 4.77509 5.78855 4.70626 5.75065C4.54855 5.66382 4.23423 5.65671 4.06547 5.73613ZM23.7122 7.47867C24.2625 8.4243 24.4349 8.74409 24.4015 8.75691C24.3769 8.76631 23.7176 8.77403 22.9362 8.77403C21.8525 8.77403 21.5156 8.76533 21.5156 8.73732C21.5156 8.70447 22.9621 6.19927 22.9736 6.21222C22.9762 6.21516 23.3086 6.78506 23.7122 7.47867ZM5.37125 8.03929L6.35032 9.01908L4.37664 10.9935L2.38376 9.00365L3.3725 8.03271C3.9163 7.4987 4.36819 7.06125 4.3767 7.06064C4.38521 7.06002 4.83275 7.50041 5.37125 8.03929ZM13.2398 9.40494C11.8635 9.65355 10.8071 10.6269 10.4685 11.9581C10.1491 13.2139 10.5196 14.5477 11.4272 15.4102C12.1257 16.0739 13.0275 16.4009 14.0325 16.3549C14.9696 16.312 15.7393 15.9971 16.3765 15.3958C17.465 14.3685 17.7487 12.6678 17.0646 11.2693C16.974 11.084 16.8272 10.8361 16.7382 10.7182C16.2165 10.0267 15.4348 9.55105 14.5732 9.40072C14.2498 9.34432 13.5633 9.34647 13.2398 9.40494ZM14.6985 10.6626C14.846 10.7146 15.0455 10.8034 15.1418 10.8601C15.3668 10.9925 15.7782 11.4041 15.9106 11.6292C16.0588 11.8812 16.1861 12.2762 16.2168 12.5794C16.365 14.0422 15.346 15.1729 13.8795 15.1729C12.7972 15.1729 11.9752 14.5731 11.6558 13.5502C11.5936 13.3509 11.5841 13.258 11.5841 12.846C11.5841 12.4341 11.5936 12.3411 11.6558 12.1418C11.7791 11.7469 11.9222 11.5105 12.215 11.2186C12.4338 11.0003 12.532 10.9281 12.7714 10.8092C13.2057 10.5935 13.4181 10.5494 13.9713 10.5597C14.3939 10.5676 14.4517 10.5758 14.6985 10.6626ZM7.78903 15.6308C7.12189 15.7758 6.65463 16.2521 6.50029 16.9443C6.4617 17.1175 6.45365 17.2664 6.46558 17.5873C6.5061 18.6784 6.96439 19.3621 8.29402 20.3152C9.09576 20.8899 9.44454 21.3947 9.596 22.1994C9.70581 22.7828 9.61284 23.8358 9.36472 24.8191C9.18069 25.5482 9.04299 25.899 8.52411 26.9603C7.93122 28.1729 7.88421 28.3119 7.88222 28.8585C7.88106 29.1786 7.89232 29.2754 7.95099 29.4506C8.13777 30.0082 8.55609 30.4604 9.16627 30.7645C9.52677 30.9441 9.70251 30.9847 10.115 30.9836C10.5397 30.9824 10.7362 30.9292 11.0944 30.7182C11.4961 30.4816 11.7898 30.1478 12.8111 28.7666C13.3279 28.0678 13.7728 27.4655 13.7998 27.4281C13.8268 27.3907 13.8582 27.3598 13.8695 27.3592C13.8809 27.3587 14.1626 27.7268 14.4955 28.1773C15.8434 30.001 16.0634 30.2768 16.3533 30.5075C17.1798 31.165 18.1204 31.1641 19.0137 30.5052C19.6824 30.0119 19.9968 29.2697 19.8613 28.5044C19.8031 28.1755 19.7075 27.9371 19.1743 26.7919C18.073 24.426 18.0449 24.3438 18.0456 23.4853C18.0459 23.0677 18.0592 22.9036 18.1125 22.6554C18.2394 22.0643 18.4259 21.5979 18.7078 21.1664C18.9404 20.8103 19.1212 20.6237 19.7368 20.1048C20.5709 19.4016 20.9933 18.9414 21.1743 18.5389C21.3232 18.2079 21.3735 17.9551 21.375 17.5304C21.3771 16.9547 21.2564 16.6223 20.9401 16.3331C20.6444 16.0628 20.3752 15.9466 19.8421 15.8592C19.1472 15.7453 18.6541 15.8738 17.5675 16.4518C15.9642 17.3046 14.3 17.6048 12.7012 17.3293C11.7101 17.1586 10.7274 16.7797 9.64066 16.1493C9.13524 15.8561 8.90662 15.7478 8.64537 15.6778C8.42669 15.6193 7.9599 15.5936 7.78903 15.6308ZM8.51606 16.9288C8.60436 16.9723 8.84874 17.1061 9.05915 17.2262C10.6299 18.1224 11.8646 18.5258 13.3758 18.6364C14.4028 18.7116 15.5364 18.5555 16.6152 18.1904C17.1786 17.9997 17.4825 17.868 18.1381 17.5303C18.7323 17.2242 19.201 17.0405 19.3876 17.0405C19.5576 17.0405 19.946 17.1252 20.0308 17.1808C20.0745 17.2094 20.1251 17.2607 20.1434 17.2949C20.1858 17.3742 20.1817 17.7672 20.1366 17.9347C20.0572 18.2298 19.7469 18.5658 18.9126 19.26C18.2196 19.8367 18.013 20.0513 17.7029 20.5165C16.8257 21.8324 16.5711 23.6074 17.0576 25.0161C17.1552 25.2988 17.3836 25.8093 18.0545 27.2438C18.3598 27.8965 18.6314 28.5161 18.6582 28.6206C18.7154 28.8439 18.6995 29.0466 18.6113 29.2196C18.5272 29.3843 18.2764 29.6025 18.0333 29.7223C17.6775 29.8974 17.3826 29.8454 17.0553 29.5496C16.9672 29.4699 16.5678 28.9639 16.1678 28.4249C15.7677 27.886 15.0868 26.9694 14.6548 26.3879L13.8691 25.3308L13.6576 25.6174C13.5413 25.775 12.9784 26.5377 12.4067 27.3123C11.835 28.0869 11.2619 28.8661 11.1331 29.0437C10.7356 29.5922 10.4152 29.8372 10.0945 29.8379C9.91626 29.8383 9.52445 29.6462 9.33824 29.4672C9.14274 29.2793 9.07574 29.127 9.07706 28.8738C9.07862 28.5812 9.13071 28.4422 9.56472 27.5726C10.1262 26.4476 10.2747 26.0709 10.5124 25.1692C10.7395 24.3079 10.8344 23.6438 10.8365 22.902C10.8397 21.7616 10.5469 20.908 9.89526 20.1572C9.65911 19.8852 9.40533 19.6689 8.90612 19.3143C8.41365 18.9644 7.95105 18.5142 7.82814 18.2652C7.70728 18.0202 7.65121 17.7672 7.65197 17.4703C7.65277 17.1577 7.7186 16.9824 7.87142 16.8861C8.00889 16.7994 8.29144 16.8182 8.51606 16.9288Z" fill="white" stroke="white" stroke-width="0.6"/>
</svg>
