<svg width="20" height="29" viewBox="0 0 20 29" fill="none" xmlns="http://www.w3.org/2000/svg">
<path fill-rule="evenodd" clip-rule="evenodd" d="M5.11303 11.5439C5.11303 10.7195 5.77984 10.0512 6.60239 10.0512H7.97664C8.7992 10.0512 9.46601 10.7195 9.46601 11.5439V12.9288H10.5479V11.5439C10.5479 10.7195 11.2147 10.0512 12.0372 10.0512H13.4115C14.234 10.0512 14.9008 10.7195 14.9008 11.5439V12.7156C14.9008 13.54 14.234 14.2082 13.4115 14.2082H11.8245V22.0986C11.8245 22.4519 11.5387 22.7383 11.1862 22.7383C10.8336 22.7383 10.5479 22.4519 10.5479 22.0986V14.2082H9.46601V22.0986C9.46601 22.4519 9.18023 22.7383 8.82771 22.7383C8.47519 22.7383 8.18941 22.4519 8.18941 22.0986V14.2082H6.60239C5.77984 14.2082 5.11303 13.54 5.11303 12.7156V11.5439ZM8.18941 11.5439V12.9288H6.60239C6.48489 12.9288 6.38963 12.8334 6.38963 12.7156V11.5439C6.38963 11.4261 6.48489 11.3306 6.60239 11.3306H7.97664C8.09415 11.3306 8.18941 11.4261 8.18941 11.5439ZM11.8245 12.9288V11.5439C11.8245 11.4261 11.9197 11.3306 12.0372 11.3306H13.4115C13.529 11.3306 13.6242 11.4261 13.6242 11.5439V12.7156C13.6242 12.8334 13.529 12.9288 13.4115 12.9288H11.8245Z" fill="white"/>
<path fill-rule="evenodd" clip-rule="evenodd" d="M2.92934 2.97442C4.8046 1.06993 7.34799 0 10 0C12.6489 -4.44652e-06 15.1895 1.06739 17.0642 2.96789C18.939 4.86839 19.9946 7.44669 19.9994 10.1368C20.0153 11.6128 19.7046 13.0735 19.0904 14.4113C18.7875 14.9934 18.4474 15.5547 18.0723 16.0915C17.3441 17.0829 16.7338 18.1582 16.2542 19.2951C15.9242 20.4984 15.6861 23.9129 15.6599 25.1618H15.6527C15.6575 25.3392 15.6589 25.4946 15.6589 25.5654C15.6589 25.7949 15.5868 26.015 15.4587 26.1773C15.3305 26.3396 15.2426 26.4437 15.0613 26.4437H4.93901C4.75773 26.4437 4.58388 26.3525 4.45569 26.1902C4.32751 26.0279 4.26439 25.8379 4.2402 25.5795C4.2251 25.4181 4.22194 25.2694 4.22437 25.1433C4.19824 23.8944 4.07583 20.48 3.74581 19.2766C3.2662 18.1397 2.65594 17.0644 1.92774 16.0731C1.55401 15.548 1.21394 14.9991 0.909616 14.4298C0.295385 13.092 -0.0152678 11.6313 0.000577037 10.1553C0.000577037 7.46195 1.05408 4.87891 2.92934 2.97442ZM6.03193 24.713H13.855C13.9189 23.0509 14.1794 19.9262 14.5452 18.6396C15.0683 17.361 15.743 16.1519 16.5542 15.0391C16.8841 14.5835 17.1876 14.1088 17.4632 13.6173C17.9794 12.5321 18.2467 11.3421 18.245 10.1368C18.245 7.92462 17.3797 5.803 15.8394 4.23872C14.2991 2.67444 12.2101 1.79564 10.0318 1.79564C7.85355 1.79564 5.7645 2.67444 4.22423 4.23872C2.68397 5.803 1.81865 7.92462 1.81865 10.1368C1.79698 11.3302 2.03929 12.5133 2.5277 13.5989C2.8033 14.0903 3.10683 14.565 3.43674 15.0206C4.25239 16.1388 4.93012 17.3541 5.45481 18.6396C5.82036 19.9251 5.98479 23.061 6.03193 24.713Z" fill="white"/>
<path d="M6.2766 27.7206C6.07909 27.7206 5.88968 27.788 5.75003 27.908C5.61037 28.0279 5.53192 28.1906 5.53192 28.3603C5.53192 28.53 5.61037 28.6927 5.75003 28.8126C5.88968 28.9326 6.07909 29 6.2766 29H13.7234C13.9209 29 14.1103 28.9326 14.25 28.8126C14.3896 28.6927 14.4681 28.53 14.4681 28.3603C14.4681 28.1906 14.3896 28.0279 14.25 27.908C14.1103 27.788 13.9209 27.7206 13.7234 27.7206H6.2766Z" fill="white"/>
</svg>
