<svg width="27" height="28" viewBox="0 0 27 28" fill="none" xmlns="http://www.w3.org/2000/svg">
<path fill-rule="evenodd" clip-rule="evenodd" d="M15.2441 0.0276515C14.9165 0.0633753 14.7027 0.118661 14.3396 0.261487C13.6571 0.529994 13.1055 0.905007 12.6214 1.42965C12.022 2.07916 11.6629 2.78743 11.4795 3.68186C11.3453 4.33629 11.384 5.30336 11.5709 5.96644C11.5977 6.06152 11.6196 6.15039 11.6196 6.16395C11.6196 6.17749 10.8023 6.19631 9.80343 6.20574C8.24944 6.22047 7.95834 6.23133 7.787 6.28112C7.32206 6.41616 6.85273 6.73343 6.55072 7.11689C6.3389 7.38582 6.09565 7.89493 6.04395 8.17746C6.01999 8.30837 5.9982 9.08697 5.9862 10.2389C5.96877 11.9187 5.96198 12.088 5.91278 12.0681C5.88294 12.0561 5.69889 12.0045 5.50376 11.9536C5.18489 11.8702 5.08565 11.8607 4.52388 11.8597C3.83103 11.8585 3.52412 11.906 3.00336 12.0952C1.47471 12.6507 0.278738 14.1151 0.0472482 15.7149C-0.0470574 16.3667 0.00376148 17.2754 0.164463 17.8102C0.456638 18.7826 1.04474 19.6618 1.78246 20.2289C2.67841 20.9177 3.77686 21.2435 4.83953 21.1356C5.19101 21.0999 5.71261 21.0032 5.91738 20.9358C5.97363 20.9173 5.97688 21.0291 5.97799 23.0308C5.97938 25.4462 6.00148 25.9369 6.12592 26.3132C6.3516 26.9956 6.73548 27.4283 7.43975 27.7941L7.77737 27.9695L10.6555 27.9598L13.5337 27.95L13.6721 27.855C14.0245 27.613 14.1804 27.117 14.0195 26.7493C13.9837 26.6674 13.8545 26.4517 13.7324 26.27C13.3184 25.6538 13.1903 25.2088 13.217 24.4793C13.2348 23.9921 13.2952 23.7259 13.4754 23.3398C13.9485 22.3266 14.8953 21.7505 15.9935 21.8076C17.2182 21.8713 18.164 22.6665 18.4836 23.9013C18.5896 24.3106 18.59 24.8896 18.4847 25.2783C18.3965 25.6039 18.2222 25.9759 18.0181 26.2745C17.7595 26.6526 17.6886 26.8311 17.6866 27.1087C17.685 27.3165 17.6993 27.3797 17.7798 27.5218C17.832 27.614 17.9606 27.7594 18.0655 27.8448L18.2561 28L21.7548 27.9782L25.2535 27.9564L25.4706 27.8555C25.7542 27.7238 26.0479 27.5033 26.3084 27.2267C26.5825 26.9355 26.6676 26.8143 26.8277 26.4868L26.9603 26.2155L26.9685 22.7005C26.9731 20.7673 26.9642 19.1091 26.9489 19.0156C26.9094 18.7751 26.6485 18.497 26.3878 18.4176C26.0309 18.3089 25.8699 18.3571 25.3146 18.7384C24.6677 19.1826 24.3163 19.2901 23.5979 19.2637C23.2266 19.25 23.1101 19.231 22.845 19.141C22.0796 18.8811 21.5143 18.3195 21.2053 17.5117C21.097 17.2289 21.0128 16.7575 21.0134 16.4377C21.0141 16.0779 21.1246 15.5952 21.285 15.2514C21.4035 14.9973 21.4799 14.8924 21.752 14.6103C22.1238 14.2249 22.3718 14.045 22.7309 13.9003C23.6285 13.5387 24.4564 13.6571 25.3553 14.2756C25.8037 14.5841 26.0024 14.6659 26.2207 14.6319C26.4349 14.5986 26.7124 14.4169 26.869 14.2074L27 14.0321L26.9789 11.023L26.9578 8.01392L26.8192 7.72757C26.4605 6.98704 26.0473 6.58472 25.4073 6.3527C25.0359 6.21808 24.6851 6.19824 22.5842 6.19319C21.5063 6.19063 20.5256 6.1785 20.4048 6.1663C20.1499 6.14053 20.1516 6.14534 20.2504 5.72342C20.3407 5.33764 20.362 4.20103 20.2877 3.7395C20.0902 2.51444 19.2448 1.29141 18.1174 0.599794C17.7681 0.385556 17.3866 0.213984 17.0762 0.131598C16.6234 0.0114548 15.8138 -0.0344709 15.2441 0.0276515ZM16.5054 1.92063C17.0858 2.05911 17.5002 2.33105 17.9608 2.87578C18.1809 3.13612 18.3479 3.46422 18.465 3.86665C18.5425 4.13313 18.5568 4.24745 18.5585 4.6191C18.5617 5.30732 18.4443 5.67623 18.0074 6.35193C17.6852 6.8501 17.6558 6.9273 17.6839 7.19963C17.7117 7.46915 17.8601 7.73854 18.064 7.88995C18.2559 8.03232 18.4598 8.04855 20.1345 8.05462C20.8685 8.05728 22.2294 8.07152 23.1586 8.08624C25.0373 8.11601 25.0059 8.11173 25.1162 8.35293C25.2027 8.5421 25.2353 9.14569 25.2333 10.5263C25.2315 11.8312 25.2155 12.077 25.1338 12.0565C25.1067 12.0497 24.9401 12.0038 24.7636 11.9545C24.4784 11.8749 24.3747 11.8646 23.8344 11.8618C23.3296 11.8592 23.1627 11.872 22.8527 11.9372C21.9272 12.1319 21.1943 12.5317 20.5613 13.1872C19.6885 14.091 19.2222 15.232 19.2222 16.4637C19.2222 17.7127 19.6532 18.8176 20.4967 19.7311C20.9949 20.2706 21.5822 20.6635 22.2632 20.9128C22.7704 21.0985 23.0667 21.1478 23.6654 21.146C24.1815 21.1445 24.5337 21.0943 25.1606 20.9329L25.2366 20.9134L25.2354 22.8716C25.2347 23.9487 25.2209 25.0311 25.2047 25.277C25.1631 25.9072 25.0763 26.0402 24.6622 26.108C24.529 26.1299 23.5938 26.1441 22.2846 26.1443L20.1266 26.1446L20.1487 26.0657C20.3221 25.4477 20.3157 25.506 20.3181 24.5319L20.3203 23.6029L20.2085 23.2698C19.6879 21.7195 18.7105 20.6766 17.3043 20.1712C16.769 19.9789 16.4451 19.9242 15.8601 19.9276C15.1269 19.9318 14.5318 20.0774 13.8666 20.4153C13.4663 20.6187 13.1703 20.852 12.7151 21.3227C12.0158 22.0459 11.6701 22.691 11.4816 23.6249C11.4219 23.9203 11.4081 24.1069 11.4081 24.6196C11.408 25.2044 11.4156 25.2827 11.5112 25.6886C11.568 25.9295 11.6067 26.1346 11.5972 26.1443C11.5686 26.1739 8.75418 26.1472 8.41507 26.1142C8.18787 26.0921 8.07448 26.0641 8.01014 26.0143C7.82454 25.8705 7.82653 25.9051 7.8018 22.4109C7.77571 18.7225 7.79484 18.9524 7.48668 18.6254C7.34142 18.4714 7.28087 18.4329 7.13243 18.4007C6.76102 18.3199 6.62421 18.3596 6.15153 18.6847C5.43814 19.1755 5.04991 19.2971 4.30452 19.2629C3.9991 19.2489 3.80805 19.2221 3.6784 19.175C2.89676 18.8912 2.26213 18.2771 1.96705 17.5191C1.53624 16.4125 1.89261 15.0659 2.81776 14.3043C3.58112 13.676 4.60037 13.5293 5.50143 13.9181C5.63953 13.9777 5.93204 14.151 6.15147 14.3033C6.67327 14.6654 6.77876 14.6967 7.1225 14.5908C7.25161 14.551 7.34997 14.4859 7.48023 14.3541C7.79406 14.0366 7.77858 14.1975 7.79298 11.1048L7.80545 8.42287L7.96267 8.25634L8.11989 8.08982L9.97954 8.08754C11.0024 8.08628 12.1966 8.07316 12.6333 8.05841C13.5212 8.02836 13.5686 8.01616 13.8294 7.75067C13.9949 7.58215 14.0464 7.45545 14.0714 7.15423C14.0947 6.87387 14.0813 6.84218 13.6761 6.22299C13.2881 5.62999 13.266 5.55153 13.249 4.70453C13.2352 4.02199 13.2373 3.99356 13.3209 3.74416C13.4503 3.3581 13.6961 2.95803 14.0017 2.63588C14.3068 2.31433 14.5739 2.1436 15.0159 1.98766C15.5332 1.80508 15.9438 1.78661 16.5054 1.92063Z" fill="white"/>
</svg>
