<svg width="51" height="28" viewBox="0 0 51 28" fill="none" xmlns="http://www.w3.org/2000/svg">
<path fill-rule="evenodd" clip-rule="evenodd" d="M1.61287 0.0445231C0.860164 0.189489 0.178052 0.869249 0.042136 1.60981C-0.0144584 1.91842 -0.0138464 18.2782 0.0427889 18.9001C0.463106 23.5132 3.81042 27.1467 8.30464 27.8681C8.9393 27.9699 10.2704 27.9914 10.9515 27.9109C13.2013 27.6447 15.2725 26.6267 16.8748 24.9997C17.4838 24.3812 18.1069 23.5569 18.4919 22.8601C18.5413 22.7707 18.5921 22.698 18.6048 22.6987C18.6175 22.6993 18.7156 22.8567 18.8228 23.0484C19.1042 23.5517 19.6776 24.315 20.1624 24.8314C21.6467 26.4126 23.5789 27.4701 25.6665 27.8439C26.3875 27.9729 27.6846 28.0036 28.4412 27.9096C30.759 27.6215 32.9095 26.541 34.4694 24.8811C35.9688 23.2855 36.9012 21.265 37.1307 19.114C37.1869 18.5877 37.1871 17.1761 37.1311 16.7212C36.9572 15.3095 36.4321 13.8806 35.655 12.7048C35.1211 11.8971 34.2585 10.9681 33.5004 10.3847C31.5069 8.85056 28.9652 8.11004 26.4826 8.34013C24.5618 8.51813 22.6449 9.31356 21.1149 10.5675C20.3193 11.2194 19.4541 12.2278 18.9605 13.0784C18.8449 13.2777 18.7396 13.441 18.7264 13.4416C18.7132 13.4421 18.6053 13.2756 18.4866 13.0716C17.538 11.4416 15.9435 10.0182 14.1599 9.20893C11.151 7.84381 7.65672 8.03144 4.78305 9.71239C4.54305 9.85279 4.26995 10.0211 4.17614 10.0865C4.08233 10.1519 3.9951 10.2054 3.98233 10.2054C3.96951 10.2054 3.9587 8.35188 3.95825 6.08637C3.95776 3.57521 3.9416 1.85567 3.91679 1.68136C3.78316 0.740967 2.90291 -0.024785 1.98475 0.000614137C1.89241 0.00314575 1.72508 0.0229422 1.61287 0.0445231ZM36.6594 8.10652C35.8656 8.28987 35.3492 8.88987 35.2122 9.78759C35.1548 10.1641 35.215 10.5881 35.3758 10.9392C35.4538 11.1096 36.3577 12.3396 38.0685 14.6033L40.6438 18.0108L38.0818 21.4021C36.6727 23.2673 35.4878 24.8441 35.4487 24.9062C35.2285 25.2555 35.1136 25.8201 35.1776 26.2383C35.389 27.6218 37.2246 28.4013 38.3482 27.5847C38.4893 27.4821 39.1311 26.6675 40.7776 24.5008C42.0083 22.8812 43.0298 21.5507 43.0476 21.544C43.0654 21.5373 44.1022 22.8685 45.3516 24.5022C46.9536 26.597 47.6797 27.5149 47.8148 27.6161C48.4201 28.0692 49.2848 28.1261 50.0134 27.7608C50.4076 27.5632 50.5851 27.3756 50.7919 26.9383C50.9155 26.677 50.9383 26.5811 50.9553 26.251C50.9769 25.8311 50.9184 25.5452 50.7362 25.1794C50.6818 25.0701 49.5082 23.448 48.1283 21.5745C46.7484 19.7012 45.6195 18.1556 45.6197 18.1399C45.6198 18.1243 46.7501 16.6081 48.1314 14.7706C49.5909 12.8293 50.693 11.3254 50.7623 11.1807C50.952 10.785 51.0185 10.4507 50.9957 10.0071C50.9784 9.67056 50.9573 9.58365 50.8281 9.31783C50.6455 8.94191 50.4036 8.70705 50.0121 8.52523C49.594 8.33113 49.3452 8.28219 48.8978 8.30597C48.5621 8.32386 48.4773 8.34499 48.2195 8.47493C48.0574 8.55665 47.8489 8.70394 47.7561 8.8023C47.6633 8.90066 46.6181 10.1951 45.4335 11.6788C44.2489 13.1624 43.2288 14.4364 43.1667 14.5098L43.0537 14.6434L40.9237 11.7707C39.7521 10.1908 38.7274 8.8257 38.6464 8.73718C38.1738 8.2204 37.3282 7.952 36.6594 8.10652ZM10.7941 12.2614C11.5026 12.3723 12.2279 12.6375 12.8588 13.0162C14.2925 13.8767 15.3009 15.2774 15.6756 16.9287C15.7897 17.4316 15.8202 18.4757 15.7369 19.0246C15.5394 20.3257 15.004 21.393 14.0819 22.3241C13.2094 23.2051 12.2625 23.7196 11.0181 23.9888C10.4416 24.1135 9.2785 24.1231 8.69227 24.0081C7.45658 23.7657 6.38459 23.1945 5.52009 22.3177C4.65554 21.441 4.09054 20.3241 3.89676 19.1088C3.81752 18.6121 3.81972 17.6685 3.90121 17.1747C4.25432 15.0352 5.82705 13.1937 7.9002 12.4925C8.83961 12.1747 9.76732 12.1006 10.7941 12.2614ZM27.8638 12.1984C28.739 12.2772 29.3897 12.4672 30.1572 12.8679C31.7306 13.6893 32.8428 15.1424 33.2464 16.904C33.3828 17.4994 33.3993 18.4765 33.2829 19.0646C32.7855 21.5775 30.9738 23.4636 28.5508 23.991C27.9834 24.1145 26.8963 24.1238 26.299 24.0102C24.073 23.5869 22.3381 22.0634 21.6728 19.9475C21.3531 18.931 21.3159 17.8416 21.5646 16.781C21.8736 15.463 22.6537 14.2649 23.7494 13.4254C24.7945 12.6247 25.8202 12.2617 27.3191 12.1622C27.364 12.1592 27.6091 12.1755 27.8638 12.1984Z" fill="white"/>
</svg>
