<svg width="70" height="32" viewBox="0 0 70 32" fill="none" xmlns="http://www.w3.org/2000/svg">
<path fill-rule="evenodd" clip-rule="evenodd" d="M18.0764 0.131976C18.0745 0.275299 17.8011 0.514886 17.469 0.664419L16.8652 0.936494V9.62352C16.8652 17.7358 16.8944 18.3363 17.3069 18.7056C17.8322 19.176 18.5488 19.2142 19.1169 18.8024C19.4941 18.5289 19.5233 17.764 19.4649 9.6916C19.4031 1.16055 19.3857 0.870804 18.9181 0.614495C18.6524 0.468784 18.3551 0.242095 18.2575 0.110716C18.1428 -0.0438332 18.0788 -0.0364282 18.0764 0.131976ZM50.9681 0.755668C50.7531 0.968263 50.6782 3.3123 50.6782 9.82441C50.6782 18.2625 50.6966 18.6161 51.1453 18.8537C51.8388 19.2206 52.3126 19.1566 52.8519 18.6232C53.3169 18.1634 53.335 17.8271 53.335 9.70258C53.335 1.82653 53.3053 1.23317 52.8932 0.864355C52.3766 0.4019 51.3825 0.345765 50.9681 0.755668ZM9.61949 6.14747C8.51066 6.30942 8.41188 6.71526 8.41188 11.1074C8.41188 14.7738 8.45825 15.2465 8.85363 15.6003C9.36082 16.0542 9.93202 16.1027 10.6015 15.7484C11.0372 15.5177 11.0686 15.2071 11.0686 11.1274C11.0686 7.25344 11.0203 6.71407 10.646 6.40664C10.4136 6.21554 9.95158 6.09921 9.61949 6.14747ZM26.0085 6.29342C25.4462 6.57051 25.4385 6.6264 25.373 10.8418C25.3155 14.5612 25.359 15.1663 25.7123 15.5525C26.1659 16.0482 26.8089 16.1184 27.5081 15.7484C27.9438 15.5177 27.9752 15.2069 27.9752 11.1196C27.9752 7.39366 27.9172 6.69066 27.5885 6.42073C27.0654 5.99148 26.6838 5.96067 26.0085 6.29342ZM43.0167 6.22414C42.0682 6.57098 41.947 7.20232 42.0276 11.3713C42.0972 14.9537 42.1474 15.3497 42.573 15.6572C43.2589 16.1523 44.0765 16.0709 44.5057 15.4646C44.8073 15.039 44.8817 14.191 44.8817 11.1807C44.8817 9.11639 44.7815 7.16625 44.6588 6.84736C44.4047 6.1864 43.7741 5.94705 43.0167 6.22414ZM59.4725 6.30727C59.0472 6.6147 59.0107 6.98375 59.0107 10.9793C59.0107 14.9979 59.0453 15.3426 59.4795 15.6567C60.165 16.1523 60.9828 16.0711 61.4122 15.4646C61.9056 14.7681 61.9689 7.23433 61.4863 6.63452C61.0434 6.08393 60.0128 5.91648 59.4725 6.30727ZM0.410982 10.6576C-0.0464609 11.2027 -0.156353 14.4991 0.256891 15.279C0.699842 16.1148 1.94151 16.2264 2.47141 15.4782C3.05541 14.6534 3.01507 11.195 2.41513 10.6581C1.84852 10.1507 0.836544 10.1505 0.410982 10.6576ZM34.0615 10.5494C33.8758 10.7331 33.7717 11.6728 33.7717 13.1686C33.7717 15.2303 33.826 15.5298 34.2388 15.7484C34.909 16.1031 35.6109 16.0534 36.049 15.6204C36.3369 15.3356 36.4284 14.7342 36.4284 13.1292C36.4284 11.5242 36.3369 10.9227 36.049 10.638C35.5998 10.1939 34.4719 10.1435 34.0615 10.5494ZM67.743 10.6996C67.138 11.3608 67.1696 15.0495 67.785 15.6003C68.2922 16.0542 68.8634 16.1027 69.5329 15.7484C69.9457 15.5298 70 15.2303 70 13.1686C70 11.6728 69.8959 10.7331 69.7102 10.5494C69.2771 10.1211 68.1968 10.2035 67.743 10.6996ZM9.58858 20.597C7.48975 21.6715 6.64201 23.0103 6.51762 25.4475C6.46811 26.4178 6.55796 27.5692 6.72147 28.0591C7.61438 30.7352 11.408 32.5752 14.3896 31.7783L15.416 31.5039V30.0857V28.6677L14.7712 28.9102C12.797 29.6524 10.651 28.9561 9.84628 27.3119C8.62225 24.8114 10.5931 22.2051 13.4768 22.5104C14.0785 22.5742 14.7608 22.7043 14.9934 22.8001C15.3684 22.9544 15.416 22.813 15.416 21.5451C15.416 20.1358 15.4056 20.114 14.6613 19.9669C12.7796 19.5947 11.151 19.797 9.58858 20.597ZM29.3035 20.1549C27.98 20.7365 27.4127 21.5867 27.2975 23.1606C27.1979 24.5205 27.2306 24.6229 28.0068 25.3883C28.4543 25.8297 29.4714 26.431 30.2667 26.7245C32.0337 27.3769 32.3226 27.6012 32.3226 28.3207C32.3226 29.3958 30.052 29.9615 28.0339 29.3891L27.2506 29.167V30.4435V31.7203L29.0328 31.8856C31.0157 32.0693 32.0038 31.9228 33.3585 31.2447C34.7438 30.551 35.2672 29.5561 35.1546 27.8305C35.073 26.575 34.9728 26.3366 34.3004 25.8001C33.8813 25.4657 32.8679 24.9234 32.048 24.595C30.3793 23.9264 29.8796 23.3987 30.2959 22.7457C30.7034 22.1067 31.9576 21.848 33.3145 22.1229L34.4963 22.3625V21.2393C34.4963 20.1725 34.4583 20.1088 33.7415 19.9669C32.4742 19.7163 30.0696 19.8181 29.3035 20.1549ZM42.082 20.4109C39.1473 21.8573 37.993 24.6294 38.9705 27.8845C39.7223 30.3891 41.967 31.8744 45.0025 31.8763C47.4428 31.8777 47.5384 31.8106 47.5384 30.1024V28.6677L46.9189 28.9007C45.1389 29.57 42.7739 28.8672 42.0508 27.4543C41.5905 26.5542 41.6728 24.8814 42.2209 24.0045C43.0795 22.6303 45.3288 22.078 47.1158 22.8027C47.4906 22.9547 47.5384 22.8121 47.5384 21.5451C47.5384 20.1358 47.5281 20.114 46.7837 19.9669C45.1097 19.6358 43.3099 19.8059 42.082 20.4109ZM55.1684 20.179C51.8979 21.4142 50.2954 25.024 51.6429 28.1215C52.5991 30.32 55.1104 32 57.4409 32C58.5163 32 60.4512 31.3242 61.4745 30.5909C64.8853 28.1472 64.3134 22.4435 60.4599 20.4745C59.2049 19.8333 56.4854 19.6814 55.1684 20.179ZM20.0049 25.9088V31.7611H21.3333H22.6617V25.9088V20.0564H21.3333H20.0049V25.9088ZM59.4027 23.1826C60.7813 24.1536 61.1953 26.0172 60.3403 27.4039C59.0508 29.4959 56.3163 29.692 54.8119 27.8004C54.0098 26.7921 53.9274 25.732 54.552 24.4562C55.4944 22.5312 57.6672 21.9605 59.4027 23.1826Z" fill="white"/>
</svg>
