<svg width="75" height="23" viewBox="0 0 75 23" fill="none" xmlns="http://www.w3.org/2000/svg">
<path fill-rule="evenodd" clip-rule="evenodd" d="M25.7576 3.81972C22.6052 5.93071 20.0056 7.65792 19.9806 7.65792C19.9556 7.65792 19.9016 7.54336 19.8605 7.40328C19.7446 7.00879 19.2395 5.99865 18.9092 5.50092C17.5217 3.41067 15.1496 1.96632 12.1186 1.36607C10.5187 1.0493 10.5315 1.04989 5.09868 1.02407L0 0.999864V11.4327V21.8654L5.12859 21.8406C10.3989 21.815 10.5718 21.8077 11.9259 21.5533C15.8003 20.8253 18.6423 18.7056 19.8318 15.6568C19.9217 15.4261 20.0019 15.2288 20.0097 15.2183C20.0176 15.2078 22.6519 16.9544 25.8637 19.0996L31.7032 23L37.834 18.891C41.206 16.6312 44.004 14.7671 44.0519 14.7487C44.1273 14.7197 44.1388 15.1875 44.1388 18.2867V21.8582H51.5251H58.9115V18.6826V15.507H55.2333H51.555V8.25709V1.00717H47.8469H44.1388V4.68132V8.35547L42.4791 9.4879C41.5662 10.1108 39.4903 11.5311 37.866 12.6442C36.2416 13.7574 34.891 14.6682 34.8648 14.6682C34.7625 14.6682 32.7706 13.211 32.8163 13.1696C32.8757 13.1158 33.6793 12.5711 38.427 9.36687C40.4665 7.99046 42.1424 6.8581 42.1512 6.85061C42.1779 6.82784 38.0728 4.16646 38.0081 4.16454C37.975 4.16358 35.8353 5.57606 33.2533 7.3034C30.6712 9.03073 28.5388 10.4529 28.5144 10.4638C28.4535 10.491 26.4979 9.25985 26.527 9.21264C26.54 9.19173 28.6631 7.76158 31.2452 6.0346C33.8272 4.30756 35.9406 2.88107 35.9417 2.86459C35.9428 2.84811 35.049 2.20149 33.9557 1.42767C32.2793 0.241259 31.9302 0.0176504 31.7285 0.00111339C31.5002 -0.0175806 31.2267 0.157256 25.7576 3.81972ZM60.4665 11.4327V21.8582H67.7333H75V18.6826V15.507H71.4414H67.8828V8.25709V1.00717H64.1746H60.4665V11.4327ZM9.12081 7.48009C11.2067 7.71598 12.3954 8.72833 12.7719 10.5896C12.9183 11.3134 12.8703 12.4376 12.6663 13.0603C12.2828 14.2316 11.373 15.0597 10.0371 15.4536C9.68319 15.5579 9.39019 15.5881 8.50778 15.6113L7.41627 15.64V11.5291V7.41826L7.9994 7.41874C8.32016 7.41903 8.82476 7.44666 9.12081 7.48009Z" fill="white"/>
</svg>
