<svg width="60" height="67" viewBox="0 0 60 67" fill="none" xmlns="http://www.w3.org/2000/svg">
<path fill-rule="evenodd" clip-rule="evenodd" d="M28.1627 0.0792877C25.4109 0.469764 22.6564 1.93035 20.6556 4.05991C19.4667 5.32546 18.9752 6.04388 18.3079 7.49167C17.4921 9.26194 17.1469 10.8534 17.0676 13.208C16.9806 15.7942 16.7596 16.915 16.0422 18.4073C15.1465 20.2703 14.4821 20.9817 11.4212 23.3548C6.72806 26.9934 2.90347 33.0264 0.570801 40.4707C0.00392291 42.2801 -0.118656 43.1743 0.105788 43.8656C0.485062 45.0343 2.01513 45.81 3.09251 45.3796C3.36612 45.2703 4.60293 44.4211 5.84104 43.4924C7.07915 42.5638 8.11694 41.8039 8.14722 41.8039C8.17764 41.8039 8.23231 42.8388 8.26875 44.1035C8.31451 45.6905 8.42279 46.8479 8.61813 47.8383C9.07672 50.1637 10.1064 52.9293 11.1866 54.7379L11.6581 55.5268L10.7598 56.4308C9.04919 58.1528 7.73058 60.5754 7.61141 62.2154C7.52961 63.3414 7.71184 63.8911 8.44023 64.7149C9.69381 66.1327 12.2691 66.9961 15.2493 66.9974C18.406 66.999 20.6875 66.2947 22.0538 64.8969L22.5625 64.3766L23.6948 64.7376C25.8197 65.415 27.1926 65.6005 30.0637 65.5985C32.8603 65.5967 34.1408 65.4143 36.4274 64.6923L37.4162 64.38L37.636 64.6764C38.2653 65.5248 40.3721 66.5224 42.2473 66.8601C43.5045 67.0865 46.1604 67.0302 47.5014 66.7488C49.6861 66.2902 51.5037 65.163 52.1368 63.874C52.3928 63.3527 52.4354 63.0969 52.3893 62.3573C52.2816 60.633 50.9835 58.204 49.2409 56.4668L48.3252 55.5539L48.9724 54.378C50.777 51.0999 51.5796 48.1163 51.7182 44.1702C51.7639 42.8687 51.8245 41.8039 51.8528 41.8039C51.881 41.8039 52.9126 42.5604 54.1454 43.485C56.9881 45.6175 57.2642 45.7402 58.3373 45.3506C59.495 44.93 60.1218 43.9453 59.9802 42.7695C59.7832 41.1325 58.3985 37.284 56.875 34.1383C54.4011 29.0304 51.1914 25.0676 47.4165 22.461C46.417 21.7708 45.069 20.4175 44.5466 19.5798C44.4292 19.3916 44.3463 19.2641 44.2881 19.1901C44.2564 19.1497 44.2412 19.0943 44.2226 19.0845C44.1775 19.0607 44.1569 19.1537 44.1569 19.2847C44.1569 19.8139 43.4833 20.6628 43.1557 20.5466C43.064 20.5139 43.0328 20.5951 43.0747 20.7579C43.0825 20.7883 43.098 20.825 43.1205 20.8674C43.1798 20.9789 43.2876 21.1294 43.4309 21.3054C44.0534 22.0702 45.3456 23.3187 46.238 23.9661C47.5985 24.953 48.423 25.6502 49.4517 26.6837C52.6376 29.8841 55.3359 34.4185 57.101 39.5375C57.9547 42.0134 58.2298 43.121 58.0468 43.3454C57.7475 43.7121 57.3224 43.5218 55.6938 42.2914C50.8116 38.6033 50.7935 38.5909 50.3982 38.6317C50.1689 38.6553 49.914 38.8116 49.759 39.0239C49.5146 39.3581 49.5103 39.4385 49.6767 40.557C49.9201 42.1935 49.8864 45.2954 49.6074 46.9365C49.217 49.232 47.9826 52.5466 46.9359 54.1096L46.6855 54.4836L46.6079 52.0432C46.5143 49.0979 46.2823 47.3124 45.6792 44.894C44.4717 40.0528 42.3572 36.0728 39.4443 33.1585C37.9011 31.6147 35.7041 30.1937 33.963 29.6134L33.5379 29.4716L33.2737 29.3835L32.8713 29.7279C32.5272 30.0224 32.3365 30.1016 31.9646 30.1044C31.9286 30.1046 31.6896 30.0671 31.4337 30.0208L30.9683 29.9368L31.0212 30.3979C31.0721 30.8415 31.3092 30.3495 31.8144 31.0074C35.1258 31.6719 37.7961 33.5643 40.107 36.8846C42.8988 40.8959 44.4754 46.0934 44.7604 52.2248L44.8494 54.1414L43.8942 54.3079C41.1464 54.787 38.2135 57.7101 37.0602 61.1189C36.9256 61.517 36.8153 62.0091 36.8153 62.2124C36.8153 62.605 36.6444 62.683 34.6522 63.2005C31.3501 64.0581 27.6504 63.9392 24.0779 62.8604L23.205 62.5968L23.1176 61.9509C22.9017 60.3542 21.5075 57.9605 19.8954 56.4183C18.6506 55.2275 17.4062 54.5354 16.1011 54.3078L15.1451 54.141L15.226 52.0718C15.3411 49.1272 15.6156 47.2428 16.3123 44.6172C16.495 43.9281 16.61 43.2239 16.5677 43.0524C16.4 42.3731 15.4793 42.1738 15.0124 42.7157C14.7639 43.0042 14.2153 44.9651 13.8823 46.7557C13.5302 48.6495 13.3486 50.7004 13.3485 52.7852C13.3484 54.8565 13.3063 54.8532 12.2589 52.6994C11.4125 50.9587 10.8455 49.2889 10.4489 47.3696C10.1036 45.698 10.0373 42.2563 10.3151 40.4286C10.4914 39.268 10.49 39.2495 10.1938 38.9288C9.64163 38.3312 9.42243 38.4405 5.89675 41.0706C4.07852 42.4271 2.48171 43.537 2.34839 43.537C1.85151 43.537 1.75883 43.2034 2.00543 42.3027C4.12952 34.5433 8.07498 28.2674 13.3484 24.2603C15.2936 22.782 16.0869 21.9912 16.968 20.6518C18.3493 18.5517 18.828 16.8192 18.9876 13.3414C19.108 10.7232 19.2644 9.93639 19.9768 8.36555C21.1718 5.731 23.6089 3.48625 26.3127 2.53013C27.6327 2.06339 28.4387 1.93235 30.0093 1.92955C34.6945 1.92102 38.6118 4.70154 40.3581 9.27528C40.512 9.67855 40.7309 10.1136 40.8446 10.2418C41.1146 10.5468 41.6904 10.5391 42.0713 10.2254C42.4914 9.87946 42.4461 9.31714 41.8904 7.98413C40.3237 4.22708 37.0067 1.3603 33.0441 0.338983C31.8601 0.0338274 29.4038 -0.0968199 28.1627 0.0792877ZM24.2952 8.8892C23.0841 9.26821 22.1803 10.5088 22.0454 11.9776C21.9167 13.3797 22.1795 13.943 22.9608 13.9393C23.7215 13.9355 23.9675 13.5371 23.9675 12.3086C23.9675 11.5336 24.0032 11.4234 24.3694 11.0666C24.6929 10.7516 24.887 10.6751 25.3635 10.6751C25.8665 10.6751 26.013 10.7405 26.338 11.1105C26.571 11.3756 26.7206 11.6944 26.7206 11.9257C26.7206 12.826 27.642 13.3051 28.312 12.753C28.5733 12.5379 28.6172 12.3914 28.5936 11.8137C28.543 10.571 27.573 9.31407 26.3405 8.894C25.8193 8.7163 24.8549 8.71403 24.2952 8.8892ZM33.5048 8.92533C32.3144 9.37406 31.4303 10.5907 31.3941 11.8293C31.3779 12.3847 31.4271 12.5411 31.6842 12.7529C32.3314 13.2866 33.0906 12.9337 33.2309 12.0342C33.2903 11.6528 33.4584 11.3318 33.7594 11.0246C34.1584 10.6174 34.2535 10.5815 34.7542 10.6497C35.1497 10.7037 35.4106 10.8424 35.6682 11.1355C35.9886 11.5002 36.0287 11.6495 36.0287 12.4769C36.0287 13.5739 36.2703 13.9413 36.9917 13.9413C37.7152 13.9413 37.9153 13.5871 37.9012 12.331C37.8847 10.8547 37.4719 9.98904 36.4579 9.30434C35.8344 8.88347 35.6133 8.81028 34.8652 8.77775C34.354 8.75549 33.7943 8.81614 33.5048 8.92533ZM41.3324 13.4687C40.9483 13.8591 40.9273 14.2788 41.2047 16.0183C41.3395 16.8634 41.4898 17.473 41.6295 17.7708C41.7159 17.9552 41.7982 18.0202 41.8702 17.9477C42.2067 17.6091 43.6325 17.7376 43.6325 18.1065C43.6325 18.1864 43.6668 18.2169 43.7087 18.1742C43.5843 17.9084 43.6018 17.908 43.4917 17.5838C43.336 17.35 43.1065 17.0533 42.8066 16.6993C42.1878 15.9686 42.1633 15.9116 42.3756 15.6994C42.587 15.488 42.616 15.4934 42.8538 15.7883L43.107 16.1023L43.0358 15.455C42.8594 13.8502 42.8124 13.6405 42.5743 13.3984C42.2287 13.047 41.7186 13.0759 41.3324 13.4687ZM27.9005 14.2636C26.605 14.6224 23.9494 15.7385 23.3525 16.1752C22.492 16.8047 22.1179 18.343 22.5624 19.4247C22.7826 19.9609 22.7177 19.8908 25.9918 23.1231C27.4122 24.5255 28.5492 25.5369 28.8731 25.6865C29.5538 26.001 30.4415 26.0019 31.1125 25.6892C31.7836 25.3764 37.181 20.0373 37.4251 19.4447C37.6536 18.8904 37.6515 17.7862 37.421 17.2251C37.1155 16.4817 36.3984 15.9098 35.1527 15.4163C34.5169 15.1643 33.7607 14.8502 33.4723 14.7183C32.5569 14.3 30.9123 13.941 29.9444 13.9482C29.4017 13.9522 28.551 14.0835 27.9005 14.2636ZM33.4723 16.7912C34.4817 17.214 35.4109 17.6547 35.5371 17.7708C36.0855 18.2756 35.9034 18.541 33.1131 21.3054C31.6522 22.7526 30.3285 23.9729 30.1714 24.017C30.0145 24.0611 29.7983 24.0467 29.6909 23.9851C29.5837 23.9235 28.3111 22.7116 26.8628 21.2919C23.5389 18.0336 23.5367 18.0243 25.8812 17.0524C28.5434 15.9488 28.6251 15.9286 30.1948 15.9776C31.6078 16.0219 31.6738 16.0383 33.4723 16.7912ZM42.1545 18.5019C42.0285 18.5957 41.9764 18.651 42.0148 18.8032C42.0289 18.8593 42.0553 18.9286 42.0948 19.0178C42.1355 19.1095 42.1899 19.2222 42.2591 19.3634C42.2946 19.4358 42.3324 19.5087 42.3712 19.5798C42.5351 19.8804 42.7161 20.1504 42.8119 20.2294C42.9304 20.3271 42.9885 20.3407 42.9407 20.2598C42.8929 20.1785 42.9915 20.049 43.161 19.9705C43.3297 19.8924 43.5085 19.663 43.5585 19.4609C43.7439 18.7099 42.7694 18.0444 42.1545 18.5019ZM30.2176 28.9703C30.1841 29.0264 30.2391 29.1497 30.3396 29.2442C30.4899 29.3855 30.5225 29.3809 30.5225 29.2188C30.5225 29.1165 30.4788 29.0248 30.4226 28.9691C30.2469 28.968 30.3623 28.9685 30.2189 28.968C30.2185 28.9688 30.218 28.9695 30.2176 28.9703ZM27.5072 29.1958C24.5584 29.8615 21.7197 31.6622 19.5055 34.2716C18.5764 35.3667 17.2555 37.3103 16.8063 38.2437C16.4588 38.9654 16.4474 39.0397 16.6326 39.375C16.8843 39.8311 17.4223 40.0365 17.8483 39.8391C18.028 39.7558 18.4193 39.2441 18.7585 38.6487C21.0016 34.7119 24.2395 31.956 27.5728 31.1354C27.6383 31.1193 27.7038 31.1039 27.7694 31.0893C27.8277 31.0763 27.8761 31.0618 27.9164 31.0432C28.0636 30.9751 28.1006 30.8517 28.107 30.5443C28.1181 30.0087 28.5257 29.483 29.146 29.2042C29.5383 29.0279 29.5378 29.0275 28.8838 29.0303C28.8628 29.0304 28.8409 29.0307 28.8183 29.0313C28.4519 29.0406 27.8807 29.1115 27.5072 29.1958ZM31.1306 29.2057C31.1721 29.3157 31.3178 29.4057 31.4542 29.4057C31.5907 29.4057 31.7024 29.3157 31.7024 29.2057C31.7024 29.1163 31.638 29.0517 31.5266 29.0227C31.4632 29.0155 31.4458 29.0133 31.3787 29.0057C31.3512 29.0021 31.3552 29.0006 31.3399 29.0012C31.1453 29.0089 31.0801 29.0717 31.1306 29.2057ZM32.0957 29.339C32.0957 29.5633 32.1198 29.5723 32.4119 29.4583C32.652 29.3648 32.562 29.1391 32.2846 29.1391C32.1807 29.1391 32.0957 29.229 32.0957 29.339ZM29.2803 29.7806C28.948 29.8527 28.6965 30.1905 28.6913 30.5722C28.6879 30.8116 28.7273 30.8608 29.2297 30.8701C29.3159 30.8717 29.4158 30.8721 29.5315 30.8721C29.6807 30.8721 29.8249 30.866 29.9534 30.8552C30.225 30.8324 30.4265 30.7889 30.4566 30.7394C30.501 30.6663 30.4602 30.4453 30.3661 30.2481C30.1894 29.8783 29.7339 29.6822 29.2803 29.7806ZM16.9735 56.5996C18.8541 57.5552 20.9598 60.3408 21.275 62.2897C21.357 62.7974 21.3252 62.8896 20.9034 63.3643C19.3697 65.0906 14.9298 65.6561 11.7288 64.533C10.0269 63.9359 9.31152 63.1814 9.47304 62.1544C9.65619 60.9893 10.6579 59.2952 11.9793 57.9158C13.1942 56.6474 14.0534 56.2174 15.3922 56.2076C16.0237 56.203 16.3545 56.285 16.9735 56.5996ZM46.0857 56.4893C47.2132 56.9165 48.9807 58.771 49.8209 60.4081C50.9569 62.6215 50.7934 63.3279 48.9307 64.2554C47.7427 64.8469 46.6416 65.0481 44.5502 65.0557C42.9533 65.0614 42.4841 65.0142 41.6169 64.7607C40.3894 64.4019 39.5981 63.9553 39.0359 63.3043C38.6751 62.8864 38.6339 62.7615 38.7058 62.3039C38.9097 61.0075 40.188 58.8823 41.494 57.6686C43.04 56.2318 44.4503 55.8696 46.0857 56.4893Z" fill="#F1F1F1"/>
<path d="M42.8066 16.6993C43.1065 17.0533 43.336 17.35 43.4917 17.5838C43.3213 17.0466 43.1743 16.4244 43.107 16.1023L42.8538 15.7883C42.616 15.4934 42.587 15.488 42.3756 15.6994C42.1633 15.9116 42.1878 15.9686 42.8066 16.6993Z" fill="#F1F1F1"/>
<path d="M43.1557 20.5466C43.4833 20.6628 44.1569 19.8139 44.1569 19.2847C44.1569 19.1537 44.1775 19.0607 44.2226 19.0845C44.0846 18.8972 43.8331 18.4401 43.7087 18.1742C43.6668 18.2169 43.6325 18.1864 43.6325 18.1065C43.6325 17.7376 42.2067 17.6091 41.8702 17.9477C41.7982 18.0202 41.7159 17.9552 41.6295 17.7708L42.0148 18.8032C41.9764 18.651 42.0285 18.5957 42.1545 18.5019C42.7694 18.0444 43.7439 18.7099 43.5585 19.4609C43.5085 19.663 43.3297 19.8924 43.161 19.9705C42.9915 20.049 42.8929 20.1785 42.9407 20.2598C42.9885 20.3407 42.9304 20.3271 42.8119 20.2294C42.7161 20.1504 42.5351 19.8804 42.3712 19.5798C42.369 19.6516 42.7533 20.3177 43.1205 20.8674C43.098 20.825 43.0825 20.7883 43.0747 20.7579C43.0328 20.5951 43.064 20.5139 43.1557 20.5466Z" fill="#F1F1F1"/>
<path fill-rule="evenodd" clip-rule="evenodd" d="M32.8713 29.7279L33.2737 29.3835L33.5379 29.4716C32.994 29.2246 32.2659 29.0892 31.5266 29.0227C31.638 29.0517 31.7024 29.1163 31.7024 29.2057C31.7024 29.3157 31.5907 29.4057 31.4542 29.4057C31.3178 29.4057 31.1721 29.3157 31.1306 29.2057C31.0801 29.0717 31.1453 29.0089 31.3399 29.0012C31.0325 28.9785 30.7161 28.9724 30.4226 28.9691C30.4788 29.0248 30.5225 29.1165 30.5225 29.2188C30.5225 29.3809 30.4899 29.3855 30.3396 29.2442C30.2391 29.1497 30.1841 29.0264 30.2176 28.9703C30.218 28.9695 30.2185 28.9688 30.2189 28.968C29.6605 28.9686 29.1631 28.9972 28.8183 29.0313C28.8409 29.0307 28.8628 29.0304 28.8838 29.0303C29.5378 29.0275 29.5383 29.0279 29.146 29.2042C28.5257 29.483 28.1181 30.0087 28.107 30.5443C28.1006 30.8517 28.0636 30.9751 27.9164 31.0432C28.3322 30.9471 28.7826 30.8939 29.2297 30.8701C28.7273 30.8608 28.6879 30.8116 28.6913 30.5722C28.6965 30.1905 28.948 29.8527 29.2803 29.7806C29.7339 29.6822 30.1894 29.8783 30.3661 30.2481C30.4602 30.4453 30.501 30.6663 30.4566 30.7394C30.4265 30.7889 30.225 30.8324 29.9534 30.8552C30.7188 30.8626 31.4091 30.9387 31.8144 31.0074C31.3092 30.3495 31.0721 30.8415 31.0212 30.3979L30.9683 29.9368L31.4337 30.0208C31.6896 30.0671 31.9286 30.1046 31.9646 30.1044C32.3365 30.1016 32.5272 30.0224 32.8713 29.7279ZM32.4119 29.4583C32.1198 29.5723 32.0957 29.5633 32.0957 29.339C32.0957 29.229 32.1807 29.1391 32.2846 29.1391C32.562 29.1391 32.652 29.3648 32.4119 29.4583Z" fill="#F1F1F1"/>
</svg>
