<svg width="74" height="55" viewBox="0 0 74 55" fill="none" xmlns="http://www.w3.org/2000/svg">
<path fill-rule="evenodd" clip-rule="evenodd" d="M31.0204 0.148209C30.75 0.22432 30.3857 0.463289 30.2107 0.679334C29.9118 1.0485 29.8925 1.26664 29.8925 4.2733V7.47428L23.0682 7.47518C18.8668 7.47563 16.0243 7.53526 15.6725 7.6301C15.3584 7.7149 14.9594 7.95956 14.7857 8.17381C14.4904 8.53878 14.4704 8.76666 14.4704 11.7645V14.9655L11.5016 14.9664C8.25399 14.9673 7.54981 15.0784 7.07466 15.665C6.77377 16.0368 6.75927 16.2499 6.75927 20.316V24.5772L7.21006 25.0152L7.66085 25.4531L11.6054 25.4594C13.7748 25.463 20.9631 25.4658 27.5792 25.4658C34.1953 25.4658 41.3836 25.463 43.5531 25.4594L47.4976 25.4531L47.9484 25.0152L48.3992 24.5772V20.316C48.3992 16.2499 48.3847 16.0368 48.0838 15.665C47.6086 15.0784 46.9045 14.9673 43.6568 14.9664L40.6881 14.9655V8.01889C40.6881 1.24761 40.6801 1.06243 40.3727 0.68263C40.199 0.468382 39.8001 0.223721 39.4859 0.138921C38.7796 -0.0516549 31.7037 -0.0438646 31.0204 0.148209ZM37.6036 5.22693V7.47428H35.2903H32.977V5.22693V2.97957H35.2903H37.6036V5.22693ZM22.1815 12.7181V14.9655H19.8681H17.5548V12.7181V10.4708H19.8681H22.1815V12.7181ZM29.8925 12.7181V14.9655H27.5792H25.2659V12.7181V10.4708H27.5792H29.8925V12.7181ZM37.6036 12.793V14.9655H35.2903H32.977V12.793V10.6206H35.2903H37.6036V12.793ZM56.1103 13.8066C55.5218 14.089 53.8848 16.6056 53.3426 18.0616C52.6343 19.9631 52.3587 21.7484 52.4558 23.805C52.5005 24.7527 52.6454 25.8988 52.7777 26.352C52.91 26.8053 53.0605 27.3199 53.1123 27.4955C53.3011 28.1355 52.7165 28.1499 26.3786 28.1499C7.92935 28.1499 1.42967 28.1944 1.13958 28.3228C0.924751 28.418 0.645918 28.6484 0.520073 28.8351C0.16891 29.3557 -0.0742983 31.7583 0.0207024 33.7683C0.172148 36.9741 0.901155 39.6868 2.43659 42.7577C6.18449 50.2537 13.3469 54.5253 22.8755 54.9475C30.0957 55.2675 37.3384 54.1155 43.131 51.7259C51.1241 48.4284 57.5766 42.5316 61.393 35.0369L62.3563 33.145L63.9756 32.959C67.5097 32.5529 70.2193 31.147 71.9089 28.8427C72.7082 27.7526 74 25.2989 74 24.8707C74 24.2304 73.6018 23.7793 72.3302 22.9791C70.3907 21.7586 68.3427 21.258 65.2882 21.258H64.0479L63.764 20.4715C62.9653 18.2598 60.4175 15.4749 57.9262 14.09C56.9972 13.5737 56.694 13.5264 56.1103 13.8066ZM59.2419 19.018C60.2995 20.1534 60.8208 21.0925 61.2065 22.5578C61.6286 24.1612 61.9647 24.4779 63.1584 24.3971C64.9786 24.274 67.6249 24.3468 68.448 24.5428C69.3837 24.7654 70.4529 25.2402 70.4529 25.4329C70.4529 25.5009 70.1836 25.9612 69.8547 26.4557C68.2808 28.8211 66.2596 29.8357 62.729 30.0326C61.8455 30.0818 60.9334 30.1914 60.7024 30.2762C60.3583 30.4025 60.0462 30.8957 58.9802 32.9984C58.2643 34.4106 57.2691 36.173 56.7689 36.9146C51.1563 45.2366 42.5458 50.2251 31.2805 51.6812C27.9532 52.1114 22.3315 52.0829 19.6368 51.6223C16.5087 51.0876 13.4742 49.9242 11.1679 48.3754C9.7629 47.4318 7.53778 45.2174 6.57498 43.8045C4.28201 40.4401 2.96819 36.2047 3.08987 32.5691L3.13506 31.2213L27.8877 31.1452L52.6403 31.0689L53.7741 30.7284C56.7036 29.8483 57.3437 29.0988 56.5018 27.5345C55.052 24.8408 55.2277 20.3142 56.884 17.69L57.1974 17.1935L57.8062 17.6618C58.1411 17.9195 58.7871 18.5298 59.2419 19.018ZM14.4704 20.2093V22.4566H12.157H9.84371V20.2093V17.9619H12.157H14.4704V20.2093ZM45.3147 20.2093V22.4566H43.0014H40.6881V20.2093V17.9619H43.0014H45.3147V20.2093ZM22.1815 20.2842V22.4566H19.8681H17.5548V20.2842V18.1118H19.8681H22.1815V20.2842ZM29.8925 20.2842V22.4566H27.5792H25.2659V20.2842V18.1118H27.5792H29.8925V20.2842ZM37.6036 20.2842V22.4566H35.2903H32.977V20.2842V18.1118H35.2903H37.6036V20.2842Z" fill="#F1F1F1"/>
</svg>
