<svg width="125" height="25" viewBox="0 0 125 25" fill="none" xmlns="http://www.w3.org/2000/svg">
<path fill-rule="evenodd" clip-rule="evenodd" d="M6.51631 0.143231C4.84125 0.467531 3.66254 1.39172 3.08718 2.83174C2.80723 3.53235 2.75337 3.95847 2.70219 5.88198L2.64258 8.11781H1.32129H0V10.2505V12.3831H1.33577H2.67154V18.5747V24.7662H5.27278H7.87402V18.5747V12.3831H9.63161C10.9425 12.3831 11.3899 12.3394 11.392 12.2111C11.3934 12.1166 11.4878 11.2342 11.6015 10.2505C11.7151 9.26669 11.8089 8.38446 11.8096 8.2898C11.8107 8.16033 11.322 8.11781 9.83071 8.11781H7.85053L7.89736 6.47127C7.95908 4.30464 7.91423 4.34853 10.1284 4.28813L11.811 4.24231V2.12109V0L9.45585 0.015135C8.16043 0.0233904 6.83774 0.0810406 6.51631 0.143231ZM62.2891 0.697306C61.4771 0.83751 60.3855 1.02229 59.8636 1.10774L58.9145 1.26321V12.8056V24.3482L59.2309 24.4169C61.8323 24.9814 67.4329 25.1588 69.1859 24.732C72.123 24.0169 73.503 22.7961 73.9685 20.5009C74.1625 19.5438 74.2448 13.9476 74.0886 12.3385C73.7759 9.12057 72.1482 7.93578 68.054 7.94583C66.7792 7.94899 65.997 8.02467 65.2067 8.22142L64.117 8.49275V4.45269C64.117 1.30463 64.0782 0.416073 63.9412 0.427493C63.8446 0.43561 63.1011 0.556964 62.2891 0.697306ZM112.767 0.697306C111.955 0.83751 110.864 1.02229 110.342 1.10774L109.393 1.26321V13.0146V24.7662H111.992H114.591L114.628 20.8997L114.665 17.0331L117.035 20.8997L119.404 24.7662H122.21C123.754 24.7662 124.991 24.7198 124.959 24.663C124.927 24.6062 123.807 22.7685 122.47 20.5793C121.133 18.39 120.011 16.495 119.978 16.368C119.941 16.2325 120.966 14.5025 122.458 12.1789C123.856 10.002 125 8.19761 125 8.16927C125 8.14093 123.746 8.11781 122.214 8.11781H119.427L118.163 10.0785C117.468 11.1569 116.397 12.8234 115.782 13.782L114.665 15.5248L114.629 7.9688C114.601 2.05271 114.555 0.415935 114.418 0.427493C114.322 0.43561 113.579 0.556964 112.767 0.697306ZM33.7974 7.9838C30.588 8.4073 28.67 9.89919 27.8761 12.5895C27.6071 13.5014 27.4776 17.7709 27.6755 19.2092C28.0624 22.0224 29.4765 23.7328 32.1215 24.5865C33.1557 24.9205 33.4484 24.9522 35.5034 24.9533C37.5671 24.9546 38.6981 24.8378 40.1083 24.4775L40.6355 24.3428V22.3113V20.2798L39.0537 20.52C37.2165 20.7991 34.927 20.8449 34.1538 20.6181C32.9468 20.2644 32.7039 19.423 32.7892 15.8917C32.8688 12.5951 33.0797 12.2941 35.4102 12.1517C36.4838 12.0862 39.1812 12.3392 40.3192 12.6122L40.6355 12.6881V10.6207V8.55342L39.9547 8.41047C37.9431 7.98834 35.2026 7.79847 33.7974 7.9838ZM48.1191 7.98944C45.4775 8.2499 43.5872 9.53527 42.7267 11.6564C42.4282 12.392 42.4 12.7003 42.3518 15.7534C42.294 19.4192 42.3884 20.2131 43.0415 21.5599C43.7801 23.0832 45.2576 24.1981 47.208 24.704C48.8609 25.1328 53.0998 25.0884 55.3993 24.6183C56.8202 24.3278 56.6648 24.6145 56.6648 22.2844V20.2205L56.3484 20.2879C53.8657 20.8166 49.5321 20.9433 48.5692 20.5154C47.8661 20.2029 47.5253 19.5736 47.5253 18.5883V17.8867H52.306H57.0866L57.0845 15.5821C57.0815 12.3255 56.7579 11.1466 55.5 9.81114C54.118 8.34415 51.3787 7.66803 48.1191 7.98944ZM81.9038 7.99384C78.6916 8.29489 76.6458 9.86892 76.0041 12.5327C75.8481 13.1799 75.7916 14.2219 75.7916 16.442C75.7916 20.6129 76.1128 21.7954 77.6208 23.1757C78.9961 24.4343 80.6285 24.9364 83.3802 24.9469C87.7141 24.9632 90.0983 23.3603 90.8514 19.9237C91.0877 18.8456 90.9288 12.8911 90.6413 12.0507C89.5932 8.9867 86.5224 7.56085 81.9038 7.99384ZM98.6921 8.001C96.6704 8.19046 94.7664 9.07861 93.8907 10.2407C92.8653 11.6016 92.5318 13.0705 92.5246 16.2601C92.5145 20.689 93.1587 22.5068 95.1945 23.7944C96.4702 24.6012 97.9482 24.9423 100.183 24.9454C102.393 24.9485 103.886 24.6073 105.145 23.8111C107.242 22.4844 107.841 20.8481 107.841 16.442C107.841 12.8255 107.475 11.3274 106.262 9.97528C104.867 8.41955 102.054 7.68592 98.6921 8.001ZM13.5731 8.2898C13.5035 8.49935 13.2171 11.4948 13.2171 12.012V12.3831H16.1744C20.1848 12.3831 20.4782 12.5171 20.5444 14.3782L20.5787 15.3413L17.7767 15.4201C14.6867 15.5071 13.8067 15.6963 12.7999 16.4898C11.6904 17.3644 11.1509 19.3602 11.5233 21.2125C11.9405 23.2873 13.1395 24.4767 15.2425 24.9019C16.6803 25.1926 19.0456 24.8157 20.5806 24.0516C21.1832 23.7516 21.3287 23.8162 21.3967 24.4141L21.4426 24.8189L23.6209 24.8182L25.7992 24.8174L25.7802 18.841C25.7597 12.3316 25.6867 11.5928 24.9431 10.3509C24.2473 9.18923 22.7809 8.47803 20.6226 8.25554C18.65 8.05205 13.6438 8.07654 13.5731 8.2898ZM50.8999 11.9362C51.5316 12.245 51.8836 12.934 51.8839 13.8622L51.8841 14.5845H49.7047H47.5253L47.5259 13.7934C47.5267 12.3936 48.2368 11.7115 49.7047 11.7008C50.1028 11.6978 50.6212 11.8 50.8999 11.9362ZM68.181 12.4875C68.3817 12.6328 68.6258 12.9109 68.7234 13.1053C68.9595 13.5761 69.0866 17.38 68.9109 18.7121C68.7895 19.6311 68.722 19.791 68.293 20.1757C67.6 20.7973 65.9086 21.0923 64.5564 20.8277L64.117 20.7417V16.7897V12.8377L64.6648 12.596C65.5174 12.2196 66.0866 12.1156 66.9858 12.1716C67.5162 12.2047 67.9477 12.3187 68.181 12.4875ZM84.8206 12.4779C85.6793 12.9629 85.7701 13.3495 85.7702 16.5248C85.7705 19.2431 85.7574 19.3787 85.4513 19.827C85.0121 20.4704 84.3294 20.7757 83.329 20.7758C82.3221 20.7761 81.52 20.383 81.2058 19.7352C80.9054 19.1154 80.8893 13.7979 81.1864 13.2359C81.446 12.7447 81.8525 12.3959 82.3457 12.2413C82.9435 12.0537 84.2992 12.1833 84.8206 12.4779ZM101.712 12.51C102.524 13.0013 102.643 13.5184 102.643 16.548C102.643 18.7951 102.606 19.2649 102.397 19.6656C101.995 20.4379 101.505 20.6966 100.351 20.7465C99.1386 20.7991 98.511 20.5412 98.0785 19.813C97.8168 19.3724 97.7925 19.0972 97.7925 16.5796C97.7925 13.6747 97.837 13.3354 98.2868 12.8136C98.9246 12.0738 100.726 11.9141 101.712 12.51ZM20.5287 19.7424V20.7724L20.0014 20.9888C18.4612 21.6208 17.2051 21.5378 16.8034 20.7776C16.4194 20.051 16.641 19.044 17.2133 18.9149C17.3742 18.8787 18.17 18.8314 18.982 18.8097C19.794 18.7881 20.4743 18.7572 20.4935 18.7413C20.5128 18.7253 20.5287 19.1758 20.5287 19.7424Z" fill="white"/>
</svg>
