<svg width="1920" height="778" viewBox="0 0 1920 778" fill="none" xmlns="http://www.w3.org/2000/svg">
<path d="M2114 -632.999L2051.8 -632.999C2044.62 -632.999 2038.8 -627.179 2038.8 -619.999L2038.8 548.5C2038.8 555.68 2032.98 561.5 2025.8 561.5L634.449 561.501C627.269 561.501 621.449 555.68 621.449 548.501L621.449 448.501L621.449 119.499C621.449 112.319 615.629 106.499 608.449 106.499L178.739 106.499C171.559 106.499 165.739 100.679 165.739 93.4989L165.739 -522.117C165.739 -529.296 159.918 -535.117 152.739 -535.117L84.2484 -535.117C77.0687 -535.117 71.2484 -529.296 71.2484 -522.117L71.2484 763.5C71.2484 770.68 65.4281 776.5 58.2484 776.5L-953.443 776.5C-960.623 776.5 -966.443 770.68 -966.443 763.5L-966.443 -575.455C-966.443 -582.635 -972.264 -588.455 -979.443 -588.455L-1072 -588.455" stroke="white" stroke-width="3" stroke-linecap="round" stroke-linejoin="round" stroke-dasharray="2 20"/>
</svg>
