<svg width="35" height="23" viewBox="0 0 35 23" fill="none" xmlns="http://www.w3.org/2000/svg">
<path fill-rule="evenodd" clip-rule="evenodd" d="M14.8148 0.746932C15.2656 0.501621 15.9086 0.235419 16.2437 0.155223C18.2367 -0.321123 20.2594 0.310682 21.7924 1.88815C22.193 2.30036 22.6962 2.93657 22.9106 3.30186L23.3004 3.9661L23.7442 3.75459C25.301 3.01288 27.1097 3.12068 28.7415 4.05259C29.5556 4.5175 30.7839 5.81837 31.2679 6.72823C31.8765 7.87249 32.2354 9.38991 32.2368 10.8259L32.2376 11.5294L32.6518 11.8433C34.0535 12.9061 35.0001 14.9673 35.0001 16.957C35.0001 18.0138 34.8564 18.6873 34.4116 19.7136C33.7575 21.223 32.4695 22.4108 31.0428 22.8203C30.2211 23.0562 5.13357 23.0616 4.33052 22.8262C2.45732 22.2768 0.911911 20.6017 0.260996 18.4149C0.0511371 17.7098 0.00950846 17.3731 0.00141132 16.3155C-0.00706687 15.1878 0.0203684 14.9644 0.26414 14.1817C0.595932 13.1166 1.29505 11.9364 2.01093 11.2334C2.91267 10.3477 4.45208 9.6558 5.53005 9.6516C5.89099 9.65013 5.9832 9.58568 6.62554 8.88585C7.76505 7.64429 9.08993 7.04587 10.4352 7.16532L11.0666 7.22137L11.1324 6.57257C11.2172 5.73544 11.5836 4.52978 12.0152 3.66683C12.5458 2.60623 13.798 1.30022 14.8148 0.746932ZM21.2208 3.38478C20.681 2.68338 19.7797 2.03395 18.9964 1.78223C18.2114 1.52999 17.7709 1.48507 16.9959 1.57828C14.9956 1.81876 13.231 3.56838 12.6524 5.88492C12.5749 6.19489 12.4856 6.97638 12.4537 7.62151C12.4219 8.26675 12.364 8.85132 12.3252 8.92049C12.271 9.01717 12.0542 9.00583 11.3922 8.87179C10.2882 8.64821 9.21825 8.76766 8.5076 9.19383C8.02358 9.48418 7.43106 10.1358 6.96943 10.8855L6.70718 11.3115L5.63578 11.3467C4.67127 11.3784 4.50266 11.4143 3.9452 11.7067C3.58178 11.8972 3.10957 12.2671 2.80207 12.602C0.504673 15.1049 1.14501 19.5193 4.02331 21.0218L4.65965 21.354H17.7103H30.761L31.2752 21.0619C32.0113 20.6437 32.4591 20.2229 32.837 19.5942C33.4234 18.6189 33.7165 17.2317 33.563 16.1578C33.4744 15.5379 32.9457 14.2769 32.5949 13.8488C32.2826 13.4677 31.5824 12.8668 31.1359 12.5966L30.7486 12.3624L30.7524 10.9275C30.7558 9.62903 30.7315 9.415 30.4967 8.67707C30.1764 7.67043 29.8812 7.13488 29.2499 6.41585C28.2964 5.32943 27.2226 4.82148 25.8797 4.82148C25.0951 4.82148 24.4001 5.04182 23.3553 5.62155C22.9905 5.82393 22.6817 5.97477 22.669 5.95661C22.6564 5.93845 22.4196 5.47491 22.1429 4.92645C21.8662 4.37799 21.4512 3.68426 21.2208 3.38478ZM16.9483 9.39863L17.3293 9.26994C18.0084 9.04068 18.0837 9.07102 18.2727 9.65003C18.3669 9.93869 18.4985 10.1749 18.5653 10.1749C18.6321 10.1749 18.8147 10.2031 18.971 10.2375C19.2176 10.2919 19.2819 10.2537 19.4574 9.94887C19.5687 9.75562 19.6963 9.53645 19.741 9.46182C19.804 9.35685 19.9445 9.40345 20.3619 9.66766C20.6587 9.85545 20.8984 10.0582 20.8945 10.1183C20.8906 10.1782 20.8114 10.4163 20.7185 10.6472C20.5505 11.0645 20.551 11.0692 20.7826 11.4055C21.0094 11.7348 21.0305 11.7423 21.5634 11.681L22.1113 11.6179L22.2208 12.0975C22.3999 12.8808 22.3783 12.9451 21.8542 13.1891C21.4629 13.3712 21.3779 13.4577 21.3779 13.6737C21.3779 13.8183 21.3538 14.0057 21.3244 14.0901C21.2905 14.1874 21.3863 14.3243 21.5864 14.4641C21.7599 14.5854 21.9591 14.7263 22.0291 14.7771C22.1301 14.8505 22.0939 14.9915 21.8533 15.4613C21.6866 15.7868 21.5279 16.0531 21.5007 16.0531C21.4734 16.0531 21.2484 15.9737 21.0006 15.8769C20.562 15.7051 20.5428 15.7064 20.262 15.9267C19.9903 16.1399 19.9782 16.1787 20.0524 16.6017L20.0527 16.6035C20.1242 17.0105 20.1574 17.1999 20.0815 17.3089C20.0154 17.4039 19.8664 17.4378 19.5875 17.5013L19.586 17.5017C19.2816 17.5709 18.99 17.6276 18.938 17.6276C18.886 17.6276 18.7664 17.3914 18.6722 17.1028C18.5392 16.6954 18.4551 16.5776 18.2962 16.5765C18.1835 16.5757 18.0056 16.5503 17.9009 16.5201C17.7533 16.4775 17.6493 16.5726 17.4396 16.9414C17.2907 17.2033 17.1508 17.4177 17.1286 17.4177C17.1064 17.4177 16.8518 17.2706 16.5627 17.0909L16.545 17.0799C16.2901 16.9214 16.1553 16.8376 16.1126 16.7188C16.0646 16.5856 16.1323 16.4084 16.2757 16.0327L16.2845 16.0096C16.3921 15.7275 16.3836 15.6552 16.2114 15.3886C16.0228 15.0967 15.9977 15.0893 15.4324 15.156L14.8481 15.225L14.6889 14.57C14.6013 14.2096 14.5492 13.88 14.5731 13.8374C14.597 13.7947 14.826 13.6832 15.082 13.5895C15.4968 13.4377 15.5543 13.379 15.6102 13.0502C15.6626 12.7427 15.6364 12.6494 15.4533 12.4902C15.3324 12.3851 15.1323 12.2084 15.0085 12.0977L14.7833 11.8961L15.0967 11.3242C15.269 11.0096 15.4182 10.7388 15.4283 10.7223C15.4384 10.7058 15.6543 10.7823 15.9083 10.8922C16.3677 11.091 16.3714 11.0909 16.6741 10.8723C16.9637 10.6631 16.9776 10.6223 16.9633 10.0256L16.9483 9.39863ZM19.242 15.1193C20.5057 14.4869 20.5562 12.4411 19.3269 11.674C18.5954 11.2174 17.5575 11.4526 17.0635 12.1868C16.96 12.3409 16.8222 12.6952 16.7575 12.9741C16.3943 14.5402 17.8638 15.809 19.242 15.1193Z" fill="white"/>
</svg>
