<svg width="39" height="39" viewBox="0 0 39 39" fill="none" xmlns="http://www.w3.org/2000/svg">
<path d="M14.3851 30.158C14.3851 30.158 12.8933 31.0269 15.4442 31.3182C18.2471 31.641 19.8081 31.6299 22.6124 31.1415C22.7303 31.1209 22.7747 31.2772 22.6627 31.3192C15.3413 34.066 8.61056 31.7714 14.3826 30.1583C14.3834 30.1581 14.3843 30.158 14.3851 30.158ZM13.4503 25.8923C13.4503 25.8923 11.7745 27.1294 14.3266 27.389C17.6355 27.7314 20.2363 27.7643 24.7493 26.8954C15.5203 29.5923 6.84453 28.0814 13.4503 25.8928C13.4505 25.8927 13.4505 25.8923 13.4503 25.8923ZM21.3149 18.6505C21.5554 19.1456 22.2636 19.4141 22.0707 18.8987C22.0403 18.8174 22.0069 18.7347 21.9706 18.6505C19.7445 14.4586 19.7607 13.1075 26.4527 9.05034C26.7498 8.87023 26.5911 8.49324 26.2656 8.61456C22.8034 9.9048 16.5442 13.1551 21.3137 18.6518C21.3137 18.6518 20.0012 15.9461 21.3149 18.6505ZM32.0359 34.4353C32.1705 34.2443 31.3483 34.412 31.1486 34.5333C30.9262 34.6683 30.6177 34.8034 30.1959 34.9318C25.7901 36.2639 11.8574 36.6637 7.98541 34.9818C6.59604 34.3785 9.20416 33.5351 10.0232 33.3633C10.2572 33.3113 10.4638 33.2765 10.6404 33.2533C10.8422 33.2268 10.8814 33.0227 10.6788 33.0037C8.2038 32.7717 1.96302 35.4481 7.07257 36.2773C19.8407 38.349 30.751 36.2593 32.0359 34.4353ZM14.441 21.4714C14.5556 21.4662 14.5715 21.6024 14.4607 21.632C12.8258 22.0696 8.88291 23.2661 12.5874 23.7595C14.524 24.0191 18.3777 23.9631 21.9706 23.6584C23.1743 23.5563 24.3806 23.4073 25.3845 23.2672C25.5114 23.2495 25.5391 23.3826 25.4129 23.4048C17.6561 24.7695 5.36738 24.6543 8.96407 22.9162C11.3523 21.7642 13.4271 21.5171 14.441 21.4714ZM29.3764 28.0935C29.1527 28.1763 29.0193 27.8552 29.2184 27.7239C34.4731 24.2575 31.5579 21.1579 29.3903 21.6145C29.3676 21.619 29.3454 21.6234 29.3236 21.6279C29.0804 21.6774 28.9404 21.4371 29.1746 21.3549C33.5486 19.8155 36.977 25.2804 29.3764 28.0935ZM23.6585 1.79657C23.6482 1.28872 24.1196 1.09551 24.2614 1.58324C24.7645 3.31288 24.519 6.36698 19.5574 10.2826C14.5462 14.2437 16.568 16.8558 18.3423 19.3887C18.6519 19.8306 18.241 20.152 17.8684 19.7617C15.3294 17.1023 14.2528 14.722 15.7662 12.4468C18.1717 8.82863 23.7609 6.85301 23.6585 1.79657ZM15.8183 38.8793C21.9309 39.2656 30.8949 38.7872 33.2856 36.4664C33.4504 36.3063 33.0545 36.0181 32.8514 36.1253C32.0385 36.5543 30.6012 37.0881 28.0753 37.5643C22.4065 38.6333 15.4807 38.5708 11.0361 37.9488C10.8337 37.9205 10.7841 38.0746 10.9781 38.1392C11.7019 38.3799 13.1298 38.7047 15.8171 38.8793H15.8183Z" fill="white"/>
</svg>
