<svg width="40" height="16" viewBox="0 0 40 16" fill="none" xmlns="http://www.w3.org/2000/svg">
<path d="M2.4635 6.59829C2.4635 7.01994 2.40328 7.33333 2.28285 7.53846C2.16242 7.74359 1.96535 7.89744 1.69164 8C1.96535 8.10256 2.16242 8.25641 2.28285 8.46154C2.40328 8.66667 2.4635 8.98006 2.4635 9.40171V13.6239C2.4635 14.5356 2.87954 14.9915 3.71161 14.9915H4.15502V16H3.54739C2.04746 16 1.2975 15.2422 1.2975 13.7265V9.38461C1.2975 8.80342 1.05116 8.51282 0.558488 8.51282H0.00012207V7.48718H0.558488C1.05116 7.48718 1.2975 7.19658 1.2975 6.61539V2.2735C1.2975 0.757835 2.04746 0 3.54739 0H4.15502V1.00855H3.71161C2.87954 1.00855 2.4635 1.46439 2.4635 2.37607V6.59829Z" fill="white"/>
<path d="M7.2422 5.45299C7.51591 4.849 7.92099 4.39316 8.45746 4.08547C9.00488 3.77778 9.6782 3.62393 10.4774 3.62393V4.80342L10.1983 4.78632C9.28954 4.78632 8.5779 5.07692 8.06332 5.65812C7.54875 6.23932 7.29146 7.05413 7.29146 8.10256V12.6838H6.12547V3.69231H7.2422V5.45299Z" fill="white"/>
<path d="M20.03 8.5641H12.804C12.8697 9.49858 13.2146 10.2564 13.8387 10.8376C14.4627 11.4074 15.251 11.6923 16.2035 11.6923C16.74 11.6923 17.2326 11.5954 17.6815 11.4017C18.1304 11.1966 18.5191 10.9003 18.8475 10.5128L19.5044 11.2991C19.1212 11.7778 18.6395 12.1425 18.0592 12.3932C17.4899 12.6439 16.8604 12.7692 16.1707 12.7692C15.2838 12.7692 14.4956 12.5755 13.8058 12.188C13.127 11.7892 12.596 11.2422 12.2128 10.547C11.8296 9.85185 11.638 9.06553 11.638 8.18803C11.638 7.31054 11.8187 6.52422 12.18 5.82906C12.5522 5.1339 13.0559 4.59259 13.6909 4.20513C14.3368 3.81766 15.0594 3.62393 15.8586 3.62393C16.6579 3.62393 17.375 3.81766 18.01 4.20513C18.645 4.59259 19.1431 5.1339 19.5044 5.82906C19.8657 6.51282 20.0464 7.29915 20.0464 8.18803L20.03 8.5641ZM15.8586 4.66667C15.0266 4.66667 14.3259 4.94587 13.7565 5.50427C13.1982 6.05128 12.8807 6.76923 12.804 7.65812H18.9296C18.853 6.76923 18.53 6.05128 17.9607 5.50427C17.4023 4.94587 16.7017 4.66667 15.8586 4.66667Z" fill="white"/>
<path d="M24.7353 12.7692C24.0346 12.7692 23.3612 12.6667 22.7153 12.4615C22.0803 12.245 21.5821 11.9772 21.2208 11.6581L21.7464 10.7009C22.1077 10.9972 22.562 11.2422 23.1094 11.4359C23.6568 11.6182 24.2262 11.7094 24.8174 11.7094C25.6057 11.7094 26.1859 11.584 26.5582 11.3333C26.9414 11.0712 27.1329 10.7066 27.1329 10.2393C27.1329 9.90883 27.0289 9.65242 26.8209 9.47009C26.6129 9.27635 26.3501 9.1339 26.0326 9.04274C25.7151 8.94017 25.2936 8.8433 24.7681 8.75214C24.0674 8.61539 23.5036 8.47863 23.0766 8.34188C22.6496 8.19373 22.2828 7.94872 21.9763 7.60684C21.6807 7.26496 21.5329 6.79202 21.5329 6.18803C21.5329 5.4359 21.8339 4.82051 22.4361 4.34188C23.0383 3.86325 23.8758 3.62393 24.9488 3.62393C25.5071 3.62393 26.0655 3.7037 26.6239 3.86325C27.1822 4.0114 27.642 4.21083 28.0033 4.46154L27.4942 5.4359C26.7826 4.92308 25.9341 4.66667 24.9488 4.66667C24.2043 4.66667 23.6404 4.80342 23.2572 5.07692C22.885 5.35043 22.6989 5.7094 22.6989 6.15385C22.6989 6.49573 22.8029 6.76923 23.0109 6.97436C23.2299 7.17949 23.4981 7.33333 23.8156 7.4359C24.1331 7.52707 24.571 7.62393 25.1294 7.7265C25.8191 7.86325 26.372 8 26.7881 8.13675C27.2041 8.2735 27.5599 8.50712 27.8555 8.83761C28.1511 9.16809 28.2989 9.62393 28.2989 10.2051C28.2989 10.9915 27.9814 11.6182 27.3464 12.0855C26.7224 12.5413 25.852 12.7692 24.7353 12.7692Z" fill="white"/>
<path d="M35.0036 12.1368C34.7846 12.3419 34.5109 12.5014 34.1824 12.6154C33.8649 12.7179 33.531 12.7692 33.1807 12.7692C32.3705 12.7692 31.7464 12.5413 31.3085 12.0855C30.8706 11.6296 30.6516 10.9858 30.6516 10.1538V4.71795H29.1079V3.69231H30.6516V1.7265H31.8176V3.69231H34.4452V4.71795H31.8176V10.0855C31.8176 10.6211 31.9435 11.0313 32.1953 11.3162C32.4581 11.5897 32.8303 11.7265 33.312 11.7265C33.5529 11.7265 33.7828 11.6866 34.0018 11.6068C34.2317 11.5271 34.4288 11.4131 34.593 11.265L35.0036 12.1368Z" fill="white"/>
<path d="M40.0001 7.48718V8.51282H39.4418C38.9491 8.51282 38.7027 8.80342 38.7027 9.38461V13.7265C38.7027 15.2422 37.9583 16 36.4693 16H35.8452V14.9915H36.2886C37.1207 14.9915 37.5367 14.5356 37.5367 13.6239V9.40171C37.5367 8.98006 37.597 8.66667 37.7174 8.46154C37.8378 8.25641 38.0349 8.10256 38.3086 8C38.0349 7.89744 37.8378 7.74359 37.7174 7.53846C37.597 7.33333 37.5367 7.01994 37.5367 6.59829V2.37607C37.5367 1.46439 37.1207 1.00855 36.2886 1.00855H35.8452V0H36.4693C37.9583 0 38.7027 0.757835 38.7027 2.2735V6.61539C38.7027 7.19658 38.9491 7.48718 39.4418 7.48718H40.0001Z" fill="white"/>
</svg>
