<svg width="30" height="30" viewBox="0 0 30 30" fill="none" xmlns="http://www.w3.org/2000/svg">
<path d="M4.13798 8.87421C4.02199 8.72875 3.96847 8.5432 3.98916 8.35831C4.00986 8.17342 4.10309 8.0043 4.24837 7.88808C5.24124 7.16139 6.36807 6.6383 7.56396 6.34894C9.41224 5.88722 12.2706 5.77238 15.3901 7.85234C20.5006 11.2593 24.6986 8.02648 24.875 7.88703C25.0208 7.77076 25.2068 7.71717 25.3921 7.73804C25.5774 7.75892 25.7469 7.85256 25.8631 7.99835C25.9794 8.14415 26.033 8.33017 26.0121 8.51547C25.9912 8.70078 25.8976 8.87021 25.7518 8.98648C24.759 9.71322 23.6321 10.2363 22.4362 10.5257C21.6998 10.7101 20.9436 10.8035 20.1845 10.8039C18.5775 10.8039 16.6497 10.3821 14.6101 9.02234C9.49955 5.61558 5.30142 8.8482 5.12517 8.98765C4.97909 9.1031 4.79322 9.15599 4.60824 9.13475C4.42326 9.11352 4.25422 9.01988 4.1381 8.87433L4.13798 8.87421ZM24.875 14.4494C24.6986 14.5889 20.5006 17.8217 15.3901 14.4147C12.2706 12.3349 9.41236 12.4495 7.56396 12.9112C6.36805 13.2006 5.24123 13.7238 4.24837 14.4506C4.10258 14.5669 4.00894 14.7363 3.98806 14.9216C3.97773 15.0133 3.98556 15.1062 4.01112 15.195C4.03669 15.2837 4.07948 15.3665 4.13705 15.4387C4.19462 15.5109 4.26584 15.571 4.34666 15.6157C4.42748 15.6604 4.5163 15.6887 4.60805 15.699C4.79336 15.7199 4.97938 15.6663 5.12517 15.55C5.30142 15.4106 9.49955 12.178 14.6101 15.5847C16.6497 16.9446 18.5775 17.3663 20.1845 17.3663C22.1848 17.3587 24.1323 16.7229 25.7518 15.5487C25.8953 15.4317 25.9869 15.2628 26.0066 15.0787C26.0264 14.8946 25.9727 14.7101 25.8572 14.5653C25.7418 14.4206 25.5739 14.3272 25.39 14.3055C25.2061 14.2838 25.021 14.3355 24.875 14.4494ZM24.875 21.0119C24.6986 21.1514 20.5006 24.3841 15.3901 20.9772C12.2706 18.8975 9.41236 19.012 7.56396 19.4737C6.36805 19.7631 5.24123 20.2863 4.24837 21.0131C4.10258 21.1294 4.00894 21.2988 3.98806 21.4841C3.97773 21.5758 3.98556 21.6687 4.01112 21.7575C4.03669 21.8462 4.07948 21.929 4.13705 22.0012C4.19462 22.0734 4.26584 22.1335 4.34666 22.1782C4.42748 22.2229 4.5163 22.2512 4.60805 22.2615C4.79336 22.2824 4.97938 22.2288 5.12517 22.1125C5.30142 21.9731 9.49955 18.7405 14.6101 22.1472C16.6497 23.5071 18.5775 23.9288 20.1845 23.9288C22.1848 23.9212 24.1323 23.2854 25.7518 22.1112C25.8953 21.9942 25.9869 21.8253 26.0066 21.6412C26.0264 21.4571 25.9727 21.2726 25.8572 21.1278C25.7418 20.9831 25.5739 20.8897 25.39 20.868C25.2061 20.8463 25.021 20.898 24.875 21.0119Z" fill="white"/>
</svg>
