<svg width="31" height="31" viewBox="0 0 31 31" fill="none" xmlns="http://www.w3.org/2000/svg">
<path d="M1.25012 15.5C1.25012 23.5084 7.74177 30 15.7501 30C23.7585 30 30.2501 23.5084 30.2501 15.5C30.2501 7.49165 23.7585 1 15.7501 1C7.74177 1 1.25012 7.49165 1.25012 15.5Z" stroke="white" stroke-width="1.5" stroke-linecap="round" stroke-linejoin="round"/>
<path d="M17.2001 1.07031C17.2001 1.07031 21.5501 6.79781 21.5501 15.4978C21.5501 24.1978 17.2001 29.9253 17.2001 29.9253" stroke="white" stroke-width="1.5" stroke-linecap="round" stroke-linejoin="round"/>
<path d="M14.3001 29.9253C14.3001 29.9253 9.95007 24.1978 9.95007 15.4978C9.95007 6.79781 14.3001 1.07031 14.3001 1.07031" stroke="white" stroke-width="1.5" stroke-linecap="round" stroke-linejoin="round"/>
<path d="M2.16357 20.5752H29.3366" stroke="white" stroke-width="1.5" stroke-linecap="round" stroke-linejoin="round"/>
<path d="M2.16357 10.4248H29.3366" stroke="white" stroke-width="1.5" stroke-linecap="round" stroke-linejoin="round"/>
</svg>
