<svg width="75" height="84" viewBox="0 0 75 84" fill="none" xmlns="http://www.w3.org/2000/svg">
<path fill-rule="evenodd" clip-rule="evenodd" d="M44.9002 1.07062C42.9564 2.98129 41.7623 5.06077 41.0443 7.78536C40.5331 9.72516 40.4755 13.741 40.9348 15.4359C41.6989 18.2566 42.8577 20.3045 44.1566 21.1301C47.3945 23.188 49.1568 27.1463 48.6823 31.295C48.4426 33.3919 47.8802 34.8994 46.773 36.4133V36.4133C46.4315 36.8805 46.499 37.5304 46.9293 37.9175L47.1316 38.0994C47.6595 38.5744 48.1738 38.963 48.2745 38.9632C48.4917 38.9635 49.6307 37.3776 50.1626 36.3342C51.8432 33.0372 52.0828 28.6227 50.7697 25.1495C49.7844 22.5433 48.4619 20.767 46.3397 19.1989C45.3572 18.4731 45.1017 18.1744 44.6122 17.1795C43.7504 15.4277 43.4888 14.1888 43.479 11.8163C43.4635 7.96832 44.6384 5.15389 47.2645 2.74881V2.74881C47.6852 2.36354 47.7507 1.72436 47.4169 1.26177L47.2735 1.06289C46.8726 0.507112 46.4312 0.0293213 46.2925 0.00118688C46.1539 -0.027112 45.5273 0.454134 44.9002 1.07062ZM30.8556 1.00629C29.7716 2.37797 29.0347 3.72908 28.498 5.32994C26.794 10.4121 27.7078 15.9378 30.8996 19.8537C31.9218 21.1077 32.6846 22.5538 33.1255 24.0737C33.441 25.1612 33.5084 25.7902 33.5132 27.6933C33.52 30.2955 33.2223 31.5996 32.1931 33.4778C31.6792 34.4155 31.6585 34.5084 31.9162 34.7258C32.3406 35.084 33.7689 36.002 33.9017 36.002C34.2147 36.002 35.4591 33.4449 35.9433 31.8065C36.2874 30.6427 36.332 30.1571 36.3283 27.6111C36.3247 25.0926 36.276 24.5668 35.9392 23.4156C35.3583 21.4289 34.1877 19.2162 33.0421 17.9389C30.7239 15.3545 29.8658 10.3036 31.1064 6.54745C31.507 5.33471 32.3335 3.7299 32.901 3.06224C33.8477 1.94888 33.8504 2.08066 32.8599 1.0647C32.3613 0.55318 31.8586 0.138239 31.7427 0.142517C31.6269 0.146795 31.2277 0.535576 30.8556 1.00629ZM25.2394 41.2804C13.357 41.9473 8.52942 42.658 7.00777 43.9649C6.23129 44.6319 6.04997 45.7084 6.59792 46.3984C7.35386 47.3501 9.77469 48.056 14.0618 48.5751C28.0532 50.2694 55.6512 49.8114 63.5604 47.7535C65.9443 47.1334 66.7209 46.5348 66.7209 45.3181C66.7209 44.7834 66.6121 44.5684 66.0946 44.0796C65.4763 43.4955 63.9868 42.9033 62.5524 42.6714C61.8567 42.5588 61.8751 42.5289 61.5784 44.2651C61.3969 45.3273 61.3687 45.3747 60.8675 45.456C58.3135 45.8701 53.9431 46.2569 48.5883 46.5427C43.4812 46.8153 24.0644 46.6561 19.9404 46.3079C15.8206 45.96 12.2402 45.5184 12.2402 45.3583C12.2402 44.9061 25.3 43.9404 31.9046 43.9042V43.9042C32.3855 43.9015 32.774 43.5109 32.774 43.03V42.5009V42.5009C32.774 41.7306 32.1458 41.1082 31.3756 41.1153L30.1659 41.1264C28.7315 41.1396 26.5145 41.2089 25.2394 41.2804ZM26.2199 52.7979C23.3498 52.9707 19.8306 53.3777 17.7877 53.7734C14.0954 54.4883 12.8044 55.1768 12.6219 56.5286C12.5179 57.2994 12.8587 58.0472 13.5211 58.5015C15.8293 60.0847 24.1081 61.0441 35.5063 61.049C48.5639 61.055 57.0416 59.8569 58.2857 57.8297C58.9191 56.7974 58.5689 55.6974 57.3875 55.0095C56.5999 54.551 55.0352 54.0368 54.8234 54.167C54.7502 54.2119 54.5542 54.841 54.3877 55.5653C54.1163 56.7458 54.0405 56.8912 53.655 56.9714C52.4945 57.2121 48.4997 57.7155 46.9843 57.8121C46.0449 57.872 45.0156 57.951 44.6968 57.9876C44.378 58.0243 41.1738 58.0982 37.5762 58.152C30.3864 58.2593 24.6118 58.0039 20.1697 57.3823C17.6002 57.0229 16.9726 56.8295 17.79 56.6495C18.0619 56.5896 18.3889 56.5077 18.5168 56.4676C19.2595 56.2341 24.7628 55.73 28.2716 55.574C30.5202 55.474 32.4532 55.3629 32.567 55.3272C32.7099 55.2823 32.774 54.8535 32.774 53.9407V53.9407C32.774 53.2134 32.1801 52.626 31.4527 52.634L30.5799 52.6436C29.3732 52.6568 27.4112 52.7264 26.2199 52.7979ZM30.2073 64.0867C21.2931 64.6841 17.5156 65.614 16.5892 67.4388C15.6757 69.2381 17.111 70.5178 21.0115 71.3819C28.8794 73.1248 44.8352 72.85 50.9366 70.8665C54.3146 69.7684 54.7059 67.269 51.7061 65.9507C50.8304 65.5658 50.5085 65.5339 50.4173 65.8228C50.3817 65.936 50.1946 66.5552 50.0018 67.199V67.199C49.7857 67.9202 49.1918 68.4651 48.4546 68.6183L48.3745 68.635C43.6382 69.6195 35.8074 69.9407 27.9717 69.4713C25.154 69.3026 20.2116 68.4861 20.4746 68.2328C20.8931 67.8294 26.1388 67.154 30.3729 66.9582L31.2523 66.9176C32.0648 66.8801 32.712 66.2244 32.739 65.4115V65.4115L32.7578 64.8477C32.7735 64.3738 32.385 63.9855 31.9111 64.0015V64.0015C31.4294 64.0178 30.6627 64.0561 30.2073 64.0867ZM25.4878 75.6031C14.8378 75.8482 4.37663 76.8207 1.70526 77.8138C0.196024 78.3747 -0.36468 79.4379 0.238085 80.5959C0.828265 81.73 3.59999 82.4244 9.75631 82.9809C28.89 84.7104 63.6256 84.149 72.0744 81.9738C73.9604 81.4883 74.9983 80.6635 75 79.649C75.001 79.0695 74.0803 78.1722 73.1177 77.8143C72.2106 77.4772 69.2419 76.8778 69.1131 77.006C69.0724 77.0465 68.954 77.6765 68.8501 78.4058L68.7466 79.1328C68.6959 79.489 68.419 79.7704 68.0637 79.8268V79.8268C67.735 79.879 65.8267 80.071 63.823 80.2536C53.4924 81.1954 33.5428 81.4178 18.5328 80.7584C14.051 80.5616 7.0856 79.9608 6.86668 79.752C6.76964 79.6597 6.83323 79.6021 7.03227 79.6019C7.20979 79.6018 8.32391 79.4924 9.50792 79.3588C12.4764 79.0238 19.1384 78.6447 23.9975 78.5341C26.2289 78.4833 29.1163 78.3991 30.4143 78.3467L31.3937 78.3073C32.1649 78.2762 32.774 77.642 32.774 76.8703V76.8703V76.8703C32.774 76.1103 32.1526 75.497 31.3927 75.507L30.0831 75.5241C28.6032 75.5433 26.5352 75.5789 25.4878 75.6031Z" fill="#F1F1F1"/>
</svg>
