<svg width="303" height="459" viewBox="0 0 303 459" fill="none" xmlns="http://www.w3.org/2000/svg">
<path d="M36 453H7.7346C4.01518 453 1 449.985 1 446.265V311.735C1 308.015 4.01518 305 7.7346 305H151.5" stroke="#D41028" stroke-width="2" stroke-linecap="round" stroke-linejoin="round" stroke-dasharray="1.04 10.36"/>
<rect opacity="0.5" y="0.184305" width="12.8602" height="12.8602" rx="0.77707" transform="matrix(0.934574 0.355769 -0.934574 0.355769 37.0921 299.84)" fill="#1C1C1C" stroke="#ED1C24" stroke-width="0.518046"/>
<rect y="0.184305" width="9.86469" height="9.86469" rx="0.77707" transform="matrix(0.934574 0.355769 -0.934574 0.355769 37.0921 300.906)" fill="#1C1C1C" stroke="#ED1C24" stroke-width="0.518046"/>
<rect opacity="0.2" y="0.184305" width="16.5164" height="16.5164" rx="0.77707" transform="matrix(0.934574 0.355769 -0.934574 0.355769 37.0922 298.537)" stroke="#ED1C24" stroke-width="0.518046"/>
<rect opacity="0.5" y="0.184305" width="12.8602" height="12.8602" rx="0.77707" transform="matrix(0.934574 0.355769 -0.934574 0.355769 37.0922 447.84)" fill="#1C1C1C" stroke="#ED1C24" stroke-width="0.518046"/>
<rect y="0.184305" width="9.86469" height="9.86469" rx="0.77707" transform="matrix(0.934574 0.355769 -0.934574 0.355769 37.0921 448.906)" fill="#1C1C1C" stroke="#ED1C24" stroke-width="0.518046"/>
<rect opacity="0.2" y="0.184305" width="16.5164" height="16.5164" rx="0.77707" transform="matrix(0.934574 0.355769 -0.934574 0.355769 37.0922 446.537)" stroke="#ED1C24" stroke-width="0.518046"/>
<path d="M151.5 305H295.265C298.985 305 302 301.985 302 298.265V160.735C302 157.015 298.985 154 295.265 154H151.5" stroke="#D41028" stroke-width="2" stroke-linecap="round" stroke-linejoin="round" stroke-dasharray="1.04 10.36"/>
<path d="M36 6.5H7.7346C4.01519 6.5 1 9.51518 1 13.2346V147.265C1 150.985 4.01518 154 7.7346 154H151.5" stroke="#D41028" stroke-width="2" stroke-linecap="round" stroke-linejoin="round" stroke-dasharray="1.04 10.36"/>
<rect opacity="0.5" y="0.184305" width="12.8602" height="12.8602" rx="0.77707" transform="matrix(0.934574 0.355769 -0.934574 0.355769 37.0921 1.84041)" fill="#1C1C1C" stroke="#ED1C24" stroke-width="0.518046"/>
<rect y="0.184305" width="9.86469" height="9.86469" rx="0.77707" transform="matrix(0.934574 0.355769 -0.934574 0.355769 37.0921 2.90584)" fill="#1C1C1C" stroke="#ED1C24" stroke-width="0.518046"/>
<rect opacity="0.2" y="0.184305" width="16.5164" height="16.5164" rx="0.77707" transform="matrix(0.934574 0.355769 -0.934574 0.355769 37.0922 0.536704)" stroke="#ED1C24" stroke-width="0.518046"/>
<rect opacity="0.5" y="0.184305" width="12.8602" height="12.8602" rx="0.77707" transform="matrix(0.934574 0.355769 -0.934574 0.355769 37.0921 150.536)" fill="#1C1C1C" stroke="#ED1C24" stroke-width="0.518046"/>
<rect y="0.184305" width="9.86469" height="9.86469" rx="0.77707" transform="matrix(0.934574 0.355769 -0.934574 0.355769 37.0921 151.601)" fill="#1C1C1C" stroke="#ED1C24" stroke-width="0.518046"/>
<rect opacity="0.2" y="0.184305" width="16.5164" height="16.5164" rx="0.77707" transform="matrix(0.934574 0.355769 -0.934574 0.355769 37.0922 149.232)" stroke="#ED1C24" stroke-width="0.518046"/>
</svg>
