<svg width="375" height="584" viewBox="0 0 375 584" fill="none" xmlns="http://www.w3.org/2000/svg">
<path d="M958 -172.002L929.225 -172.002C925.904 -172.002 923.211 -169.309 923.211 -165.987L923.211 374.617C923.211 377.939 920.518 380.632 917.197 380.632L273.487 380.632C270.166 380.632 267.473 377.939 267.473 374.618L267.473 328.353L267.473 176.14C267.473 172.819 264.78 170.126 261.458 170.126L35.5144 170.126C32.1927 170.126 29.5 167.433 29.5 164.111L29.5 -120.702C29.5 -124.024 26.8072 -126.717 23.4855 -126.717L-17.4856 -126.717C-20.8073 -126.717 -23.5 -124.024 -23.5 -120.702L-23.5 576.986C-23.5 580.307 -26.1928 583 -29.5144 583L-461.15 583C-464.471 583 -467.164 580.307 -467.164 576.986L-467.164 -145.379C-467.164 -148.701 -469.857 -151.394 -473.179 -151.394L-516 -151.394" stroke="white" stroke-width="1.38795" stroke-linecap="round" stroke-linejoin="round" stroke-dasharray="0.93 9.25"/>
</svg>
