<svg width="154" height="20" viewBox="0 0 154 20" fill="none" xmlns="http://www.w3.org/2000/svg">
<path fill-rule="evenodd" clip-rule="evenodd" d="M146.702 3.45127V6.90253L145.529 6.12723C143.95 5.08354 140.809 5.14089 138.93 6.24788C134.502 8.85548 134.425 16.1113 138.796 18.8409C140.507 19.9098 143.505 19.9947 145.361 19.0267C146.575 18.3936 146.702 18.3964 146.702 19.0561C146.702 19.602 147.073 19.7488 148.181 19.641L149.659 19.4974L149.782 9.74869L149.905 0H148.304H146.702V3.45127ZM57.9987 3.44072C57.9987 5.43817 57.9536 5.50514 56.6053 5.50514C55.3071 5.50514 55.2215 5.60699 55.3544 6.99612C55.4717 8.22377 55.7101 8.51187 56.7045 8.62794C57.9049 8.76832 57.9136 8.7963 58.0692 13.1412C58.2175 17.2729 58.2962 17.5743 59.5025 18.6202C60.4642 19.4543 61.3116 19.7268 62.9411 19.7268C65.8419 19.7268 66.8536 18.973 66.2176 17.2862C65.8137 16.214 65.6049 16.0929 64.8561 16.4971C62.3174 17.8674 61.1829 16.5242 61.1829 12.1485V8.76465L63.5711 8.62564C65.9001 8.49077 65.9629 8.44994 66.1016 6.99612L66.2445 5.50514H63.7135H61.1829V3.44072C61.1829 1.3873 61.1743 1.37629 59.5908 1.37629C58.0073 1.37629 57.9987 1.3873 57.9987 3.44072ZM5.54331 5.52395C4.83914 5.73086 3.96938 6.14649 3.61002 6.44698C3.08644 6.88556 2.95679 6.8406 2.95679 6.22035C2.95679 5.62442 2.6179 5.47991 1.4784 5.59093L0 5.73453V12.616V19.4974L1.43609 19.6378L2.87264 19.7786L3.02821 14.8942C3.1715 10.4116 3.27248 9.93816 4.25823 9.13395C5.53193 8.0944 6.99668 8.0109 8.21488 8.90824C8.9791 9.47068 9.11875 10.246 9.25249 14.6685L9.40715 19.7786L10.8446 19.6382L12.2821 19.4974L12.5095 14.5272C12.7583 9.09358 13.185 8.25772 15.7101 8.25772C17.8763 8.25772 18.3758 9.40233 18.52 14.6974L18.6506 19.4974L20.1289 19.641L21.6073 19.785V14.4574C21.6073 8.63895 21.1556 7.07044 19.1719 5.99969C17.4064 5.04684 14.4769 5.22255 12.9326 6.37404C11.6084 7.3613 11.592 7.36221 10.3488 6.48231C8.7653 5.36155 7.17501 5.04455 5.54331 5.52395ZM29.4246 5.51157C26.4642 6.19604 24.3367 9.16653 24.3367 12.616C24.3367 14.9942 25.0659 16.6866 26.7917 18.3124C28.3225 19.7548 32.4165 20.2043 34.0691 19.112C35.0225 18.4826 35.2041 18.4748 35.4251 19.0561C35.5716 19.4405 36.2689 19.7268 37.0595 19.7268H38.4383V12.616V5.50514H36.8462C35.7235 5.50514 35.2541 5.71113 35.2541 6.20384C35.2541 6.81353 35.1235 6.82042 34.2306 6.25843C32.7954 5.35513 31.1846 5.10464 29.4246 5.51157ZM45.1439 5.68727C42.8817 6.52084 42.1916 7.14751 41.8605 8.66831C41.2359 11.5374 43.0728 13.3757 47.1863 13.9977C49.686 14.3758 50.674 15.2369 49.8106 16.2861C49.0737 17.1811 45.6265 17.188 43.9193 16.2975C42.6925 15.6575 42.5824 15.6819 41.8946 16.7402C41.4947 17.3559 41.1677 17.9477 41.1677 18.055C41.1677 18.1629 41.9906 18.5831 42.9963 18.9886C45.1007 19.8378 48.5851 19.9497 50.6226 19.2336C53.0085 18.395 54.1662 15.5117 52.9998 13.3137C52.5163 12.4022 49.7424 11.2447 46.9393 10.7841C45.4805 10.5446 45.2276 10.3396 45.3472 9.49316C45.4719 8.61005 45.7666 8.48802 47.7636 8.49306C49.0145 8.49627 50.4643 8.65409 50.9856 8.84356C51.7343 9.11606 52.0446 8.94219 52.464 8.0132C53.1627 6.46625 53.2087 6.56213 51.5165 6.02263C48.7907 5.15327 46.8661 5.05235 45.1439 5.68727ZM73.6924 5.4845C71.6422 5.96758 70.4518 6.87547 69.4051 8.75318C67.7151 11.7861 68.3784 15.9663 70.9267 18.3367C72.6498 19.9401 77.5444 20.2163 79.7302 18.834C81.179 17.9174 81.1995 17.8614 80.4817 16.7567C79.7829 15.6809 79.6751 15.6566 78.4465 16.2975C76.4295 17.3495 74.0654 17.1627 72.7622 15.8479C72.148 15.2286 71.6454 14.5061 71.6454 14.2423C71.6454 13.9381 73.4713 13.7629 76.6492 13.7629H81.653L81.6521 12.0425C81.6507 7.70904 77.7814 4.5211 73.6924 5.4845ZM89.5104 5.73682C88.6347 6.11438 87.936 6.19512 87.7777 5.9373C87.6321 5.69966 86.9111 5.50514 86.1751 5.50514H84.8373V12.6449V19.785L86.3157 19.641L87.7941 19.4974L87.9246 14.6974C88.0765 9.12386 88.6019 8.06504 91.0706 8.35543C92.3625 8.50774 92.6045 8.36094 93.0153 7.17229C93.2732 6.42588 93.432 5.77444 93.3687 5.72489C92.726 5.22255 90.689 5.22943 89.5104 5.73682ZM99.3938 5.58497C96.2846 6.47084 94.3891 9.17019 94.3918 12.7077C94.395 16.9329 97.2508 19.7222 101.577 19.7249C102.903 19.7259 104.598 19.4084 105.344 19.0194C106.695 18.3152 106.697 18.3055 105.924 16.9852C105.181 15.7176 105.09 15.6878 103.885 16.3163C101.926 17.3375 100.385 17.1265 98.9039 15.6332C95.2802 11.9783 99.3174 6.53369 103.885 8.91558C105.09 9.54408 105.181 9.51427 105.924 8.24671C106.693 6.93235 106.689 6.914 105.436 6.27403C103.6 5.33678 101.218 5.06519 99.3938 5.58497ZM113.041 5.59506C107.359 7.17779 106.196 15.3314 111.175 18.6854C112.995 19.9121 116.411 20.0947 117.897 19.045C118.75 18.4422 118.892 18.4422 119.121 19.045C119.272 19.4405 119.959 19.7268 120.76 19.7268H122.138V12.616V5.50514H120.546C119.424 5.50514 118.954 5.71113 118.954 6.20384C118.954 6.81353 118.824 6.82042 117.931 6.25843C116.425 5.31063 114.836 5.09501 113.041 5.59506ZM131.464 5.37761C130.963 5.5001 130.195 5.92032 129.758 6.31165C129.035 6.9585 128.962 6.95162 128.962 6.23549C128.962 5.62213 128.633 5.479 127.483 5.59093L126.005 5.73453V12.616V19.4974L127.483 19.641L128.962 19.785V15.419C128.962 13.0178 129.201 10.5226 129.494 9.87394C130.051 8.64216 131.564 7.99714 133.004 8.377C133.649 8.5472 133.96 8.23386 134.319 7.05255C134.69 5.835 134.662 5.50514 134.188 5.50514C133.856 5.50514 133.312 5.42624 132.979 5.33036C132.646 5.23402 131.964 5.25558 131.464 5.37761ZM34.1373 9.38398C35.2555 10.5112 35.6489 13.1091 34.9716 14.8891C34.6263 15.7961 32.4661 16.9742 31.1478 16.9742C29.6767 16.9742 27.5209 14.5538 27.5209 12.9022C27.5209 8.86466 31.5163 6.74013 34.1373 9.38398ZM77.559 9.17524C79.3353 10.9667 78.7877 11.4691 75.0571 11.4691C73.1807 11.4691 71.6454 11.2906 71.6454 11.0722C71.6454 10.8539 72.0698 10.1313 72.5884 9.46656C73.7698 7.95172 76.2043 7.80905 77.559 9.17524ZM117.453 8.94724C119.014 10.0496 119.59 12.4389 118.771 14.4148C117.617 17.2013 114.677 17.7775 112.551 15.6332C109.069 12.1223 113.464 6.12906 117.453 8.94724ZM144.584 8.76694C147.004 9.87898 147.427 13.5615 145.373 15.6332C143.882 17.1366 142.731 17.299 140.778 16.2801C138.42 15.0506 138.189 10.8786 140.378 9.06055C141.488 8.1389 142.989 8.0343 144.584 8.76694ZM152.161 18.9895C152.161 19.6814 153.266 20.2947 153.709 19.8479C154.308 19.2442 153.928 18.3505 153.071 18.3505C152.571 18.3505 152.161 18.6381 152.161 18.9895Z" fill="white"/>
</svg>
