<svg width="88" height="47" viewBox="0 0 88 47" fill="none" xmlns="http://www.w3.org/2000/svg">
<path fill-rule="evenodd" clip-rule="evenodd" d="M40.3576 12.7227C41.6387 13.3523 41.9059 15.0471 40.8967 16.1422C40.3498 16.7357 39.8308 16.9102 39.1104 16.743C37.7776 16.4338 37.1196 14.6913 37.8745 13.4701C38.4237 12.5815 39.4449 12.2741 40.3576 12.7227ZM39.4931 15.3797C38.8827 15.3797 38.5896 14.5872 39.0256 14.1156C39.1424 13.9892 39.3575 13.8857 39.5035 13.8857C40.0757 13.8857 40.405 14.7071 40.0182 15.1695C39.9158 15.292 39.6965 15.3797 39.4931 15.3797Z" fill="#F1F1F1"/>
<path d="M39.0256 14.1156C38.5896 14.5872 38.8827 15.3797 39.4931 15.3797C39.6965 15.3797 39.9158 15.292 40.0182 15.1695C40.405 14.7071 40.0757 13.8857 39.5035 13.8857C39.3575 13.8857 39.1424 13.9892 39.0256 14.1156Z" fill="#F1F1F1"/>
<path fill-rule="evenodd" clip-rule="evenodd" d="M52.8246 34.5666C53.683 35.0404 54.077 35.9062 53.8821 36.8899C53.7471 37.5707 53.3605 38.0952 52.785 38.3779C51.5093 39.0049 50.1945 38.1982 50.0119 36.6764C49.8146 35.0333 51.4491 33.8073 52.8246 34.5666ZM51.4529 36.985C51.1806 36.6904 51.1822 36.2916 51.4571 35.9725C51.8758 35.4861 52.6213 35.7833 52.6213 36.4366C52.6213 37.1456 51.91 37.4795 51.4529 36.985Z" fill="#F1F1F1"/>
<path fill-rule="evenodd" clip-rule="evenodd" d="M37.3479 0.108312C35.8948 0.369989 34.3491 1.32568 33.2385 2.64912C32.2657 3.80822 31.2717 6.31904 31.2717 7.6172C31.2717 7.91036 31.2692 7.91117 30.5548 7.84474C30.0154 7.79464 29.6311 7.8367 29.0037 8.0146C27.8961 8.32868 27.1188 8.82261 26.2658 9.75428C25.566 10.5185 25.5571 10.5238 24.8319 10.6078C23.8776 10.7183 23.0557 11.0019 22.2144 11.5109C21.1562 12.1511 21.1554 12.1829 22.186 12.5461L23.0765 12.8599L23.7187 12.6258C24.1942 12.4525 24.6356 12.3917 25.4187 12.3917H26.4766L26.8616 11.706C27.8437 9.95678 29.4611 9.27391 31.6101 9.70119C32.3444 9.84714 32.5889 9.8599 32.6488 9.75509C32.6918 9.6797 32.757 9.06556 32.7935 8.39039C32.874 6.89928 33.0691 6.05311 33.5704 5.02111C34.1369 3.85442 35.0778 2.87287 36.2124 2.26459C37.1086 1.7841 37.1916 1.76227 38.2717 1.72262C39.6142 1.67332 40.3538 1.8927 41.4633 2.66923C42.3199 3.26878 42.8633 3.96026 43.5951 5.3815C43.9042 5.98197 44.1688 6.48958 44.1829 6.50946C44.1972 6.52946 44.4983 6.38765 44.8521 6.19435C45.206 6.00105 45.8526 5.71328 46.289 5.55469C48.19 4.86436 50.1379 5.43046 51.5879 7.09487C52.4073 8.0354 52.9017 9.09291 53.1181 10.3679L53.281 11.3278L53.6681 11.2305C53.8811 11.1769 54.2121 11.1319 54.4038 11.1304C54.5955 11.1289 54.7761 11.0605 54.8051 10.9785C54.8342 10.8966 54.7859 10.4585 54.6978 10.005C53.9558 6.18906 51.1583 3.65894 47.6645 3.644C46.8558 3.64055 46.5367 3.69732 45.7803 3.97946L44.8697 4.31905L44.5367 3.72973C44.3536 3.40565 43.8154 2.7252 43.3407 2.2177C41.6752 0.436873 39.5932 -0.295984 37.3479 0.108312ZM67.0137 2.43709C65.5537 2.85598 64.5275 3.52919 63.4543 4.77184C62.3117 6.09494 61.6812 7.49975 61.4147 9.31609L61.2922 10.1508L60.5186 10.1131C58.8845 10.0335 57.6948 10.5654 56.4057 11.9521C55.5865 12.8333 55.559 12.8514 55.0402 12.8514C52.6517 12.8514 50.1312 15.027 49.315 17.7931C49.0019 18.8545 48.9234 20.9298 49.1589 21.9227C49.7887 24.5788 51.4933 26.4992 53.8144 27.1677C54.2814 27.3022 56.7813 27.3291 68.932 27.3302L76.2111 27.3309L83.4902 27.3316L84.121 27.0639C85.5116 26.4742 86.6721 25.341 87.3053 23.9551C88.6852 20.9342 87.9564 17.3143 85.5897 15.4325L84.9403 14.9161L84.8867 13.5677C84.7962 11.2909 84.0796 9.51536 82.6231 7.95909C80.6984 5.90268 77.769 5.27244 75.4018 6.40546L74.9604 6.61669L74.6066 5.97657C74.1477 5.14637 72.9122 3.81834 72.1477 3.33348C71.0415 2.632 70.1332 2.35975 68.7663 2.3201C67.9873 2.29757 67.3524 2.33987 67.0137 2.43709ZM70.3248 4.22953C71.7937 4.78816 72.9029 5.94887 73.7793 7.84451C74.0151 8.35442 74.2229 8.7894 74.241 8.81112C74.2591 8.83284 74.6002 8.66609 74.9987 8.44073C76.9414 7.34219 78.5165 7.22152 80.1284 8.04804C81.1039 8.54806 82.2189 9.78462 82.7124 10.9134C83.3154 12.2926 83.4508 13.2498 83.2797 14.9232L83.1913 15.7885L83.9496 16.2382C86.0669 17.4939 86.9616 20.0781 86.1456 22.5805C85.7802 23.7007 84.8963 24.7711 83.8735 25.3316L83.2649 25.6652L69.2009 25.6964C59.9587 25.7169 54.9333 25.6874 54.543 25.6102C53.313 25.3671 52.1278 24.4767 51.3399 23.2038C50.2781 21.4886 50.3283 18.7231 51.4544 16.8985C52.4437 15.2957 53.8199 14.5926 55.995 14.5788C56.5534 14.5753 56.5543 14.5746 56.9173 13.9608C57.4138 13.1209 58.2494 12.3369 58.9504 12.0532C59.6584 11.7666 60.4247 11.7527 61.6884 12.0037C62.4105 12.147 62.6482 12.1586 62.7084 12.0531C62.7517 11.9774 62.8149 11.3835 62.8489 10.7334C62.9553 8.70034 63.3887 7.4116 64.4148 6.07759C65.8483 4.2139 68.2823 3.45288 70.3248 4.22953ZM38.2289 10.1361L37.8041 10.276V10.9902C37.8041 11.6516 37.7812 11.7206 37.4952 11.9244C37.1907 12.1412 37.1791 12.1411 36.6582 11.9191C36.3678 11.7952 36.1208 11.7086 36.1095 11.7267C35.9957 11.9085 35.4142 12.9784 35.4142 13.0061C35.4142 13.026 35.6293 13.2094 35.8922 13.4137C36.3167 13.7436 36.3701 13.8346 36.3701 14.2284C36.3701 14.6592 36.3548 14.6772 35.8315 14.8653C35.5352 14.9717 35.2733 15.1182 35.2496 15.1906C35.2259 15.263 35.2672 15.6067 35.3415 15.9543L35.4766 16.5864L36.0993 16.5495C36.6735 16.5155 36.7404 16.5378 36.9595 16.8351L37.1971 17.1574L36.9961 17.7094C36.8855 18.0129 36.795 18.2802 36.795 18.3036C36.795 18.3494 37.9314 19.0572 38.0051 19.0572C38.0299 19.0572 38.1859 18.8242 38.3519 18.5394C38.5333 18.2281 38.7102 18.0446 38.7953 18.0797C38.873 18.1116 39.0714 18.1378 39.236 18.1378C39.4989 18.1378 39.5586 18.2077 39.7263 18.7124C39.8313 19.0285 39.9647 19.2871 40.0226 19.2871C40.0806 19.2871 40.4057 19.225 40.7452 19.1492C41.4158 18.9993 41.4267 18.979 41.2588 18.1953C41.1682 17.7727 41.1834 17.715 41.4471 17.4812C41.8038 17.1649 41.9049 17.1616 42.4245 17.4483C42.6535 17.5747 42.8621 17.6782 42.8881 17.6782C42.9372 17.6782 43.5929 16.4569 43.5929 16.3654C43.5929 16.3368 43.3885 16.1546 43.1387 15.9605C42.7119 15.6289 42.6871 15.5792 42.7262 15.1365C42.7645 14.7008 42.8044 14.6481 43.2599 14.4331C43.5306 14.3053 43.7709 14.1828 43.7938 14.161C43.8167 14.1391 43.7737 13.8064 43.6982 13.4217L43.561 12.7221L43.1255 12.7951C42.886 12.8353 42.6183 12.8877 42.5307 12.9116C42.4385 12.9367 42.2559 12.7747 42.0975 12.527C41.8249 12.1013 41.8245 12.0967 42.0099 11.6421C42.1124 11.3908 42.199 11.1333 42.2023 11.0701C42.2071 10.9768 41.24 10.2082 41.1177 10.2082C41.0987 10.2082 40.922 10.4409 40.725 10.7254C40.4012 11.193 40.3247 11.2425 39.926 11.2425C39.4862 11.2425 39.4843 11.2406 39.2863 10.6105C39.0673 9.91322 38.9987 9.88242 38.2289 10.1361ZM68.4476 12.3816C67.8225 12.5925 67.814 12.6102 67.9393 13.4274C67.9954 13.7932 67.9648 13.8595 67.6129 14.1332L67.2245 14.4353L66.7104 14.1526C66.4276 13.9971 66.1856 13.8864 66.1723 13.9065C66.0794 14.048 65.4736 15.1606 65.4736 15.1896C65.4736 15.2095 65.6887 15.3929 65.9516 15.5973C66.3923 15.9397 66.4295 16.0075 66.4295 16.4694C66.4295 16.9692 66.4285 16.9706 65.8909 17.1638C65.5946 17.2702 65.3324 17.4166 65.3083 17.489C65.2842 17.5614 65.3275 17.8793 65.4046 18.1953L65.5449 18.7699L66.1631 18.733C66.7314 18.6991 66.8003 18.722 67.0169 19.0158L67.2524 19.3354L67.0535 19.9613C66.9439 20.3055 66.8544 20.6 66.8544 20.6157C66.8544 20.6541 68.0062 21.3557 68.0692 21.3557C68.0965 21.3557 68.2668 21.1229 68.4476 20.8385C68.7397 20.3792 68.8215 20.3214 69.1791 20.3214C69.5721 20.3214 69.5862 20.3363 69.7801 20.9534C69.8893 21.3011 70.0173 21.5855 70.0645 21.5855C70.1118 21.5855 70.4364 21.4994 70.786 21.3943C71.4683 21.189 71.4854 21.1582 71.3258 20.4157C71.2453 20.0406 71.2672 19.9596 71.5201 19.6974C71.8632 19.3418 71.948 19.336 72.4839 19.6318C72.7129 19.7582 72.9215 19.8617 72.9475 19.8617C72.9734 19.8617 73.1481 19.5677 73.3354 19.2085L73.6762 18.5552L73.319 18.2347C73.1226 18.0584 72.9233 17.9128 72.8762 17.9111C72.8289 17.9094 72.805 17.6917 72.8231 17.4275C72.8543 16.968 72.8789 16.9369 73.3867 16.7179C73.6788 16.5919 73.9323 16.4779 73.95 16.4645C74.0311 16.4031 73.5951 14.9206 73.4973 14.9251C73.4364 14.9278 73.1717 14.975 72.9088 15.0298C72.4545 15.1247 72.4171 15.1118 72.1544 14.7715L71.8781 14.4136L72.1388 13.7976C72.2822 13.4587 72.3827 13.1652 72.3621 13.1452C72.3415 13.1253 72.0649 12.9677 71.7475 12.7952C71.2609 12.5307 71.1526 12.507 71.0571 12.6446C70.4948 13.454 70.4239 13.5071 69.9752 13.4552C69.5522 13.4065 69.5312 13.3841 69.3424 12.7833C69.235 12.4415 69.1213 12.167 69.0895 12.1732C69.0578 12.1794 68.769 12.2731 68.4476 12.3816ZM40.3576 12.7227C41.6387 13.3523 41.9059 15.0471 40.8967 16.1422C40.3498 16.7357 39.8308 16.9102 39.1104 16.743C37.7776 16.4338 37.1196 14.6913 37.8745 13.4701C38.4237 12.5815 39.4449 12.2741 40.3576 12.7227ZM18.1119 14.0634C17.7382 14.1512 17.0212 14.4426 16.5186 14.7112C15.3848 15.317 13.9886 16.7468 13.397 17.908C12.9157 18.8528 12.5072 20.1728 12.4127 21.0893L12.3393 21.7996L11.6353 21.7382C10.1353 21.6074 8.65801 22.2626 7.38745 23.6219C6.67123 24.3881 6.56841 24.4587 6.16595 24.4603C4.964 24.4649 3.24753 25.2224 2.24208 26.192C1.44386 26.9618 0.664338 28.2538 0.294384 29.42C0.022575 30.2768 -0.00801578 30.5215 0.00143753 31.7561C0.010466 32.9139 0.0568826 33.2826 0.290879 34.0545C1.01666 36.4487 2.73982 38.2826 4.82847 38.8841C5.72388 39.1419 33.6969 39.1359 34.6131 38.8777C36.2039 38.4294 37.6401 37.1289 38.3693 35.4763C38.8653 34.3528 39.0256 33.6154 39.0256 32.4584C39.0256 30.28 37.9701 28.0234 36.4071 26.8598L35.9453 26.5161L35.9444 25.7459C35.9428 24.1738 35.5427 22.5125 34.8641 21.2597C34.3244 20.2635 32.9548 18.8393 32.0471 18.3303C30.2276 17.3101 28.2109 17.192 26.4751 18.0041L25.9802 18.2356L25.5456 17.5084C25.3065 17.1085 24.7454 16.4119 24.2988 15.9606C22.5894 14.2336 20.334 13.5419 18.1119 14.0634ZM70.609 15.0776C71.4569 15.58 71.8019 16.8466 71.3632 17.8467C70.9798 18.721 69.8736 19.2428 69.0372 18.9441C67.1607 18.2741 67.1736 15.3888 69.0553 14.858C69.6524 14.6895 70.0488 14.7456 70.609 15.0776ZM21.1811 15.8447C22.0545 16.1203 23.0596 16.8313 23.6614 17.5992C23.9183 17.9271 24.381 18.6866 24.6896 19.2871C24.9981 19.8875 25.2621 20.395 25.2762 20.4149C25.2903 20.4348 25.6347 20.2696 26.0414 20.0481C27.2064 19.4134 27.9813 19.1721 28.8561 19.1721C30.3535 19.1721 31.5507 19.7282 32.614 20.9177C33.3179 21.7049 33.647 22.2912 34.0042 23.3933C34.266 24.2012 34.2931 24.4356 34.2892 25.8571L34.2851 27.4281L34.7169 27.6845C35.2147 27.9803 35.9955 28.6383 36.3437 29.0554C36.7349 29.5242 37.3244 30.9048 37.4232 31.5834C37.5943 32.7591 37.2674 34.2779 36.6137 35.3457C36.1923 36.0339 35.693 36.4947 34.8723 36.9525L34.2989 37.2723H19.7472H5.19545L4.48592 36.9086C1.27657 35.2636 0.562582 30.4307 3.12422 27.6905C3.46709 27.3238 3.9936 26.9188 4.39882 26.7102C5.0204 26.3902 5.20841 26.3508 6.28385 26.3161L7.47848 26.2775L7.77089 25.8112C8.28562 24.9904 8.94629 24.277 9.48598 23.9591C10.2784 23.4925 11.4714 23.3617 12.7023 23.6065C13.4405 23.7533 13.6822 23.7657 13.7426 23.6598C13.786 23.5841 13.8504 22.9441 13.8859 22.2377C13.9215 21.5314 14.0211 20.6758 14.1075 20.3364C14.7526 17.8002 16.7202 15.8847 18.9505 15.6214C19.8147 15.5193 20.3059 15.5685 21.1811 15.8447ZM69.111 16.3278C68.7925 16.7585 68.8772 17.3199 69.2974 17.5632C69.4497 17.6514 69.6047 17.6384 69.8791 17.5143C70.2057 17.3667 70.2533 17.2941 70.2533 16.9452C70.2533 16.7253 70.1782 16.4641 70.0865 16.3647C69.8871 16.1491 69.2606 16.1253 69.111 16.3278ZM46.9779 23.2042C45.9946 23.9288 45.1255 25.0549 44.5465 26.3548C44.0696 27.4255 43.6991 28.7764 43.6991 29.4449C43.6991 29.7286 43.6917 29.7309 42.9821 29.6667C42.3005 29.605 41.4924 29.7489 40.7179 30.07C40.449 30.1814 40.4465 30.193 40.5445 30.9121C40.5517 30.9653 40.5585 31.0158 40.565 31.0637C40.6374 31.6007 40.6654 31.8081 40.762 31.8487C40.8229 31.8742 40.9109 31.8337 41.0543 31.7676C41.0746 31.7583 41.0961 31.7484 41.1187 31.7382C41.8617 31.4011 42.9715 31.3244 44.0375 31.5364C44.7735 31.6827 45.0162 31.6952 45.0764 31.5898C45.1196 31.5142 45.1828 30.9203 45.2168 30.2702C45.2924 28.8285 45.5138 27.8566 45.9914 26.8719C46.3455 26.1418 47.1421 25.1245 47.7975 24.5657L48.1251 24.2862L47.8488 23.5261L47.5725 22.766L46.9779 23.2042ZM37.4885 24.1425C37.5251 24.5376 37.5738 24.9255 37.5966 25.0044C37.6284 25.1145 38.2832 25.1481 40.3993 25.1481C43.1555 25.1481 43.1608 25.1476 43.2837 24.8895C43.3513 24.7472 43.5935 24.3594 43.8219 24.0276L44.2371 23.4242H40.8294H37.4218L37.4885 24.1425ZM19.3223 24.0424L18.8974 24.1833L18.9142 24.8697C18.9302 25.5231 18.9146 25.5677 18.5917 25.7967C18.2542 26.0361 18.2502 26.0362 17.7379 25.8185C17.4547 25.6982 17.2139 25.6144 17.2026 25.6325C17.1914 25.6505 17.025 25.947 16.8329 26.2914L16.4834 26.9176L16.7345 27.1383C16.8726 27.2595 17.0958 27.453 17.2306 27.568C17.4347 27.7423 17.4639 27.8445 17.4055 28.1811C17.3432 28.5411 17.279 28.6054 16.8165 28.7716C16.5311 28.8742 16.2758 28.9962 16.2491 29.043C16.2225 29.0897 16.2806 29.4505 16.3782 29.8451L16.5558 30.5622L17.2072 30.4867C17.8376 30.4136 17.8655 30.4217 18.0759 30.7413C18.2679 31.0331 18.2773 31.1123 18.1573 31.4212L18.1475 31.4465C17.9876 31.8578 17.9122 32.0518 17.9656 32.1976C18.0133 32.3277 18.1635 32.4194 18.4478 32.5929L18.4676 32.605C18.7898 32.8018 19.0738 32.9628 19.0985 32.9628C19.1233 32.9628 19.2793 32.7281 19.4453 32.4414C19.6791 32.0375 19.7951 31.9334 19.9596 31.9801C20.0764 32.0132 20.2747 32.041 20.4004 32.0418C20.5776 32.043 20.6714 32.172 20.8196 32.618C20.9247 32.934 21.0581 33.1926 21.116 33.1926C21.174 33.1926 21.4991 33.1306 21.8386 33.0547L21.8402 33.0543C22.1512 32.9848 22.3173 32.9477 22.3911 32.8437C22.4757 32.7244 22.4387 32.5169 22.359 32.0714L22.3586 32.0694C22.2759 31.6063 22.2894 31.5638 22.5923 31.3304C22.9054 31.0892 22.9268 31.0878 23.4159 31.2758C23.6922 31.3819 23.9431 31.4688 23.9734 31.4688C24.0038 31.4688 24.1808 31.1772 24.3667 30.8209C24.635 30.3066 24.6753 30.1521 24.5626 30.0718C24.4846 30.0162 24.2625 29.8619 24.069 29.7291C23.8459 29.576 23.7391 29.4262 23.7769 29.3196C23.8097 29.2272 23.8365 29.0221 23.8365 28.8637C23.8365 28.6273 23.9314 28.5325 24.3676 28.3333C24.952 28.0661 24.9761 27.9957 24.7764 27.1381L24.6543 26.613L24.0434 26.6821C23.4493 26.7492 23.4257 26.741 23.1728 26.3805C22.9146 26.0123 22.914 26.0071 23.1013 25.5503C23.205 25.2975 23.2932 25.0368 23.2976 24.9712C23.3019 24.9055 23.0347 24.6834 22.7037 24.4779C22.2383 24.1886 22.0816 24.1376 22.0114 24.2525C21.9616 24.3342 21.8193 24.5742 21.6952 24.7857C21.4995 25.1195 21.4278 25.1613 21.1528 25.1018C20.9785 25.0641 20.7749 25.0332 20.7005 25.0332C20.626 25.0332 20.4792 24.7746 20.3742 24.4585C20.1634 23.8246 20.0795 23.7914 19.3223 24.0424ZM21.5497 26.6745C22.9203 27.5143 22.864 29.754 21.455 30.4464C19.9183 31.2016 18.2798 29.8124 18.6848 28.0978C18.7569 27.7924 18.9105 27.4046 19.026 27.2359C19.5768 26.4321 20.734 26.1746 21.5497 26.6745ZM20.1189 28.0211C19.6807 28.4953 20.0088 29.2853 20.644 29.2853C20.9959 29.2853 21.2873 28.9353 21.2873 28.5126C21.2873 28.1663 20.9284 27.7913 20.5969 27.7913C20.4509 27.7913 20.2358 27.8947 20.1189 28.0211ZM64.5534 29.5438C64.9201 30.0725 65.32 30.9697 65.5189 31.7104C65.7262 32.4817 65.7654 33.314 65.6481 34.4581L65.5596 35.3215L66.0211 35.5997C68.1062 36.8562 69.0207 38.6428 68.7545 40.9397C68.5521 42.6867 67.6296 44.1439 66.2702 44.8642L65.6329 45.202H51.0812H36.5295L35.8022 44.8293C34.5613 44.1934 33.4504 42.7362 33.0839 41.263L32.963 40.7775H32.1656H31.3683L31.439 41.2084C31.5475 41.8694 32.0595 43.2388 32.4354 43.8724C33.2206 45.1962 34.7575 46.4092 36.1625 46.8137C37.0072 47.0569 65.129 47.0645 65.9717 46.8217C67.4553 46.3944 69.0478 44.988 69.6927 43.5356C70.3564 42.0411 70.5391 40.2941 70.1963 38.7207C69.8806 37.2721 68.8484 35.6138 67.7562 34.8007L67.3093 34.4681L67.2514 33.1695C67.1904 31.8026 66.9516 30.7488 66.4687 29.7162L66.2135 29.1703H65.2539H64.2944L64.5534 29.5438ZM51.4571 35.9725C51.1822 36.2916 51.1806 36.6904 51.4529 36.985C51.91 37.4795 52.6213 37.1456 52.6213 36.4366C52.6213 35.7833 51.8758 35.4861 51.4571 35.9725Z" fill="#F1F1F1"/>
<path fill-rule="evenodd" clip-rule="evenodd" d="M50.6563 31.972L50.2314 32.1129L50.2481 32.7984C50.2637 33.4403 50.2443 33.4997 49.9414 33.7325L49.6178 33.9812L49.0876 33.755C48.796 33.6307 48.5482 33.5438 48.5369 33.5619C48.4231 33.7437 47.8416 34.8136 47.8416 34.8413C47.8416 34.8612 48.0567 35.0446 48.3195 35.2489C48.7441 35.5787 48.7975 35.6698 48.7975 36.0636C48.7975 36.4943 48.7822 36.5124 48.2589 36.7005C47.9625 36.8069 47.7007 36.9533 47.677 37.0257C47.6532 37.0981 47.6945 37.4419 47.7686 37.7895L47.9035 38.4216L48.5508 38.3852C49.1578 38.3512 49.2113 38.3693 49.4126 38.6751C49.6019 38.9627 49.6111 39.0425 49.4913 39.3508L49.4815 39.3761C49.3216 39.7875 49.2462 39.9814 49.2996 40.1272C49.3473 40.2573 49.4975 40.349 49.7818 40.5226L49.8016 40.5346C50.1238 40.7314 50.4078 40.8924 50.4325 40.8924C50.4573 40.8924 50.6133 40.6577 50.7793 40.371C51.0131 39.9671 51.1291 39.863 51.2936 39.9097C51.4105 39.9428 51.6088 39.9706 51.7344 39.9714C51.9116 39.9727 52.0054 40.1016 52.1536 40.5476C52.2587 40.8637 52.3921 41.1222 52.45 41.1222C52.508 41.1222 52.8331 41.0602 53.1726 40.9843L53.1742 40.984C53.4852 40.9145 53.6513 40.8773 53.7251 40.7733C53.8097 40.654 53.7727 40.4466 53.693 40.0011L53.6926 39.999C53.6099 39.536 53.6234 39.4934 53.9263 39.26C54.2394 39.0188 54.2608 39.0174 54.7499 39.2054C55.0262 39.3115 55.2771 39.3984 55.3074 39.3984C55.3378 39.3984 55.5148 39.1068 55.7007 38.7505C55.969 38.2362 56.0093 38.0817 55.8966 38.0014C55.8186 37.9458 55.6079 37.7993 55.4285 37.6758C55.1277 37.4689 55.107 37.4137 55.163 36.968C55.2199 36.5142 55.2561 36.4705 55.7547 36.2551C56.0468 36.1289 56.3014 36.0134 56.3205 35.9984C56.3397 35.9836 56.2719 35.65 56.17 35.2572L55.9848 34.5429L55.3757 34.6118C54.7836 34.6788 54.7595 34.6704 54.5068 34.3101C54.2486 33.9419 54.248 33.9367 54.4353 33.4799C54.539 33.2271 54.6264 32.9685 54.6297 32.9053C54.633 32.8421 54.3892 32.6159 54.088 32.4028C53.6287 32.0778 53.5219 32.0418 53.426 32.1798C52.7956 33.0875 52.7905 33.0914 52.3291 33.0115C51.9197 32.9406 51.8775 32.8977 51.7036 32.3745C51.4979 31.7554 51.4107 31.722 50.6563 31.972ZM53.8821 36.8899C54.077 35.9062 53.683 35.0404 52.8246 34.5666C51.4491 33.8073 49.8146 35.0333 50.0119 36.6764C50.1945 38.1982 51.5093 39.0049 52.785 38.3779C53.3605 38.0952 53.7471 37.5707 53.8821 36.8899Z" fill="#F1F1F1"/>
<path fill-rule="evenodd" clip-rule="evenodd" d="M21.5497 26.6745C22.9203 27.5143 22.864 29.754 21.455 30.4464C19.9183 31.2016 18.2798 29.8124 18.6848 28.0978C18.7569 27.7924 18.9105 27.4046 19.026 27.2359C19.5768 26.4321 20.734 26.1746 21.5497 26.6745ZM20.644 29.2853C20.0088 29.2853 19.6807 28.4953 20.1189 28.0211C20.2358 27.8947 20.4509 27.7913 20.5969 27.7913C20.9284 27.7913 21.2873 28.1663 21.2873 28.5126C21.2873 28.9353 20.9959 29.2853 20.644 29.2853Z" fill="#F1F1F1"/>
<path fill-rule="evenodd" clip-rule="evenodd" d="M70.609 15.0776C71.4569 15.58 71.8019 16.8466 71.3632 17.8467C70.9798 18.721 69.8736 19.2428 69.0372 18.9441C67.1607 18.2741 67.1736 15.3888 69.0553 14.858C69.6524 14.6895 70.0488 14.7456 70.609 15.0776ZM69.2974 17.5632C68.8772 17.3199 68.7925 16.7585 69.111 16.3278C69.2606 16.1253 69.8871 16.1491 70.0865 16.3647C70.1782 16.4641 70.2533 16.7253 70.2533 16.9452C70.2533 17.2941 70.2057 17.3667 69.8791 17.5143C69.6047 17.6384 69.4497 17.6514 69.2974 17.5632Z" fill="#F1F1F1"/>
</svg>
