<svg width="155" height="33" viewBox="0 0 155 33" fill="none" xmlns="http://www.w3.org/2000/svg">
<path d="M0 8V16H8H16V8V0H8H0V8Z" fill="white"/>
<path d="M17.0875 0.0874996C17.0375 0.125 17 3.725 17 8.0875V16H25H33V8V0H25.0875C20.725 0 17.125 0.0374994 17.0875 0.0874996Z" fill="white"/>
<path d="M144.03 6.06834C142.857 6.31885 141.826 6.98688 141.199 7.90542C140.547 8.87168 140.405 9.40849 140.322 11.1979L140.251 12.8083L139.125 12.8679L138 12.9276V14.1205V15.3134L139.125 15.373L140.251 15.4327L140.286 21.0632L140.31 26.7057H141.85H143.39L143.414 21.0632L143.449 15.4327H145.937H148.425L148.496 19.6675C148.579 24.5585 148.638 24.9044 149.503 25.8707C150.095 26.5268 150.664 26.8011 151.73 26.9443C152.607 27.0755 153.744 26.9681 154.621 26.6938L155 26.5626V25.3458V24.1171L154.337 24.3437C153.211 24.7255 152.311 24.4392 151.825 23.5683C151.647 23.2224 151.624 22.7572 151.624 19.3097V15.4327L153.318 15.3969L155 15.3611V14.1205V12.8799L153.318 12.8441L151.624 12.8083L151.588 10.8042C151.576 9.70672 151.517 8.81203 151.47 8.81203C151.422 8.81203 150.747 9.01483 149.965 9.26534L148.544 9.71865L148.508 11.2933L148.472 12.8679L145.961 12.8441L143.449 12.8083L143.414 11.6869C143.39 10.9473 143.438 10.3628 143.568 9.9453C143.935 8.65695 145.108 8.15593 146.684 8.64503C146.944 8.7166 146.944 8.7166 146.944 7.46404C146.944 6.72444 146.897 6.1757 146.826 6.12798C146.613 5.99676 144.551 5.94905 144.03 6.06834Z" fill="white"/>
<path d="M68.8505 6.28323C68.0668 6.79035 67.7585 8.05129 68.2081 8.9833C68.8891 10.3813 71.1246 10.3265 71.7927 8.88736C72.2295 7.96906 71.9597 6.9 71.1374 6.32435C70.5593 5.91317 69.4415 5.88576 68.8505 6.28323Z" fill="white"/>
<path d="M43 15.9938V26L44.476 25.963L45.94 25.926L45.976 18.2394C46 12.1197 46.036 10.5651 46.156 10.5651C46.24 10.5651 47.548 13.7236 49.312 18.2394L52.324 25.926L53.452 25.963L54.592 26L55.684 23.1869C56.272 21.6447 57.616 18.1653 58.66 15.4633C59.86 12.3418 60.616 10.5651 60.712 10.5651C60.856 10.5651 60.88 11.8359 60.88 18.2764V25.9877H62.44H64V15.9938V6L61.768 6.02468L59.524 6.06169L56.62 13.4028C54.952 17.5854 53.632 20.7563 53.548 20.781C53.428 20.7933 52.504 18.5231 50.548 13.4399L47.716 6.06169L45.364 6.02468L43 6V15.9938Z" fill="white"/>
<path d="M79.3301 12.2207C76.8966 12.8828 75.1796 14.5069 74.389 16.8931C74.0308 17.955 73.8825 20.3411 74.1049 21.5279C74.3149 22.6898 75.1302 24.2389 75.9701 25.0759C77.3289 26.4376 78.8607 27.0123 81.0965 26.9998C82.5171 26.9873 83.1594 26.8874 84.2959 26.4501L84.9876 26.2003V24.7511C84.9876 23.964 84.9506 23.3394 84.9012 23.3644C83.1594 24.2639 82.1465 24.5262 80.9483 24.3513C78.8977 24.0515 77.5884 22.6523 77.3166 20.4535C76.9954 17.8675 78.1195 15.6063 80.1083 14.8567C80.726 14.6194 81.0348 14.5819 81.9612 14.6194C82.9371 14.6568 83.1965 14.7193 84.0365 15.1316L85 15.5813L84.9629 14.0697L84.9259 12.5455L84.1847 12.3082C83.0606 11.9334 80.516 11.8959 79.3301 12.2207Z" fill="white"/>
<path d="M93.1443 12.0402C92.8818 12.0879 92.5239 12.1834 92.333 12.255C91.8319 12.4697 90.8775 13.4123 90.6389 13.9492C90.2809 14.7487 90.1139 14.5697 90.0781 13.3169L90.0423 12.2192H88.551H87.0597L87.0239 19.1036L87 26H88.5391H90.09L90.1258 21.7882C90.1616 17.6957 90.1736 17.5645 90.448 16.8844C90.7701 16.073 91.3905 15.3452 92.0228 15.0111C92.5716 14.7367 93.6692 14.7129 94.3732 14.9515C94.6356 15.0469 94.8862 15.0947 94.922 15.0589C95.0651 14.9038 94.9935 12.3146 94.8504 12.1953C94.6356 12.0283 93.705 11.9448 93.1443 12.0402Z" fill="white"/>
<path d="M100.937 12.2501C98.4995 12.9229 96.7876 14.7546 96.2051 17.3089C95.9316 18.4927 95.9316 20.885 96.2051 21.9566C96.8351 24.4113 98.4876 26.1433 100.806 26.7912C101.84 27.0778 104.039 27.0653 105.062 26.7787C106.274 26.4423 107.19 25.8816 108.058 24.972C108.902 24.0873 109.544 22.8787 109.841 21.5953C110.079 20.586 110.043 17.8821 109.781 16.8604C109.163 14.468 107.534 12.7734 105.3 12.2002C104.206 11.9137 102.066 11.9386 100.937 12.2501ZM104.788 14.9664C106.286 15.7763 106.952 17.446 106.821 20.0128C106.714 22.1684 106.025 23.4768 104.681 24.0873C103.849 24.4736 102.28 24.486 101.483 24.1122C99.8547 23.3646 98.9869 21.4333 99.1652 18.9911C99.3435 16.7482 100.152 15.3901 101.709 14.792C102.399 14.5178 104.158 14.6175 104.788 14.9664Z" fill="white"/>
<path d="M115.351 12.1872C113.978 12.5858 112.936 13.4328 112.391 14.6036C112.095 15.2139 112.059 15.4381 112.071 16.4222C112.071 18.5023 112.616 19.1749 115.47 20.6571C117.578 21.7533 117.921 22.0771 117.921 22.9615C117.921 24.5807 115.695 25.0167 113.243 23.8832C112.722 23.6465 112.225 23.4099 112.154 23.3725C112.036 23.3227 112 23.659 112 24.8049V26.2872L112.628 26.4865C114.262 27.0221 116.145 27.1466 117.447 26.8228C119.603 26.2872 121 24.6306 121 22.6003C121 20.6198 120.112 19.5361 117.447 18.2905C116.761 17.9667 116.026 17.593 115.825 17.4435C114.783 16.7086 114.878 15.3011 115.991 14.7282C116.453 14.4915 116.666 14.4666 117.495 14.5164C118.371 14.5787 118.845 14.7157 120.147 15.326C120.254 15.3759 120.289 15.052 120.289 13.9434V12.511L119.839 12.374C118.359 11.963 116.453 11.8758 115.351 12.1872Z" fill="white"/>
<path d="M128.321 12.0778C126.248 12.5387 124.589 13.8215 123.759 15.6025C123.155 16.9102 122.989 17.7945 123.001 19.6751C123.012 21.1199 123.06 21.4935 123.309 22.3155C124.02 24.5698 125.584 26.1142 127.741 26.712C130.443 27.4468 133.299 26.7494 135.017 24.9185C136.261 23.5859 136.866 22.0291 136.984 19.7997C137.138 16.9102 136.166 14.4318 134.341 13.124C133.168 12.2771 132.386 12.0529 130.455 12.0031C129.542 11.9907 128.582 12.0156 128.321 12.0778ZM131.485 14.8179C133.109 15.453 133.95 17.3461 133.796 19.9616C133.666 22.0913 132.955 23.4489 131.675 24.0343C130.798 24.4328 129.281 24.4453 128.44 24.0467C126.828 23.2994 126.046 21.5932 126.165 19.1147C126.236 17.6575 126.342 17.234 126.864 16.3124C127.267 15.6025 128.084 14.9175 128.784 14.7058C129.471 14.494 130.81 14.5563 131.485 14.8179Z" fill="white"/>
<path d="M68.0824 12.0514C68.0353 12.0998 68 15.2518 68 19.068V26L69.5059 25.9638L71 25.9275V18.9835V12.0394L69.5765 12.0031C68.8 11.9911 68.1294 12.0152 68.0824 12.0514Z" fill="white"/>
<path d="M0 25V33H8H16V25V17H8H0V25Z" fill="white"/>
<path d="M17.025 24.9625L17.0625 32.9375L25.0375 32.975L33 33V25V17H25H17L17.025 24.9625Z" fill="white"/>
</svg>
