<svg width="143" height="19" viewBox="0 0 143 19" fill="none" xmlns="http://www.w3.org/2000/svg">
<path fill-rule="evenodd" clip-rule="evenodd" d="M65.6359 0.0504622C65.2035 0.134888 64.6842 0.417893 64.3608 0.745402C64.1425 0.96649 62.6408 3.32698 58.5055 9.94933C55.4466 14.8479 52.9193 18.8884 52.8893 18.9282C52.8456 18.9862 53.2486 18.9975 54.9245 18.9854L57.0143 18.9704L57.6341 17.9681C57.975 17.4168 60.0381 14.0721 62.2187 10.5353C64.3993 6.99866 66.1899 4.1119 66.1977 4.12032C66.2369 4.16254 71.1079 12.2218 71.1315 12.2834C71.1533 12.3403 70.2005 12.355 66.4806 12.355C63.9076 12.355 61.8024 12.3713 61.8024 12.3912C61.8024 12.4112 62.262 13.1585 62.8236 14.0521L63.8448 15.6766L68.6289 15.6773L73.4131 15.678L74.3908 17.3385L75.3684 18.9991H77.4263C78.5581 18.9991 79.4842 18.9861 79.4842 18.9703C79.4842 18.9544 77.7627 16.19 75.6588 12.8273C73.5548 9.46454 71.0353 5.43735 70.0599 3.87799C69.0529 2.26811 68.1753 0.926568 68.0292 0.773868C67.4371 0.154992 66.5201 -0.122113 65.6359 0.0504622ZM8.36528 0.190561C7.15688 0.315711 6.25869 0.535425 5.34931 0.928344C2.92231 1.97697 1.08738 4.02204 0.18454 6.68455L0 7.22868V9.57703V11.9254L0.207761 12.5396C0.722492 14.0611 1.52052 15.3352 2.63526 16.4151C4.10145 17.8354 5.96576 18.7056 8.04136 18.9382C8.76397 19.0192 19.7725 19.0212 20.5716 18.9405C21.2483 18.8722 22.3748 18.5995 22.9552 18.3635C24.2321 17.8442 25.149 17.227 26.1358 16.2221C27.4837 14.8498 28.2758 13.3595 28.6888 11.4193C28.795 10.9206 28.813 10.6605 28.814 9.60567C28.815 8.52898 28.7987 8.2954 28.6844 7.74709C27.8811 3.89597 25.0456 1.05407 21.2687 0.314795C20.6618 0.19606 20.5073 0.192967 14.6043 0.181741C11.2805 0.17544 8.473 0.17945 8.36528 0.190561ZM30.9711 9.5752V18.9991H32.7337H34.4963V11.2381V3.47705L40.4975 3.47802C47.1448 3.47917 46.9292 3.46788 47.6419 3.85124C49.2793 4.73198 49.7324 6.88393 48.6043 8.42216C48.3828 8.72423 47.8537 9.16 47.5376 9.30084C46.887 9.59072 47.2061 9.57445 41.5785 9.60538L36.3227 9.63431L41.5785 14.3137L46.8344 18.9931L49.3984 18.9961L51.9625 18.9991L50.3471 17.6101C49.4586 16.8461 47.8718 15.4866 46.8209 14.5887C45.7699 13.6909 44.9087 12.9397 44.907 12.9194C44.9053 12.8991 45.4894 12.8706 46.2049 12.856C47.3259 12.833 47.5712 12.8115 47.978 12.6999C50.9033 11.8978 52.8029 9.27552 52.6651 6.22966C52.6226 5.2886 52.4409 4.56628 52.0377 3.73479C51.6712 2.97903 51.3272 2.49939 50.7411 1.92685C49.8895 1.09479 48.9102 0.569619 47.6737 0.281918C47.3275 0.201329 46.3361 0.188499 39.1266 0.171087L30.9711 0.151327V9.5752ZM85.8445 0.21582C82.7629 0.49556 79.8978 2.47608 78.5163 5.28127C77.806 6.72378 77.5066 7.99751 77.5066 9.57703C77.5066 10.5395 77.5708 11.0585 77.8055 11.9914C78.6018 15.1565 81.0643 17.7277 84.1564 18.6228C85.3751 18.9755 85.051 18.9602 91.7384 18.9799L97.8654 18.9979L98.887 17.3517L99.9086 15.7056L92.9278 15.6763L85.947 15.6468L85.5274 15.5209C84.3068 15.1547 83.4229 14.6219 82.6565 13.7902C80.8998 11.884 80.5095 9.10988 81.6728 6.7991C82.3647 5.42486 83.6066 4.322 85.0238 3.82323C85.9432 3.49967 85.6559 3.51416 91.8451 3.48003L97.5753 3.44841L98.5192 1.95921C99.0383 1.14015 99.5008 0.399163 99.547 0.312504L99.6309 0.154992L92.9848 0.162954C89.3294 0.167364 86.1163 0.191134 85.8445 0.21582ZM101.6 8.93266L101.614 17.7103L101.743 17.9563C101.941 18.3355 102.237 18.6363 102.585 18.8112L102.901 18.9704L111.211 18.9825L119.52 18.9945L120.527 17.3905C121.081 16.5083 121.543 15.7619 121.553 15.7318C121.565 15.6971 118.551 15.677 113.342 15.677H105.112V7.916V0.154992H103.348H101.585L101.6 8.93266ZM129.354 0.216279C126.384 0.510223 123.683 2.32418 122.213 5.01172C120.466 8.20651 120.718 12.1908 122.858 15.1733C123.386 15.91 124.342 16.8431 125.091 17.3534C126.465 18.2903 127.862 18.7951 129.487 18.9428C129.913 18.9814 132.092 18.9972 135.55 18.9867L140.947 18.9704L141.974 17.338L143 15.7056L136.128 15.6745C130.919 15.6508 129.195 15.6261 129.004 15.5724C127.24 15.0754 126.038 14.1998 125.166 12.7757C124.907 12.3534 124.531 11.487 124.529 11.3097C124.528 11.2147 124.926 11.2094 132.101 11.2094H139.674L140.686 9.59135L141.698 7.97328L133.113 7.95879C128.391 7.95082 124.528 7.92265 124.528 7.89613C124.528 7.76382 124.779 7.12959 125 6.70505C125.783 5.19919 127.121 4.13115 128.838 3.64332L129.312 3.50861L134.988 3.47848L140.664 3.44841L141.634 1.90194C142.167 1.05137 142.629 0.310384 142.661 0.255227C142.715 0.159975 142.396 0.155393 136.267 0.162782C132.719 0.167078 129.608 0.191134 129.354 0.216279ZM21.3024 3.66033C23.0489 4.15068 24.4128 5.28384 25.1838 6.88502C25.6384 7.82928 25.7819 8.45452 25.7884 9.51975C25.7939 10.4213 25.7472 10.7548 25.5118 11.4958C25.2146 12.4312 24.7747 13.1494 24.0363 13.9046C23.2445 14.7145 22.4149 15.2011 21.2897 15.5157L20.8153 15.6484H14.7442C8.97542 15.6484 8.65211 15.643 8.25338 15.5401C5.95407 14.9468 4.2339 13.1356 3.76583 10.8153C3.60619 10.024 3.64587 8.7106 3.8515 7.97918C4.39824 6.03411 5.81597 4.48157 7.63787 3.83274C7.89946 3.73955 8.30234 3.63198 8.53315 3.59366C8.76397 3.55535 8.99058 3.51594 9.03675 3.50603C9.08291 3.49618 11.7394 3.49251 14.94 3.49795L20.7593 3.50786L21.3024 3.66033Z" fill="white"/>
</svg>
