<svg width="90" height="28" viewBox="0 0 90 28" fill="none" xmlns="http://www.w3.org/2000/svg">
<path fill-rule="evenodd" clip-rule="evenodd" d="M18.418 13.8146V27.6292H21.3028H24.1875V13.8146V0H21.3028H18.418V13.8146ZM70.3435 13.8146V27.6292H73.2269H76.1104L76.1394 23.5574L76.1685 19.4855L79.4971 23.5559L82.8256 27.6263L86.4728 27.6277C89.9104 27.6291 90.1114 27.6183 89.9678 27.4401C89.8133 27.2483 82.1284 18.4422 81.7565 18.0309C81.5565 17.8097 81.6074 17.7451 85.4906 13.2779C87.6557 10.787 89.4273 8.72928 89.4273 8.70527C89.4273 8.68126 87.8671 8.66163 85.96 8.66185L82.4928 8.66218L79.3306 12.4L76.1685 16.138L76.1401 8.06892L76.1116 0H73.2276H70.3435V13.8146ZM6.37974 8.37646C3.56256 8.91885 1.54001 10.4708 0.770674 12.6805C0.143352 14.4825 0.511822 16.5636 1.68203 17.8262C2.75083 18.9794 4.06284 19.551 7.43411 20.3325C9.85198 20.8931 10.5897 21.2071 10.8315 21.7788C11.1624 22.5616 10.6097 23.3094 9.45466 23.6411C8.95626 23.7843 8.54175 23.8084 7.43711 23.7587C5.41956 23.6677 3.65143 23.1473 2.16301 22.2064L1.57263 21.8332L0.786317 23.6431C0.353826 24.6386 0 25.5145 0 25.5897C0 25.7388 1.28016 26.4929 2.16356 26.8641C3.87333 27.5827 6.07107 27.983 8.32139 27.9857C10.2743 27.9881 11.1791 27.8076 12.6075 27.1305C14.6329 26.1704 15.7897 24.6664 16.0846 22.6094C16.4103 20.3379 15.3329 18.4131 13.1032 17.2831C12.0383 16.7435 11.1368 16.4285 8.96625 15.8373C7.25482 15.3714 6.75553 15.1895 6.19567 14.8282C5.16082 14.1603 5.47559 12.9779 6.80435 12.5419C7.2375 12.3997 7.6052 12.3729 8.47839 12.4203C9.90801 12.4978 11.2324 12.8726 12.7809 13.6377L13.9672 14.2241L14.7426 12.3152L15.5182 10.4063L15.0542 10.072C14.1374 9.41168 12.8477 8.88278 11.3171 8.53939C10.0632 8.25805 7.44365 8.17166 6.37974 8.37646ZM33.8244 8.38151C29.3467 9.30632 26.2777 13.6547 26.5528 18.685C26.7041 21.4512 27.735 23.7851 29.6035 25.5916C30.4291 26.3897 30.9987 26.7813 32.0297 27.2594C34.8841 28.5829 38.584 28.09 40.5768 26.1206L41.1632 25.5413V26.5852V27.6292H44.0479H46.9327V18.1453V8.66152H44.0479H41.1632V9.71078V10.76L40.6361 10.2054C39.5102 9.02027 37.7934 8.33568 35.782 8.26945C35.0123 8.24413 34.2892 8.28557 33.8244 8.38151ZM57.7682 8.33041C53.564 9.08594 50.3701 12.1464 49.5348 16.2194C49.2824 17.4507 49.3604 19.6685 49.6949 20.7727C50.7877 24.3793 53.6507 27.0305 57.3048 27.8198C58.3162 28.0382 60.4023 28.0382 61.4138 27.8198C63.9235 27.2777 66.0949 25.8457 67.5839 23.7506L68.1249 22.9893L67.8196 22.808C67.6516 22.7083 66.6215 22.1398 65.5304 21.5447L63.5467 20.4627L63.3185 20.7842C62.8927 21.3841 62.1019 22.039 61.3786 22.3908C60.7633 22.6902 60.5083 22.7479 59.6362 22.7856C58.3907 22.8395 57.6865 22.6613 56.7296 22.0502C54.3375 20.5223 53.8788 17.0941 55.7859 14.997C57.2071 13.4344 59.5578 12.9682 61.4365 13.8765C62.0364 14.1665 63.1994 15.1726 63.4278 15.5991C63.521 15.7733 63.7692 15.6638 65.7727 14.5642C67.0052 13.8878 68.0135 13.2729 68.0135 13.1975C68.0135 12.9766 66.7213 11.3457 66.1516 10.8478C64.9091 9.76198 63.3665 8.9353 61.8557 8.54586C60.8578 8.28853 58.6488 8.17209 57.7682 8.33041ZM38.4359 13.7018C39.3092 13.9989 40.0563 14.4857 40.6641 15.1537L41.1632 15.7021V18.1484V20.5946L40.5971 21.2067C40.1811 21.6564 39.7786 21.9424 39.0799 22.2845L38.1291 22.7502H36.7891C35.5561 22.7502 35.3967 22.7259 34.7912 22.4457C32.8876 21.5648 31.8405 19.819 31.9831 17.7635C32.1252 15.7145 33.7085 13.9069 35.7265 13.4895C36.4334 13.3432 37.6658 13.4398 38.4359 13.7018Z" fill="white"/>
</svg>
