<svg width="125" height="37" viewBox="0 0 125 37" fill="none" xmlns="http://www.w3.org/2000/svg">
<path fill-rule="evenodd" clip-rule="evenodd" d="M37.388 13.7954V27.5907H39.894H42.4V13.7954V0H39.894H37.388V13.7954ZM88.4909 13.7954V27.5907H90.9967H93.5025L93.5149 22.6272L93.5275 17.6637L97.2564 22.8198L100.985 27.9761L101.384 27.8337C101.603 27.7553 102.63 27.3952 103.665 27.0334C104.701 26.6716 105.559 26.3645 105.573 26.3511C105.586 26.3376 103.904 24.2275 101.835 21.662C99.7657 19.0965 98.0727 16.9797 98.0727 16.9579C98.0727 16.9361 99.5008 15.3923 101.246 13.5273C102.992 11.6624 104.407 10.1238 104.392 10.1083C104.345 10.0617 100.762 8.52715 100.7 8.52715C100.668 8.52715 99.1458 10.2583 97.3162 12.3742L93.9898 16.2212H93.7463H93.5029V8.1106V0H90.9969H88.4909V13.7954ZM110.849 4.19541C110.35 4.37595 110.009 4.7185 109.813 5.2366C109.668 5.62184 109.696 6.15165 109.884 6.534C110.058 6.88798 110.47 7.26538 110.811 7.3826C112.081 7.81891 113.32 6.68514 112.99 5.38896C112.797 4.62985 112.231 4.16448 111.463 4.13204C111.186 4.12038 111.004 4.13925 110.849 4.19541ZM111.778 4.43838C112.206 4.56526 112.594 4.98701 112.69 5.43106C112.84 6.12416 112.532 6.82064 111.957 7.08763C111.616 7.24578 111.163 7.24622 110.824 7.08876C109.968 6.69122 109.769 5.48458 110.445 4.78638C110.824 4.39531 111.254 4.28313 111.778 4.43838ZM110.812 4.8841C110.765 4.90267 110.75 5.14011 110.75 5.83586V6.76291H110.922H111.094V6.37086V5.97881H111.287C111.573 5.97881 111.622 6.04766 111.753 6.62815C111.779 6.74233 111.809 6.76291 111.949 6.76291H112.113L112.025 6.38409C111.965 6.1248 111.902 5.97748 111.828 5.9173C111.709 5.8213 111.709 5.82115 111.864 5.74078C112.157 5.58911 112.09 5.06052 111.761 4.9234C111.597 4.85518 110.95 4.82838 110.812 4.8841ZM111.624 5.17299C111.761 5.26904 111.768 5.49109 111.637 5.60945C111.584 5.65728 111.44 5.70765 111.317 5.72143L111.094 5.74652V5.4216V5.09669H111.304C111.42 5.09669 111.564 5.13104 111.624 5.17299ZM6.48054 8.36489C6.03491 8.41169 5.20336 8.59527 4.77154 8.74219C2.59888 9.48151 1.2873 11.0099 1.07645 13.048C0.989284 13.8907 1.12215 14.7013 1.46528 15.4201C2.02476 16.5922 2.65907 17.2345 4.859 18.8567C7.53965 20.8333 7.9469 21.2225 8.20433 22.053C8.3282 22.4527 8.33656 23.1365 8.22221 23.5232C8.0267 24.1845 7.51989 24.6744 6.74686 24.9493C6.32747 25.0985 5.36812 25.1336 4.80628 25.0203C3.99148 24.8561 3.09183 24.3928 2.12706 23.6407C1.8713 23.4413 1.6461 23.2783 1.62669 23.2785C1.60729 23.2787 1.2333 23.8576 0.795682 24.565L0 25.851L0.156896 25.9854C0.787083 26.5254 2.17207 27.2839 3.0365 27.5626C4.68668 28.0947 6.67458 28.1843 8.39302 27.8042C10.4488 27.3495 11.9636 26.2963 12.7534 24.7728C13.1821 23.9457 13.3382 23.1888 13.2964 22.1386C13.2117 20.0102 12.4758 19.047 8.8637 16.3366C7.04188 14.9695 6.3233 14.3135 6.08002 13.7949C5.86701 13.3409 5.8333 12.844 5.98784 12.4356C6.19869 11.8782 6.78263 11.4101 7.46786 11.249C7.83113 11.1636 8.57713 11.1517 9.02517 11.2242C9.67668 11.3297 10.6448 11.7125 11.1841 12.0781C11.2842 12.1459 11.3817 12.1851 11.4008 12.1653C11.4676 12.0957 12.8193 9.89748 12.8193 9.85832C12.8193 9.83661 12.6589 9.72757 12.463 9.61603C11.3246 8.96811 10.0257 8.54818 8.64386 8.38141C8.25612 8.33461 6.86976 8.32402 6.48054 8.36489ZM26.0905 8.3842C25.1471 8.45629 24.0807 8.74141 23.3105 9.12743C22.4711 9.54816 21.5677 10.2604 20.8889 11.0364L20.4601 11.5267L20.4356 10.1617L20.411 8.79669H18.0033H15.5955L15.5831 22.8983L15.5708 37H18.0032H20.4356V31.0704V25.1408L21.1112 25.8172C22.7759 27.4837 24.0315 28.0318 26.1846 28.0318C29.1882 28.0318 31.7442 26.6475 33.4214 24.1125C34.3816 22.6612 34.9864 20.9735 35.1782 19.2106C35.2506 18.545 35.2515 17.0193 35.1797 16.3927C34.7777 12.8796 33.0376 10.2878 30.2369 9.03016C29.4304 8.668 28.633 8.46981 27.6342 8.38322C26.984 8.32691 26.8391 8.32696 26.0905 8.3842ZM77.8216 8.38351C76.2803 8.47476 74.956 8.93224 73.7521 9.78927C73.4967 9.97108 73.0047 10.3927 72.6588 10.7262L72.0299 11.3326V10.0769V8.82119H69.5238H67.0178V18.206V27.5907H69.5238H72.0299L72.0303 22.3103C72.0308 15.8498 72.0561 15.3231 72.415 14.2846C72.6188 13.6949 72.8282 13.367 73.3101 12.8834C73.6597 12.5325 73.8087 12.423 74.1946 12.2335C74.952 11.8617 75.2869 11.7928 76.354 11.7894C77.0903 11.787 77.3229 11.8034 77.5782 11.8755C78.9761 12.2702 79.73 13.266 79.9963 15.0695C80.0373 15.3476 80.06 17.2238 80.0744 21.5262L80.0946 27.5907H82.5773H85.0599L85.0377 20.9626C85.0185 15.2618 85.0046 14.2624 84.9381 13.8199C84.7187 12.3609 84.3957 11.4807 83.7665 10.6274C82.8259 9.35174 81.1628 8.51274 79.357 8.40297C79.1242 8.38881 78.8231 8.37038 78.688 8.362C78.5528 8.35362 78.163 8.36332 77.8216 8.38351ZM45.6086 15.3754C45.6317 22.0604 45.6346 22.1704 45.8213 23.2781C45.9278 23.9098 46.0486 24.2833 46.3527 24.9199C47.1209 26.528 48.3815 27.4631 50.3603 27.8923C50.8206 27.9922 51.0112 28.0044 52.1292 28.0058C53.2413 28.0071 53.4441 27.9948 53.9323 27.896C54.6862 27.7436 55.1468 27.5863 55.8391 27.2447C56.6201 26.8594 57.2232 26.4215 57.9864 25.6857L58.6153 25.0793V26.335V27.5907H61.0968H63.5782V18.1815V8.77219H61.0986H58.6191L58.6029 14.6897C58.5883 20.061 58.5789 20.6499 58.5012 21.0687C58.1338 23.0512 57.0407 24.2414 55.274 24.5828C54.7158 24.6907 53.7039 24.6778 53.191 24.5563C52.3567 24.3587 51.718 23.9177 51.2921 23.2451C50.9828 22.7566 50.861 22.4304 50.6916 21.6364C50.6572 21.4748 50.6295 19.2477 50.6104 15.094L50.5814 8.79669L48.0836 8.784L45.5857 8.7713L45.6086 15.3754ZM109.915 10.7026V12.388L110.099 12.4629C110.2 12.504 111.013 12.8945 111.905 13.3307C112.797 13.7668 114.179 14.4389 114.976 14.8242C115.773 15.2095 117.155 15.8795 118.047 16.3131C118.939 16.7466 120.093 17.3058 120.611 17.5557C121.13 17.8055 121.555 18.0226 121.557 18.0381C121.559 18.0535 120.869 18.4051 120.025 18.8194C119.18 19.2336 117.118 20.2478 115.443 21.0731C113.767 21.8985 111.838 22.8462 111.156 23.1792L109.915 23.7847V25.4428V27.1008L113.268 25.4275C115.113 24.5071 118.507 22.8217 120.811 21.682L125 19.6099V18.0718V16.5337L117.489 12.7754C113.358 10.7084 109.964 9.01722 109.947 9.01722C109.929 9.01722 109.915 9.77565 109.915 10.7026ZM26.1435 11.3909C26.9463 11.5474 27.5422 11.8524 28.1261 12.4055C29.1147 13.3422 29.7273 14.7936 29.9238 16.6653C29.9968 17.361 29.9546 19.1067 29.848 19.7987C29.4107 22.6375 28.147 24.5155 26.3468 25.0016C25.7791 25.155 24.7534 25.1526 24.1454 24.9966C23.598 24.8561 23.2733 24.715 22.8465 24.4319C22.461 24.1763 21.8711 23.5766 21.5911 23.1556C20.7358 21.8695 20.3255 20.0497 20.4034 17.8874C20.491 15.4518 21.1139 13.7106 22.3251 12.5149C22.9432 11.9048 23.7025 11.5124 24.5333 11.3738C24.938 11.3063 25.7542 11.3149 26.1435 11.3909Z" fill="white"/>
</svg>
