<svg width="89" height="26" viewBox="0 0 89 26" fill="none" xmlns="http://www.w3.org/2000/svg">
<path fill-rule="evenodd" clip-rule="evenodd" d="M9.43748 1.71455C11.1617 1.99246 12.4529 2.49812 13.8658 3.44861C14.4275 3.82651 14.7231 4.08415 14.7239 4.19682C14.7247 4.29134 14.6078 4.52047 14.4641 4.70599C14.3205 4.89152 13.9198 5.45235 13.5739 5.95226C13.2278 6.45227 12.8868 6.88341 12.816 6.91053C12.7452 6.93766 12.3849 6.76102 12.0152 6.518C10.404 5.45873 9.16391 5.05232 7.52635 5.04695C6.42324 5.04343 6.39272 5.04899 5.76736 5.36736C5.25482 5.62834 5.07605 5.78007 4.84905 6.14705C4.38242 6.90127 4.48976 7.93341 5.09173 8.48166C5.62766 8.96963 6.47259 9.293 8.83449 9.91401C11.7446 10.6791 13.0001 11.277 14.0817 12.4129C14.8848 13.2562 15.2115 14.049 15.332 15.4465C15.4365 16.6568 15.1403 17.8751 14.4817 18.9443C12.9647 21.4072 9.232 22.4269 5.27198 21.4601C4.03667 21.1586 2.1402 20.3537 2.24948 20.1772C2.27945 20.1289 2.24818 20.1105 2.18009 20.1367C1.93481 20.2306 -0.0825415 18.7012 0.00262022 18.4858C0.110881 18.2121 0.836239 17.4077 0.925297 17.4626C0.97966 17.4962 0.99775 17.4808 0.965374 17.4286C0.900343 17.3235 2.05773 15.9212 2.2095 15.9212C2.26182 15.9212 2.55079 16.1199 2.85164 16.3628C4.36442 17.5843 6.0273 18.2626 7.80772 18.3843C8.84979 18.4555 9.57265 18.3293 10.3652 17.9375C10.6968 17.7735 11.0026 17.6497 11.0446 17.6621C11.0867 17.6746 11.0953 17.6429 11.0636 17.5918C11.0319 17.5407 11.096 17.3775 11.2059 17.2291C11.6509 16.6286 11.611 15.5013 11.1249 14.9372C10.9877 14.7778 10.5787 14.4991 10.2161 14.3177C9.58823 14.0038 9.12216 13.8591 6.32407 13.1094C2.35524 12.046 0.774921 10.4344 0.774921 7.45035C0.774921 6.31952 0.915559 5.70369 1.3859 4.77376C1.71736 4.1185 2.58224 3.18745 3.30306 2.71003C4.79098 1.72436 7.1371 1.34368 9.43748 1.71455ZM7.55075 11.408C7.52505 11.4717 7.504 11.4196 7.504 11.2923C7.504 11.165 7.52505 11.113 7.55075 11.1766C7.57654 11.2403 7.57654 11.3444 7.55075 11.408Z" fill="white"/>
<path fill-rule="evenodd" clip-rule="evenodd" d="M26.6061 6.43339C29.2238 6.98283 31.2824 9.02712 31.9285 11.7186C32.1505 12.6434 32.1629 12.7683 32.1631 14.1028C32.1634 16.2732 31.6452 17.905 30.5081 19.3136C29.2552 20.8655 27.2114 21.8396 25.2082 21.8396C24.4324 21.8396 23.3343 21.6395 22.7723 21.3956C22.1998 21.1471 21.3502 20.5644 20.9458 20.1428C20.7699 19.9594 20.5926 19.8094 20.5516 19.8094C20.5106 19.8094 20.477 21.1842 20.477 22.8644V25.9195H18.6315C17.0195 25.9195 16.7788 25.9006 16.7286 25.7702C16.6971 25.6881 16.6773 21.3549 16.6845 16.1409L16.6978 6.66085L16.8943 6.61271C17.0025 6.58614 17.8423 6.57633 18.7607 6.59077L20.4306 6.61715L20.4571 7.57468L20.4837 8.5322L21.1655 7.88583C22.6043 6.52189 24.5516 6.00207 26.6061 6.43339ZM21.4142 11.0045C21.7576 10.5693 22.5696 10.0154 23.1871 9.79505C23.8128 9.57184 25.2195 9.61258 25.8576 9.87244C26.4193 10.1013 27.0998 10.5827 27.3428 10.9233C27.4522 11.0765 27.5866 11.1742 27.6416 11.1402C27.701 11.1036 27.7148 11.1219 27.6755 11.1852C27.6392 11.2439 27.6742 11.4065 27.7534 11.5467C28.1599 12.2663 28.2859 12.7421 28.3357 13.7456C28.3743 14.5225 28.3499 14.9066 28.2328 15.3657C27.8861 16.7245 27.1738 17.6475 26.0686 18.1699C25.4794 18.4484 25.3761 18.467 24.4177 18.467C23.451 18.467 23.3618 18.4506 22.7808 18.1651C21.6665 17.6177 20.8714 16.5832 20.5254 15.2305C20.176 13.8652 20.5465 12.1043 21.4142 11.0045Z" fill="white"/>
<path fill-rule="evenodd" clip-rule="evenodd" d="M42.6487 6.38951C45.8413 6.89211 48.3429 9.19117 49.0581 12.2796C49.23 13.0223 49.2521 13.3271 49.2093 14.373C49.1384 16.1098 48.8179 17.1226 47.9218 18.4417C47.4091 19.1961 46.7209 19.9181 46.5696 19.8601C46.4997 19.8334 46.4661 19.8494 46.4946 19.8956C46.647 20.1417 44.962 21.1116 43.6692 21.522C42.7151 21.8248 40.8131 21.944 39.8471 21.7617C37.6441 21.3456 35.8207 20.1943 34.6493 18.4797C32.3928 15.1774 33.1177 10.4093 36.2406 8.01118C38.0626 6.61215 40.3639 6.02975 42.6487 6.38951ZM37.084 14.0419C37.0887 12.0462 38.2194 10.3872 39.9611 9.82004C40.4471 9.66174 40.7336 9.63082 41.4659 9.65748C42.2907 9.68738 42.4326 9.72099 43.0767 10.0386C43.972 10.4802 44.5927 11.1027 45.0074 11.975C45.536 13.0867 45.653 14.1157 45.3817 15.2645C44.9642 17.0318 43.6534 18.266 41.9356 18.5092C39.2974 18.8826 37.0773 16.8383 37.084 14.0419Z" fill="white"/>
<path fill-rule="evenodd" clip-rule="evenodd" d="M7.504 11.2923C7.504 11.4196 7.52505 11.4717 7.55075 11.408C7.57654 11.3444 7.57654 11.2403 7.55075 11.1766C7.52505 11.113 7.504 11.165 7.504 11.2923Z" fill="white"/>
<path d="M55.1772 4.58046C55.2054 5.64972 55.2367 6.53411 55.2468 6.54587C55.257 6.55753 56.1315 6.57836 57.1902 6.59216L59.1152 6.61715L59.1406 8.15467C59.1604 9.35651 59.1385 9.71488 59.0407 9.79588C58.96 9.86281 58.2594 9.90855 57.0672 9.92475L55.2189 9.94993V13.653C55.2189 17.0948 55.2312 17.3809 55.3937 17.7073C55.6543 18.2308 55.9958 18.3764 56.9351 18.3645C57.5418 18.3569 57.8661 18.2998 58.3416 18.1172C58.6815 17.9866 58.9842 17.9042 59.0141 17.9342C59.0442 17.9641 59.0688 18.6646 59.0688 19.4907V20.9925L58.6745 21.1769C57.7939 21.5886 57.355 21.688 56.2236 21.7318C53.5146 21.8365 52.0573 20.8854 51.5956 18.7118C51.4947 18.2366 51.4646 17.165 51.4633 14.0002L51.4617 9.90364L51.253 9.8966C51.1383 9.89272 50.7698 9.89531 50.4341 9.90234C50.003 9.91132 49.7914 9.87578 49.7129 9.78125C49.634 9.68645 49.6091 9.20728 49.6272 8.13236L49.6528 6.61715L50.5572 6.59068L51.4617 6.5642V4.63878C51.4617 3.57988 51.4904 2.68485 51.5256 2.64985C51.5606 2.61486 52.3851 2.59745 53.3577 2.61125L55.1261 2.63634L55.1772 4.58046Z" fill="white"/>
<path d="M64.5195 14.0175C64.5383 19.8766 64.5189 21.4333 64.4267 21.4917C64.2915 21.5774 61.1039 21.5959 60.8854 21.5122C60.7533 21.4616 60.7386 20.7194 60.7386 14.0674C60.7386 8.24373 60.7632 6.66881 60.8546 6.63113C60.9184 6.60493 61.7637 6.59105 62.7332 6.6003L64.4958 6.61715L64.5195 14.0175Z" fill="white"/>
<path d="M63.5608 0.127773C64.0531 0.333016 64.5945 0.882925 64.8204 1.4071C65.2191 2.33176 64.9369 3.46388 64.1501 4.09618C63.6508 4.49741 63.2675 4.62674 62.5771 4.62674C60.7014 4.62674 59.6258 2.40425 60.7726 0.898385C61.2237 0.306077 61.8477 0.0027006 62.6202 1.58583e-05C62.9662 -0.00109507 63.3895 0.0563032 63.5608 0.127773Z" fill="white"/>
<path d="M73.9118 0.926806C74.2945 0.976242 74.8267 1.0803 75.0946 1.15797L75.5816 1.29915V2.82695C75.5816 4.04212 75.5554 4.36484 75.4533 4.40391C75.3828 4.43094 75.101 4.39077 74.8271 4.31467C73.5346 3.95537 72.6319 4.04601 72.1598 4.58249C72.0105 4.75219 71.8725 4.87522 71.8531 4.85587C71.8338 4.83652 71.8121 4.89161 71.8053 4.97835C71.7983 5.065 71.7625 5.45883 71.7256 5.85339L71.6585 6.57086H74.5909C77.289 6.57086 77.5301 6.58382 77.6092 6.73287C77.6565 6.82203 78.0157 7.72808 78.4074 8.74643C78.799 9.76478 79.2169 10.8479 79.3359 11.1534C79.5172 11.6184 81.0828 15.7058 81.4282 16.6155L81.5337 16.8932L81.6536 16.6618C81.7197 16.5345 82.1369 15.3888 82.5808 14.1159C83.0247 12.843 83.6818 10.9683 84.0409 9.94993C84.4001 8.93158 84.799 7.78594 84.9274 7.40406C85.0559 7.02218 85.2078 6.67909 85.2648 6.64169C85.322 6.60428 86.1737 6.57309 87.1574 6.57225C88.6236 6.57114 88.9554 6.59475 88.997 6.70325C89.0446 6.82693 88.5469 8.15282 85.8321 15.1342C85.2381 16.6618 84.5704 18.3907 84.3482 18.9762C83.0701 22.3442 82.5674 23.4523 81.9334 24.2981C81.473 24.9122 80.6877 25.5291 80.0582 25.7709C79.4145 26.0182 77.5096 26.0807 76.6643 25.8823C75.8612 25.6938 74.6851 25.2083 74.6197 25.0382C74.5922 24.9669 74.7304 24.563 74.9267 24.141C75.123 23.7189 75.3939 23.1295 75.5288 22.8311C75.804 22.2221 75.7681 22.2298 76.7157 22.5772C77.3623 22.8142 78.3375 22.8385 78.7457 22.6278C79.0106 22.4912 79.7923 21.4246 79.7174 21.3021C79.6818 21.2442 78.3212 17.9939 76.1665 12.8198C75.5304 11.2923 74.9785 10.0099 74.9402 9.97002C74.9018 9.93012 74.1747 9.88846 73.3242 9.87744L71.778 9.85735V15.6567C71.7781 20.8595 71.763 21.4617 71.6313 21.5122C71.4401 21.5854 68.3126 21.5854 68.1213 21.5122C67.9897 21.4617 67.9746 20.8596 67.9748 15.6567L67.9751 9.85735L67.2394 9.88735C66.0716 9.93493 66.11 9.99529 66.1402 8.16338L66.1656 6.61715L67.0562 6.59086L67.9467 6.56448L68.0076 5.52622C68.1045 3.87668 68.4613 2.87074 69.2226 2.09994C70.2685 1.04132 71.8118 0.655185 73.9118 0.926806Z" fill="white"/>
</svg>
