<svg width="141" height="26" viewBox="0 0 141 26" fill="none" xmlns="http://www.w3.org/2000/svg">
<path fill-rule="evenodd" clip-rule="evenodd" d="M0.186315 1.88935C-0.127441 5.22664 -0.0424539 7.19941 0.422608 7.37883C0.660851 7.47063 0.840578 7.3847 0.840578 7.17953C0.840578 6.98136 1.03396 6.16488 1.27053 5.36492C1.98498 2.94823 4.02133 1.11962 5.99806 1.11962H6.71501L6.63393 9.81959C6.54281 19.5919 6.64842 19.1348 4.40057 19.4959C3.7764 19.5961 3.3484 19.8211 3.3484 20.049C3.3484 20.3596 4.27797 20.433 8.22472 20.433C12.3735 20.433 13.101 20.3703 13.101 20.0131C13.101 19.7822 12.8689 19.5933 12.5853 19.5933C11.5601 19.5933 10.3848 18.9909 10.0744 18.3066C9.86038 17.8346 9.75728 14.9292 9.75728 9.36362V1.11962H10.4628C12.4281 1.11962 14.4661 2.95439 15.1789 5.36492C15.4155 6.16488 15.6089 6.98136 15.6089 7.17953C15.6089 7.3847 15.7886 7.47063 16.0268 7.37883C16.4841 7.20249 16.6011 4.28785 16.2642 1.4695L16.0884 0H8.22612H0.363814L0.186315 1.88935ZM48.3499 0.964548C45.6228 1.97164 44.3764 5.40914 45.6869 8.30867C46.3303 9.73198 47.5329 10.5616 50.7184 11.7803C52.1838 12.341 53.4321 13.032 53.9925 13.5927C54.7894 14.3901 54.8981 14.6787 54.897 15.9965C54.8959 17.7588 54.2165 19.074 52.9738 19.7195C50.3595 21.0776 47.1289 18.8753 46.1608 15.0756C45.5043 12.4988 45.1151 13.1793 45.0577 17.0042C45.0028 20.6563 45.1435 20.9947 46.252 19.8813C46.7987 19.3321 46.8098 19.3335 48.5508 20.1609C50.5807 21.1255 52.0247 21.2108 53.664 20.4629C55.9558 19.4172 57.4123 16.5513 56.9824 13.9333C56.5898 11.5446 55.3863 10.3735 52.0174 9.10247C49.0429 7.98006 47.9801 7.34328 47.4891 6.38936C46.1723 3.8316 48.6386 0.814521 51.464 1.52688C52.7726 1.8566 54.2494 3.63091 54.8098 5.54601C55.6059 8.26724 56.0127 7.81184 56.0127 4.19856C56.0127 0.981063 55.87 0.655815 54.8608 1.57334C54.3988 1.9932 54.2873 1.98284 53.3614 1.43395C52.0333 0.646858 49.781 0.43581 48.3499 0.964548ZM84.992 2.61738C84.992 4.41156 83.8386 6.22842 82.2752 6.89739C81.077 7.41017 81.1294 7.78357 82.4145 7.89049L83.4594 7.97726L83.5987 13.6702L83.7381 19.3632L84.5199 20.038C85.3913 20.7904 87.2206 20.9561 88.4486 20.3941C89.2809 20.0131 89.9257 18.7421 90.0502 17.2365C90.1823 15.6407 89.5604 15.6413 89.3221 17.237C89.1332 18.503 88.1858 19.8732 87.4998 19.8732C87.3326 19.8732 86.8882 19.5639 86.512 19.186C85.8335 18.5047 85.8279 18.4549 85.8279 13.1681V7.83731H87.7784C89.3266 7.83731 89.729 7.75054 89.729 7.41745C89.729 7.08437 89.3266 6.9976 87.7784 6.9976H85.8279V4.47846C85.8279 2.42593 85.7504 1.95933 85.4099 1.95933C85.1569 1.95933 84.992 2.21908 84.992 2.61738ZM74.3315 6.95477C73.2275 7.21732 71.9443 8.55106 71.7392 9.64913C71.3129 11.9315 72.4091 13.3637 75.4188 14.4576C78.6366 15.627 79.694 17.3353 78.3011 19.1141C76.7618 21.0798 73.4504 19.6904 72.4551 16.6613C71.9198 15.032 71.6169 15.5352 71.6169 18.0538C71.6169 20.3683 71.861 20.9455 72.4175 19.9468C72.6707 19.4922 72.7716 19.5012 73.9712 20.0867C77.3189 21.7205 80.8128 19.8956 80.8109 16.5143C80.8095 14.4808 79.3744 13.0959 76.148 12.0149C74.4767 11.4551 73.2888 10.4684 73.2888 9.64045C73.2888 9.442 73.6134 8.89226 74.0102 8.41867C74.5948 7.72059 74.9434 7.5574 75.8493 7.5574C76.7493 7.5574 77.1519 7.74326 77.916 8.51076C78.4382 9.0353 78.9428 9.85402 79.0376 10.3301C79.1326 10.8065 79.3825 11.1962 79.5932 11.1962C79.8841 11.1962 79.9763 10.6915 79.9763 9.09688C79.9763 7.00347 79.7919 6.62868 79.1465 7.41017C78.855 7.76285 78.6987 7.76761 78.0673 7.4432C77.1205 6.95645 75.3162 6.72077 74.3315 6.95477ZM94.2653 7.25287C92.0919 8.62384 90.8856 11.6944 91.2498 14.9287C91.5962 18.0026 93.0365 20.0856 95.2409 20.7006C96.6949 21.1061 97.107 21.0712 98.6309 20.4125C100.11 19.7732 102.001 17.5676 101.394 17.1903C101.213 17.0778 100.893 17.2242 100.671 17.5211C100.452 17.8142 100.126 18.2492 99.9467 18.4876C98.9775 19.7788 97.2109 20.2247 95.7372 19.5502C94.7978 19.1202 93.9716 17.2911 93.8599 15.3947L93.7693 13.8552L97.7749 13.7774L101.78 13.6996L101.651 12.3494C101.478 10.5423 100.478 8.54854 99.2865 7.63578C97.9582 6.61805 95.5616 6.43527 94.2653 7.25287ZM109.596 6.91335C109.258 6.97912 108.604 7.46588 108.142 7.99489C107.679 8.52391 107.22 8.95692 107.122 8.95692C107.024 8.95692 106.995 8.51608 107.058 7.97726L107.172 6.9976H105.138C103.56 6.9976 103.104 7.08716 103.104 7.39786C103.104 7.61814 103.383 7.83871 103.724 7.88769C104.82 8.04583 105.046 9.04761 105.05 13.7721C105.055 18.671 104.848 19.537 103.609 19.7858C101.879 20.1332 103.001 20.433 106.03 20.433C107.98 20.433 109.234 20.3235 109.234 20.1531C109.234 19.9991 108.992 19.8732 108.697 19.8732C108.401 19.8732 107.952 19.6646 107.698 19.4097C107.03 18.7384 107.193 10.6529 107.901 9.34627C108.503 8.23337 109.776 7.65929 110.626 8.11637C111.785 8.73972 112.021 9.96654 112.021 15.3858V20.433H114.111C116.168 20.433 116.861 20.1005 115.512 19.7604C114.352 19.4676 114.192 18.7494 114.294 14.2664C114.398 9.75325 114.617 9.07364 116.275 8.12813C116.885 7.78049 117.099 7.77601 117.698 8.09818C118.795 8.68794 118.987 9.76109 118.987 15.2965V20.433H121.077C123.145 20.433 123.825 20.0999 122.46 19.7556C121.407 19.4903 121.216 18.5932 121.216 13.907C121.215 8.96364 120.936 8.03828 119.184 7.1787C117.668 6.43499 116.351 6.74792 115.002 8.17207C114.416 8.79038 113.907 9.25138 113.87 9.19652C113.833 9.14166 113.58 8.74 113.308 8.30363C113.036 7.86754 112.388 7.33236 111.869 7.11404C110.916 6.71433 110.711 6.69614 109.596 6.91335ZM127.645 6.91586C125.974 7.24615 124.838 8.69997 124.838 10.5093C124.838 12.489 126.057 13.6495 129.219 14.6801C130.801 15.196 132.084 16.4348 132.082 17.4456C132.081 18.465 131.086 19.8029 130.182 20.0022C128.493 20.3748 126.38 18.8025 125.672 16.647C125.154 15.0695 124.807 15.6279 124.751 18.1302C124.699 20.4195 124.886 20.8576 125.533 19.9683C125.846 19.5395 125.968 19.5504 127.115 20.1083C128.709 20.8836 130.787 20.9074 132 20.1643C134.094 18.8818 134.55 15.5988 132.881 13.8149C132.547 13.4572 131.114 12.713 129.696 12.1615C127.577 11.3367 127.062 11.0181 126.793 10.3665C126.529 9.72554 126.549 9.41485 126.896 8.73972C127.383 7.79448 127.833 7.5574 129.143 7.5574C130.367 7.5574 131.38 8.41335 131.96 9.93967C132.712 11.9177 133.198 11.5869 133.198 9.09688C133.198 6.96289 132.925 6.49993 132.23 7.4544C131.929 7.86838 131.834 7.8709 131.224 7.48127C130.468 6.99844 128.668 6.71405 127.645 6.91586ZM58.158 7.17506C57.8058 7.52913 57.9543 7.83731 58.4773 7.83731C58.7601 7.83731 59.1826 8.05759 59.4164 8.32714C59.6501 8.59669 60.8528 11.5032 62.0891 14.7862L64.337 20.7554L63.7658 22.2543C63.0942 24.0174 62.1769 24.9814 61.1707 24.9814C60.1562 24.9814 59.9828 24.6917 60.6967 24.1893C61.8406 23.3846 61.3248 21.8325 59.9137 21.8325C58.9722 21.8325 58.5205 22.3103 58.5205 23.3065C58.5205 24.4048 58.944 25.1077 59.9082 25.6084C61.0013 26.176 61.4232 26.143 62.55 25.4013C63.7092 24.6383 64.2021 23.6804 66.0431 18.6136C69.378 9.43668 69.9464 8.12757 70.6776 7.94311C72.0705 7.59183 71.1482 7.13727 68.8778 7.05638C66.9783 6.98836 66.6013 7.0463 66.6013 7.40626C66.6013 7.64334 66.8281 7.83731 67.1053 7.83731C67.3826 7.83731 67.8449 8.01029 68.1324 8.22162C68.6348 8.59053 68.5961 8.77275 67.1466 12.8316C66.3165 15.156 65.5574 16.9669 65.4599 16.8558C65.3624 16.745 64.5758 14.8411 63.7122 12.6248C62.0454 8.34729 62.0181 7.83731 63.4542 7.83731C63.8786 7.83731 64.096 7.70407 64.0243 7.48743C63.8981 7.10508 58.5133 6.81818 58.158 7.17506ZM97.7114 7.96746C98.5364 8.54798 99.203 10.1037 99.203 11.4483V12.5957H96.458H93.7133L93.9293 11.223C94.4105 8.16535 96.0216 6.77871 97.7114 7.96746ZM14.4246 9.72442L12.5438 9.82211V11.7688V13.7153H14.4943H16.4448V11.616C16.4448 10.4614 16.4136 9.54136 16.3751 9.57159C16.3367 9.60182 15.4592 9.6704 14.4246 9.72442ZM37.3428 11.686L37.3433 13.7153H39.2939H41.2444V11.7789V9.84254L39.2933 9.74961L37.3419 9.65668L37.3428 11.686ZM0.00463742 11.756V13.7153H1.95517H3.90569V11.756V9.79663H1.95517H0.00463742V11.756ZM24.8611 11.686L24.9435 13.5753L26.9637 13.6576L28.9839 13.7399V11.7683V9.79663H26.8813H24.7789L24.8611 11.686ZM137.156 11.686L137.238 13.5753L139.119 13.6582L141 13.7408V11.7688V9.79663H139.037H137.074L137.156 11.686Z" fill="white"/>
</svg>
