<svg width="25" height="32" viewBox="0 0 25 32" fill="none" xmlns="http://www.w3.org/2000/svg">
<path d="M9.24325 15.1735C9.27408 16.2148 8.69776 18.2973 6.14582 18.2973M12.7568 12.516V16.9452M16.2703 15.1735C16.2394 16.2148 16.7325 18.2973 19.3214 18.2973M6.36876 12.0704C5.62097 11.4914 5.01575 10.7462 4.60021 9.8928C4.18467 9.03937 3.97003 8.10075 3.97299 7.14998C3.97299 3.75365 6.65424 1 9.96177 1C12.7273 1 15.0555 2.92494 15.7441 5.54129C16.3017 5.25066 16.9203 5.09937 17.5479 5.10014C19.7526 5.10014 21.5405 6.93561 21.5405 9.20027C21.5405 10.8812 20.555 12.3264 19.1448 12.9589L6.36876 12.0704Z" stroke="white" stroke-linecap="round" stroke-linejoin="round"/>
<rect x="1" y="18.2974" width="9.72973" height="12.7027" rx="1" stroke="white" stroke-linecap="round" stroke-linejoin="round"/>
<rect x="14.5135" y="18.2974" width="9.72973" height="12.7027" rx="1" stroke="white" stroke-linecap="round" stroke-linejoin="round"/>
</svg>
