<svg width="34" height="34" viewBox="0 0 34 34" fill="none" xmlns="http://www.w3.org/2000/svg">
<path fill-rule="evenodd" clip-rule="evenodd" d="M16.8524 1.02869C16.7085 1.07051 16.6307 1.17159 16.1902 1.8891C15.9685 2.25024 15.7777 2.5512 15.766 2.55785C15.7544 2.5645 15.6646 2.57966 15.5664 2.59156L15.3879 2.61315L14.8116 1.99683C14.4946 1.65781 14.1934 1.36315 14.1422 1.34197C14.0899 1.32029 13.9854 1.31066 13.9033 1.31991C13.6496 1.34849 13.5897 1.44109 13.2739 2.29294C13.1222 2.70211 12.9856 3.05236 12.9703 3.07129C12.929 3.12229 12.6079 3.19216 12.5576 3.1611C12.534 3.14651 12.231 2.93074 11.8843 2.6816C11.5376 2.43246 11.2195 2.21998 11.1773 2.2094C11.0222 2.1705 10.8459 2.21998 10.7312 2.33457L10.6215 2.4442L10.4822 3.27871C10.3326 4.17539 10.3463 4.13883 10.1142 4.25896L9.99515 4.3206L9.46486 4.07833C8.47549 3.62633 8.44407 3.61414 8.31347 3.63165C8.15468 3.65292 8.00406 3.76379 7.94635 3.90181C7.90786 3.99384 7.90314 4.1356 7.91939 4.71226C7.93019 5.09664 7.94628 5.46987 7.95509 5.54164C7.97045 5.66649 7.9644 5.67776 7.81394 5.80363L7.65676 5.9352L6.84022 5.74206C5.9144 5.52306 5.87049 5.52185 5.68145 5.71078C5.50492 5.88724 5.50467 5.88204 5.74078 6.90466L5.91753 7.67006L5.79701 7.81704L5.67648 7.96402L4.80314 7.94351C3.95172 7.9235 3.92717 7.92464 3.8247 7.98957C3.68992 8.07498 3.58412 8.30278 3.61466 8.44176C3.62666 8.49633 3.78637 8.86938 3.96959 9.27076L4.30269 10.0005L4.21128 10.1751L4.11986 10.3496L3.29628 10.4854C2.72384 10.5798 2.44857 10.6386 2.39352 10.6783C2.19124 10.824 2.1205 11.0609 2.22117 11.2555C2.24832 11.3079 2.47493 11.6345 2.72472 11.9812L3.17889 12.6116L3.13119 12.7786C3.10496 12.8704 3.06724 12.9619 3.04734 12.9819C3.02748 13.0019 2.67623 13.1419 2.26682 13.2931C1.8574 13.4443 1.48854 13.5989 1.44707 13.6366C1.35553 13.72 1.28467 13.878 1.28537 13.9971C1.28632 14.1535 1.4166 14.3074 2.00771 14.8502L2.58801 15.3831L2.5697 15.5721C2.55963 15.6761 2.53369 15.7778 2.51205 15.7982C2.49042 15.8185 2.16875 16.0233 1.79725 16.2533C1.06066 16.7092 1 16.767 1 17.0134C1 17.2561 1.05654 17.3087 1.83248 17.7885L2.54845 18.2312L2.56932 18.4261L2.5902 18.6209L2.34141 18.8567C2.20457 18.9863 1.9326 19.2399 1.73704 19.4201C1.38094 19.7483 1.28486 19.8788 1.28486 20.0345C1.28486 20.1561 1.36066 20.3176 1.45103 20.3887C1.4944 20.4228 1.87419 20.5783 2.29507 20.7343L3.06027 21.018L3.1195 21.2079C3.1521 21.3124 3.16955 21.4132 3.15834 21.432C3.14709 21.4508 2.92587 21.7609 2.66673 22.1211C2.14686 22.8437 2.10961 22.9309 2.22548 23.1542C2.32833 23.3524 2.42406 23.3893 3.1278 23.5015C4.219 23.6756 4.10697 23.6423 4.20697 23.8217C4.25489 23.9076 4.29408 23.9912 4.29408 24.0075C4.29408 24.0237 4.14257 24.3692 3.95739 24.7751C3.5955 25.5686 3.56632 25.6826 3.67728 25.8703C3.70969 25.9252 3.79404 26.0006 3.86468 26.038C3.99138 26.1051 4.00446 26.1056 4.81673 26.0742L5.6403 26.0424L5.73904 26.1361C5.93001 26.3173 5.93004 26.2951 5.73688 27.1225C5.64021 27.5367 5.56111 27.9323 5.56111 28.0018C5.56111 28.2531 5.7424 28.4412 5.98484 28.4414C6.05238 28.4415 6.454 28.3608 6.87735 28.2622L7.64704 28.0829L7.80909 28.2064L7.97118 28.3299L7.9549 28.4886C7.94597 28.5759 7.92978 28.9553 7.91895 29.3317C7.89712 30.0897 7.90422 30.128 8.09649 30.2897C8.28018 30.4441 8.40093 30.4177 9.23255 30.0402C9.63537 29.8574 9.98045 29.7078 9.99942 29.7078C10.0184 29.7078 10.1027 29.7465 10.1868 29.7937C10.3623 29.8923 10.3297 29.7813 10.5041 30.8734C10.6164 31.5767 10.6533 31.6724 10.8516 31.7752C11.0729 31.8898 11.1669 31.851 11.8409 31.3676C12.1763 31.1271 12.4863 30.9048 12.5298 30.8736C12.606 30.819 12.6161 30.8191 12.7954 30.8749L12.9817 30.933L13.2754 31.7154C13.437 32.1458 13.5954 32.5274 13.6276 32.5634C13.6994 32.644 13.8615 32.7152 13.9732 32.7152C14.1395 32.7152 14.2659 32.6099 14.8105 32.0177L15.3648 31.4148L15.5691 31.4313C15.6847 31.4406 15.7836 31.4652 15.7969 31.4879C15.8098 31.51 16.0115 31.8334 16.2449 32.2065C16.704 32.9402 16.762 33.0002 17.0115 33C17.2406 32.9998 17.3062 32.9293 17.7681 32.1875C18.0048 31.8074 18.2024 31.4855 18.2072 31.4722C18.212 31.4589 18.3086 31.4397 18.4217 31.4296L18.6274 31.4112L18.9564 31.7704C19.8034 32.6952 19.8973 32.7671 20.1571 32.6893C20.3642 32.6273 20.4222 32.5283 20.7179 31.7338C20.8702 31.3247 21.0109 30.9733 21.0306 30.9531C21.0503 30.9328 21.1419 30.8942 21.2341 30.8673L21.4017 30.8185L22.0418 31.2813C22.3939 31.5359 22.7344 31.765 22.7985 31.7905C23.0399 31.8862 23.3249 31.7326 23.3883 31.4727C23.4064 31.3987 23.4752 31.0081 23.5413 30.6048L23.6614 29.8714L23.8426 29.7848L24.0239 29.6982L24.7628 30.0354C25.5465 30.393 25.6707 30.4258 25.8639 30.3259C25.9136 30.3002 25.986 30.2279 26.0248 30.1652C26.0948 30.052 26.0951 30.0447 26.0722 29.1877L26.0491 28.3243L26.1971 28.2032L26.345 28.082L27.1268 28.2624C27.5567 28.3615 27.9584 28.4424 28.0194 28.442C28.1469 28.4412 28.3118 28.3509 28.3788 28.2452C28.4785 28.088 28.4696 27.9964 28.2735 27.1623L28.0816 26.3465L28.2135 26.189L28.3454 26.0316L28.5388 26.0487C28.6451 26.0581 29.0179 26.0746 29.3673 26.0854C30.0799 26.1074 30.1708 26.0903 30.2985 25.9111C30.4502 25.6982 30.4372 25.6394 30.0497 24.7876L29.6964 24.0111L29.7776 23.8508C29.8234 23.7605 29.8895 23.6797 29.929 23.6658C29.9676 23.6522 30.3369 23.5868 30.7498 23.5204C31.2506 23.44 31.5327 23.3803 31.5974 23.341C31.7314 23.2595 31.8202 23.1017 31.8203 22.9448C31.8205 22.7955 31.7889 22.744 31.1936 21.9227L30.8169 21.4029L30.8763 21.212C30.909 21.1069 30.9388 21.0196 30.9426 21.0179C30.9463 21.0161 31.2883 20.889 31.7025 20.7353C32.1168 20.5817 32.4912 20.428 32.5347 20.3938C32.6984 20.2651 32.7559 20.0163 32.6632 19.8372C32.6388 19.7902 32.3461 19.4973 32.0126 19.1863L31.4063 18.621L31.4275 18.4266C31.4392 18.3197 31.4504 18.2308 31.4525 18.2291C31.4545 18.2274 31.7627 18.038 32.1372 17.8082C32.5118 17.5784 32.8497 17.3554 32.8881 17.3127C33.0442 17.1387 33.0358 16.8402 32.8706 16.6893C32.8244 16.6471 32.4873 16.4296 32.1214 16.2059C31.7555 15.9822 31.4523 15.7967 31.4475 15.7935C31.4427 15.7904 31.4309 15.6967 31.4213 15.5854L31.4037 15.3831L31.7625 15.0542C32.6903 14.204 32.7593 14.1139 32.6815 13.8543C32.6194 13.6474 32.5204 13.5894 31.7254 13.2939C31.316 13.1417 30.9645 13.001 30.9442 12.9814C30.9239 12.9616 30.8853 12.8701 30.8584 12.778L30.8095 12.6105L31.2726 11.9707C31.5274 11.6189 31.7567 11.2786 31.7821 11.2145C31.8876 10.9487 31.6947 10.6458 31.3916 10.6017C31.3052 10.5891 30.928 10.5272 30.5534 10.4642L29.8724 10.3496L29.7812 10.1754L29.6899 10.0012L30.0302 9.2574C30.3937 8.46281 30.4223 8.35394 30.3194 8.15599C30.2896 8.09863 30.2196 8.02275 30.1639 7.98735C30.0661 7.92527 30.0315 7.92372 29.1891 7.94351L28.3158 7.96402L28.1946 7.81618L28.0733 7.66835L28.2652 6.85043C28.4824 5.9245 28.4838 5.86539 28.2928 5.69004C28.1151 5.52685 28.0585 5.52945 27.1533 5.74222L26.3348 5.93463L26.1785 5.80385C26.04 5.68792 26.024 5.66178 26.0376 5.57377C26.046 5.51916 26.0613 5.13969 26.0716 4.73052C26.0886 4.05357 26.0851 3.97681 26.0333 3.87804C25.9582 3.73504 25.8419 3.65353 25.6827 3.63216C25.567 3.61668 25.4688 3.65311 24.7764 3.96839L23.9998 4.32196L23.8794 4.25963C23.6468 4.13927 23.6589 4.17045 23.5232 3.34753C23.3671 2.40096 23.3794 2.4479 23.2535 2.3259C23.1445 2.22039 22.9638 2.17205 22.8165 2.20902C22.7752 2.21937 22.4429 2.44287 22.0781 2.70562C21.3594 3.2234 21.3731 3.21767 21.1122 3.10763C21.0062 3.06293 20.9951 3.03998 20.7181 2.29598C20.395 1.42827 20.3435 1.34859 20.0878 1.31978C20.0069 1.31066 19.9021 1.32041 19.8502 1.34191C19.7991 1.36302 19.4982 1.65775 19.1815 1.99683L18.6056 2.61331L18.4265 2.59163C18.3279 2.57972 18.2384 2.56488 18.2276 2.55867C18.2167 2.55247 18.0258 2.25154 17.8033 1.88992C17.5809 1.5283 17.3625 1.19318 17.3181 1.14519C17.2736 1.0972 17.1866 1.04386 17.1246 1.02664C16.9953 0.990738 16.9826 0.990833 16.8524 1.02869ZM17.3267 3.95256C17.6575 4.11432 17.8338 4.40617 17.8349 4.79384C17.836 5.18034 17.6593 5.46721 17.3041 5.65592C17.112 5.75795 16.6902 5.75795 16.4981 5.65592C15.9736 5.37731 15.8001 4.76364 16.1086 4.27761C16.3613 3.87937 16.889 3.73856 17.3267 3.95256ZM15.5375 6.18674C15.9442 6.61332 16.3341 7.00156 16.4039 7.04949C16.6613 7.22629 17.0327 7.24547 17.2891 7.09523C17.3632 7.05186 17.806 6.65096 18.2731 6.20437C18.8586 5.64468 19.1391 5.3969 19.1759 5.40697C19.2053 5.41498 19.3433 5.44537 19.4827 5.47452C20.8964 5.76995 22.4176 6.43715 23.6543 7.3041C24.9758 8.23054 26.1702 9.50277 26.9625 10.8278L27.1348 11.1161L26.5413 12.4582C25.9648 13.7619 25.9479 13.8061 25.9498 14.006C25.9522 14.253 26.0131 14.4046 26.1843 14.5903C26.2974 14.7129 26.4306 14.7805 27.4624 15.2394L28.6142 15.7517L28.6376 15.9947C28.6648 16.2763 28.6634 17.7306 28.6359 17.7749C28.6253 17.7921 28.3423 17.8048 27.9711 17.8048C27.3645 17.8048 27.3227 17.8086 27.2919 17.866C27.2738 17.8999 27.2591 18.1266 27.2591 18.3739C27.2591 19.0818 27.1566 19.4471 26.871 19.7568C26.4062 20.2607 25.4381 20.3388 24.8101 19.9231C24.6057 19.7878 24.5492 19.6774 24.4543 19.2281C24.1853 17.9548 23.7945 17.2888 22.9016 16.5816C22.7547 16.4653 22.6345 16.3612 22.6345 16.3503C22.6345 16.3395 22.6801 16.3037 22.7358 16.2708C22.997 16.1166 23.6316 15.6057 23.9173 15.3197C24.5994 14.6368 24.9597 13.9211 25.001 13.1671C25.0542 12.1957 24.6872 11.305 23.9184 10.5396C23.2396 9.86375 22.42 9.42831 21.373 9.18725L21.0665 9.11665L14.6578 9.10741L8.24914 9.09813L8.43349 8.88821C8.65639 8.63445 9.21028 8.12481 9.62885 7.78833C10.9633 6.7157 12.5669 5.92443 14.2138 5.52616C14.7474 5.39709 14.7273 5.40146 14.7646 5.40659C14.7829 5.40909 15.1307 5.76017 15.5375 6.18674ZM5.94477 12.5411C6.28396 12.691 6.51133 13.0321 6.51136 13.391C6.51139 13.6809 6.43455 13.8658 6.22834 14.0722C6.00578 14.2948 5.8092 14.3692 5.50144 14.3471C4.90425 14.3042 4.4918 13.735 4.65395 13.1775C4.8218 12.6005 5.41626 12.3074 5.94477 12.5411ZM28.637 12.5927C28.8682 12.7006 28.9855 12.8129 29.0945 13.031C29.3378 13.5176 29.1228 14.1108 28.6228 14.3322C28.3987 14.4314 28.081 14.4235 27.855 14.3129C27.3734 14.0774 27.1688 13.5133 27.3964 13.0484C27.4986 12.8396 27.7128 12.6373 27.9029 12.57C28.1152 12.4948 28.4496 12.5051 28.637 12.5927ZM9.04547 16.3805V20.1163L7.37779 20.1081L5.71015 20.0999L5.65079 19.8833C5.55947 19.5502 5.41088 18.784 5.34895 18.3272C5.30476 18.001 5.29342 17.6956 5.29434 16.8551C5.29501 16.2399 5.30847 15.7643 5.32636 15.7226C5.35025 15.6668 5.58972 15.547 6.3857 15.1927C6.95134 14.9409 7.47083 14.6951 7.5401 14.6465C7.60938 14.5978 7.70916 14.4883 7.76183 14.4032C7.84894 14.2624 7.85762 14.2238 7.85762 13.9768C7.85762 13.7083 7.85506 13.6995 7.62797 13.189C7.50165 12.905 7.39832 12.6664 7.39832 12.6587C7.39832 12.651 7.76893 12.6447 8.22189 12.6447H9.04547V16.3805ZM18.7932 12.856C19.39 13.0859 19.6963 13.4384 19.6963 13.8952C19.6963 13.9997 19.6743 14.1377 19.6473 14.2019C19.5303 14.4813 19.1855 14.7286 18.7541 14.8426C18.4096 14.9337 17.7797 14.9583 16.03 14.949L14.3195 14.9399L14.3112 13.8387L14.3029 12.7376L16.4176 12.7466L18.5324 12.7555L18.7932 12.856ZM17.7954 18.1509C18.4616 18.3212 18.939 18.7871 19.1763 19.4985C19.2111 19.6029 19.3203 20.0802 19.4189 20.559C19.6747 21.8011 19.7659 22.1457 19.926 22.4769C20.1953 23.0339 20.6417 23.5336 21.0491 23.7341L21.2552 23.8355L23.8427 23.8513L26.4303 23.8671L26.1364 24.2312C25.9748 24.4314 25.7301 24.7117 25.5926 24.8542L25.3427 25.1131L24.345 24.8951C23.7437 24.7637 23.2705 24.6765 23.1543 24.6757C22.8081 24.6733 22.4835 24.8889 22.3506 25.2096C22.329 25.2616 22.2023 25.8142 22.0691 26.4376L21.8267 27.571L21.6683 27.6468C21.1698 27.8854 20.1641 28.2073 19.4352 28.3614C17.2114 28.8318 14.9167 28.6544 12.8149 27.8495C12.1044 27.5774 12.0667 27.5546 12.0277 27.374C12.0098 27.2908 11.9008 26.7811 11.7856 26.2414C11.564 25.2029 11.4941 24.9948 11.3166 24.8449C11.1655 24.7173 10.9523 24.6339 10.7729 24.6324C10.6852 24.6317 10.158 24.7288 9.60132 24.8484L8.58921 25.0657L8.35642 24.8147C8.12487 24.5649 7.61381 23.9398 7.59367 23.8817C7.58692 23.8623 9.34041 23.8513 12.4258 23.8513C16.1502 23.8513 17.2773 23.8425 17.3066 23.8133C17.3627 23.7572 17.3612 20.3719 17.305 20.296C17.269 20.2474 17.1333 20.2419 15.8083 20.2346L14.3512 20.2266L14.3428 19.198C14.3382 18.6323 14.3413 18.1515 14.3497 18.1296C14.3617 18.0983 14.7079 18.0897 15.9606 18.0897C17.4337 18.0897 17.5745 18.0944 17.7954 18.1509ZM10.2973 25.9554C10.6529 26.1293 10.8392 26.4604 10.8124 26.8707C10.794 27.1515 10.7166 27.3093 10.5032 27.5011C10.0936 27.8691 9.46572 27.814 9.13537 27.381C8.71959 26.8362 8.99488 26.0499 9.66315 25.8735C9.8304 25.8294 10.1146 25.8661 10.2973 25.9554ZM24.3217 25.9588C24.4023 25.9863 24.5323 26.0651 24.6107 26.1341C25.0215 26.4955 25.0406 27.137 24.652 27.5172C24.4608 27.7042 24.2524 27.7887 23.9795 27.7899C23.5887 27.7915 23.2906 27.5921 23.1168 27.2129C23.0492 27.0653 23.0405 27.0087 23.0529 26.7999C23.0752 26.4232 23.2396 26.1655 23.5593 26.0059C23.7174 25.9269 23.7922 25.909 23.9643 25.909C24.0803 25.909 24.2412 25.9314 24.3217 25.9588Z" stroke="white" stroke-width="0.7"/>
</svg>
