<svg width="150" height="27" viewBox="0 0 150 27" fill="none" xmlns="http://www.w3.org/2000/svg">
<path fill-rule="evenodd" clip-rule="evenodd" d="M25.7824 0.0727117C24.7091 0.337323 23.9189 1.37427 23.9189 2.51807C23.9189 3.63697 24.6816 4.64975 25.7431 4.94044C26.1014 5.03858 26.7333 5.01677 27.1191 4.89302C28.2668 4.52481 28.9872 3.32732 28.7866 2.12126C28.5419 0.65059 27.1867 -0.273489 25.7824 0.0727117ZM104.853 0.0483317C104.011 0.216664 103.223 0.986274 102.993 1.867C102.899 2.22465 102.904 2.85041 103.004 3.19161C103.329 4.30515 104.211 4.99255 105.329 5.0041C106.42 5.01533 107.338 4.35303 107.682 3.30572C107.823 2.87607 107.826 2.19135 107.688 1.73748C107.322 0.533848 106.092 -0.199116 104.853 0.0483317ZM0.0337997 0.645434C0.0152017 0.664298 0 1.49926 0 2.50091V4.322H2.86318H5.72635V13.3159V22.3098H7.75338H9.78041V13.3159V4.322H12.6436H15.5068V2.46653V0.611057H7.78718C3.54137 0.611057 0.052347 0.626519 0.0337997 0.645434ZM80.5743 4.11584C80.5743 6.04347 80.5549 7.62062 80.5311 7.62062C80.5074 7.62062 80.3193 7.50677 80.1131 7.36756C79.3105 6.82581 78.2809 6.39626 77.2979 6.19309C76.6072 6.05027 74.8512 6.06357 74.1761 6.2167C71.6712 6.78483 69.6847 8.33302 68.5557 10.5971C66.5273 14.6645 68.1509 19.668 72.1644 21.7182C72.9562 22.1227 74.025 22.4454 74.8986 22.5438C75.3075 22.5899 76.3171 22.5902 76.6798 22.5443C77.9156 22.3881 79.0839 21.9657 80.0393 21.3298C80.2606 21.1825 80.4715 21.0503 80.508 21.0361C80.5605 21.0156 80.5743 21.1459 80.5743 21.66V22.3098H82.576H84.5777V11.4604V0.611057H82.576H80.5743V4.11584ZM38.2855 6.1499C37.4473 6.28494 36.7168 6.52259 35.9723 6.90224C35.6166 7.08367 35.4107 7.2101 34.7889 7.62897C34.7557 7.65129 34.7435 7.43306 34.7537 6.99759L34.7691 6.3321H32.7393H30.7095V16.666V27H32.7365H34.7635V24.0063C34.7635 22.3598 34.7806 21.0204 34.8015 21.0299C34.8224 21.0393 35.0005 21.1555 35.1972 21.288C36.0538 21.8648 37.1113 22.2867 38.1566 22.4684C38.8233 22.5844 39.9678 22.6054 40.6131 22.5135C43.7759 22.0633 46.4186 19.7338 47.3045 16.6151C47.7173 15.1621 47.7146 13.4744 47.2971 12.0016C46.4471 9.0029 43.9096 6.70603 40.8612 6.17598C40.179 6.05733 38.9379 6.04481 38.2855 6.1499ZM56.022 6.12861C53.333 6.55243 51.0273 8.27936 49.8666 10.7388C48.7759 13.0502 48.7958 15.6882 49.9213 18.0061C50.9547 20.1344 52.8645 21.7182 55.1098 22.309C55.8782 22.5111 56.3556 22.5705 57.2128 22.5704C58.4704 22.5702 59.4997 22.3306 60.6334 21.7742C60.94 21.6237 61.3478 21.3927 61.5396 21.2609C61.7315 21.1291 61.8968 21.0213 61.907 21.0213C61.9173 21.0213 61.9257 21.3112 61.9257 21.6655V22.3098H63.9527H65.9797V14.3209V6.3321H63.9527H61.9257V6.97636C61.9257 7.3307 61.9147 7.62062 61.9013 7.62062C61.8879 7.62062 61.7043 7.50264 61.4933 7.35848C60.7626 6.85921 59.7686 6.43693 58.8189 6.22231C58.2867 6.10202 56.5581 6.04414 56.022 6.12861ZM113.919 6.17825C110.984 6.70525 109.175 8.72772 109.461 11.1626C109.621 12.5245 110.291 13.5497 111.516 14.3058C112.106 14.6701 112.526 14.8259 114.137 15.2779C116.27 15.8765 116.727 16.0481 117.2 16.4291C117.87 16.9677 117.951 17.9539 117.378 18.6017C116.982 19.0496 116.322 19.2898 115.49 19.2892C114.989 19.2888 114.584 19.1984 114.207 19.0028C113.957 18.8734 113.585 18.526 113.432 18.2808C113.26 18.0032 113.108 17.5047 113.108 17.2144C113.108 17.057 113.084 16.9525 113.045 16.9392C113.01 16.9275 112.126 16.9195 111.081 16.9214L109.181 16.925L109.189 17.4655C109.216 19.2956 110.408 21.0413 112.217 21.9005C113.266 22.3988 114.458 22.6271 115.769 22.5811C116.862 22.5427 117.779 22.3138 118.708 21.8474C119.94 21.2285 120.816 20.2957 121.286 19.099C121.531 18.4777 121.592 18.1169 121.593 17.2845C121.594 16.6313 121.576 16.4479 121.479 16.102C121.105 14.7782 120.129 13.781 118.623 13.1862C118.475 13.1274 117.538 12.8493 116.542 12.568C114.207 11.9088 113.68 11.6632 113.417 11.1096C113.277 10.8153 113.273 10.3206 113.408 10.0539C113.69 9.49774 114.398 9.16932 115.321 9.16762C116.434 9.16556 117.27 9.80492 117.393 10.7517L117.429 11.0223H119.279H121.13L121.1 10.5198C121.056 9.78024 120.862 9.13046 120.499 8.51393C120.275 8.13247 119.656 7.46425 119.262 7.17804C118.595 6.69412 117.575 6.29922 116.605 6.14939C115.919 6.04342 114.59 6.05769 113.919 6.17825ZM129.932 6.11125C129.835 6.12243 129.495 6.19036 129.176 6.26221C125.482 7.09578 122.84 10.4555 122.84 14.3209C122.84 17.7755 124.946 20.8535 128.154 22.087C129.73 22.693 131.763 22.7378 133.409 22.2027C136.072 21.3375 138.147 19.0948 138.822 16.3511C139.021 15.5455 139.07 15.0117 139.039 14.0117C138.987 12.3718 138.587 11.0925 137.703 9.74194C136.441 7.81488 134.41 6.49337 132.186 6.15237C131.721 6.08114 130.404 6.05713 129.932 6.11125ZM13.5304 14.3209V22.3098H15.5574H17.5845L17.5852 17.2974C17.586 11.9213 17.5853 11.9382 17.8423 11.4257C17.9735 11.1641 18.357 10.7401 18.6097 10.5772C18.7137 10.5102 18.976 10.3924 19.1924 10.3155C19.5803 10.1779 19.6087 10.1756 21.0937 10.1564L22.6013 10.137V8.23452V6.3321L21.4231 6.33297C20.5844 6.33364 20.1427 6.3557 19.8902 6.40962C18.8511 6.6315 18.0496 7.3857 17.7058 8.46501L17.589 8.83183L17.5867 7.58196L17.5845 6.3321H15.5574H13.5304V14.3209ZM24.3368 14.3081L24.3497 22.284L26.364 22.2975L28.3784 22.311V14.3215V6.3321H26.3512H24.324L24.3368 14.3081ZM85.9966 6.34684C85.9966 6.36823 91.2021 21.8307 91.297 22.0912L91.377 22.3108L93.8137 22.2974L96.2504 22.284L98.9485 14.3209L101.647 6.35787L99.5401 6.34442C98.3815 6.33699 97.4253 6.33931 97.4153 6.34957C97.4052 6.35977 96.5976 8.95156 95.6207 12.1091C94.6437 15.2666 93.8362 17.8584 93.826 17.8687C93.8159 17.8789 93.7266 17.6241 93.6276 17.3025C93.5285 16.9808 92.7247 14.3808 91.8414 11.5248L90.2353 6.3321H88.1159C86.9503 6.3321 85.9966 6.3387 85.9966 6.34684ZM103.328 14.3209V22.3098H105.355H107.382V14.3209V6.3321H105.355H103.328V14.3209ZM140.929 14.3209V22.3098H142.956H144.983L144.984 17.3747C144.985 11.9606 144.981 12.0358 145.288 11.3993C145.475 11.0122 145.849 10.6526 146.28 10.4467C146.796 10.1992 147.222 10.1461 148.687 10.1461H150V8.23911V6.3321H148.832C147.609 6.3321 147.208 6.38209 146.718 6.59578C145.994 6.91147 145.428 7.57573 145.131 8.45945L144.988 8.88337L144.986 7.60773L144.983 6.3321H142.956H140.929V14.3209ZM40.3632 10.0166C41.5665 10.3763 42.5283 11.1981 43.0784 12.3366C43.4107 13.0243 43.4874 13.3406 43.5169 14.1441C43.5537 15.1469 43.3863 15.8307 42.9013 16.6589C41.1474 19.6541 36.7175 19.4502 35.2176 16.3053C34.8488 15.5321 34.791 15.263 34.791 14.3209C34.791 13.3752 34.8498 13.1039 35.2213 12.3366C35.7505 11.2438 36.5985 10.4819 37.7256 10.0868C38.3103 9.88182 38.6067 9.8393 39.299 9.86105C39.767 9.87579 40.0121 9.91161 40.3632 10.0166ZM58.6824 9.99109C60.1424 10.4105 61.2385 11.4847 61.7332 12.9809C61.8894 13.453 61.8952 13.501 61.8952 14.3209C61.8952 15.1409 61.8894 15.1889 61.7332 15.661C61.1343 17.4722 59.6333 18.6708 57.8171 18.7881C55.3677 18.9464 53.2807 17.0557 53.1418 14.5529C53.0455 12.8198 54.0189 11.1059 55.5427 10.3254C55.8951 10.1449 56.4369 9.96207 56.8409 9.88739C57.2508 9.81157 58.2541 9.86806 58.6824 9.99109ZM77.3461 10.0136C78.9618 10.4972 80.1196 11.7763 80.4755 13.4705C80.6206 14.1614 80.533 15.1814 80.2654 15.9187C79.9035 16.9155 79.0984 17.8244 78.1419 18.3159C75.527 19.6594 72.384 18.0853 71.8284 15.1539C71.3768 12.7708 72.8904 10.4638 75.2534 9.93367C75.8636 9.79678 76.7326 9.83002 77.3461 10.0136ZM132.086 9.98795C133.566 10.3852 134.781 11.6124 135.202 13.1355C135.337 13.6261 135.386 14.4809 135.308 14.991C135.012 16.9247 133.505 18.457 131.605 18.7576C131.148 18.8299 130.33 18.7922 129.907 18.6792C128.318 18.2554 127.105 17.0269 126.681 15.4135C126.544 14.894 126.532 13.8429 126.656 13.3247C127.077 11.5695 128.419 10.262 130.16 9.91105C130.653 9.81178 131.566 9.84822 132.086 9.98795Z" fill="white"/>
</svg>
