<svg width="137" height="31" viewBox="0 0 137 31" fill="none" xmlns="http://www.w3.org/2000/svg">
<path fill-rule="evenodd" clip-rule="evenodd" d="M133.252 1.66717C132.827 2.58418 131.149 6.24307 129.524 9.79831C127.899 13.3535 126.538 16.2623 126.501 16.2623C126.463 16.2623 125.815 14.894 125.06 13.2217L123.688 10.1811L122.178 10.1798L120.668 10.1785L121.242 11.4362C121.557 12.1279 122.592 14.3935 123.541 16.4706L125.265 20.2475L126.522 20.2145L127.778 20.1816L131.599 11.8165C133.701 7.21565 135.776 2.67485 136.21 1.72567L137 0H135.513H134.026L133.252 1.66717ZM54.6156 3.00091C54.5726 3.0449 54.5375 4.28294 54.5375 5.75228V8.42362H57.6282H60.719L60.6882 5.70349L60.6575 2.98336L57.6757 2.95224C56.0356 2.93505 54.6586 2.95704 54.6156 3.00091ZM26.74 9.81445C22.3621 10.8038 19.4827 14.2233 18.9634 19.0497C18.7382 21.1429 19.1537 23.6846 20.0053 25.4226C21.6385 28.7557 24.655 30.6979 28.5994 30.956C32.0507 31.1818 35.3033 29.8804 37.2276 27.5037C37.8289 26.761 38.5324 25.4414 38.6831 24.7736L38.7556 24.4519H35.8557H32.9559L32.7958 24.7577C32.5212 25.2824 31.5708 26.062 30.9405 26.2792C30.0831 26.5748 28.5998 26.5421 27.7372 26.2088C26.2251 25.6244 25.1862 24.26 24.8626 22.4337L24.7849 21.995H31.9565H39.1282L39.0506 20.7373C38.9583 19.24 38.7151 17.7159 38.4042 16.6863C37.3663 13.2495 35.1755 10.9402 32.0592 9.99767C30.6466 9.5704 28.1939 9.48593 26.74 9.81445ZM88.4519 9.70728C86.1292 10.0455 84.2593 10.9364 82.7063 12.4447C81.1249 13.9808 80.1775 15.7868 79.6912 18.1927C79.4862 19.207 79.5211 21.6285 79.7571 22.7555C80.644 26.9921 83.6629 30.0233 87.8074 30.8385C89.0078 31.0746 91.2029 31.0483 92.4609 30.7827C97.5218 29.7144 100.722 25.3246 100.488 19.7721C100.411 17.947 100.133 16.8069 99.3889 15.2678C98.0086 12.4129 95.6261 10.5571 92.4648 9.87435C91.4705 9.65967 89.3775 9.57251 88.4519 9.70728ZM112.036 9.779C110.826 10.0785 109.92 10.6107 108.981 11.5729C108.505 12.0608 108.031 12.5916 107.929 12.7524C107.751 13.0315 107.742 12.9789 107.736 11.6117L107.73 10.1785H104.813H101.896V20.2986V30.4186H104.871H107.845L107.846 24.9491C107.846 21.9408 107.896 19.0408 107.956 18.5044C108.208 16.2602 109.417 14.9061 111.29 14.7679C112.312 14.6925 113.104 14.9661 113.736 15.6131C114.662 16.5592 114.643 16.3938 114.682 23.8397L114.717 30.4225L117.716 30.3914L120.714 30.3601V23.165C120.714 15.0252 120.712 14.9992 119.827 13.1868C118.971 11.433 117.376 10.1634 115.522 9.76169C114.567 9.55461 112.909 9.56291 112.036 9.779ZM50.4193 10.19C49.1143 10.4507 47.7277 11.498 46.8072 12.9182L46.3584 13.6105L46.3267 11.8945L46.2951 10.1785H43.3805H40.4659L40.495 20.2693L40.5243 30.3601L43.5189 30.3912L46.5136 30.4225L46.5579 25.068C46.6062 19.2399 46.6289 19.0153 47.2979 17.7582C48.1238 16.2062 49.8889 15.3484 51.9923 15.4768L52.936 15.5344V12.8701C52.936 10.206 52.936 10.2058 52.6786 10.1353C52.3175 10.0363 51.0331 10.0674 50.4193 10.19ZM0.00192135 10.3248C0.0318924 10.4053 1.55218 14.8671 3.38041 20.2401C5.20864 25.6131 6.73979 30.1021 6.78292 30.2158C6.85567 30.4073 7.09087 30.42 10.0229 30.3912L13.1844 30.3601L16.5321 20.5326C18.3732 15.1274 19.9102 10.5865 19.9476 10.4418L20.0156 10.1785H16.9993H13.9829L12.107 16.5255C11.0753 20.0164 10.1932 22.9482 10.1469 23.0408C10.0522 23.2298 10.1002 23.3824 7.80205 15.5914L6.20638 10.1823L3.07692 10.1804C0.619988 10.1789 -0.0408617 10.21 0.00192135 10.3248ZM54.5654 20.2693L54.5947 30.3601H57.6261H60.6575L60.6868 20.2693L60.716 10.1785H57.6261H54.5362L54.5654 20.2693ZM62.3162 12.5769V14.9753H66.9492C69.7415 14.9753 71.5821 15.0187 71.5821 15.0845C71.5821 15.1446 69.4973 17.5712 66.9492 20.477L62.3162 25.7601V28.0894V30.4186H70.7813H79.2464V27.963V25.5074L74.4403 25.4769L69.6342 25.4463L74.2687 20.1436L78.9033 14.8409V12.5097V10.1785H70.6097H62.3162V12.5769ZM30.466 14.2354C31.6118 14.6339 32.6385 16.0476 32.8735 17.5504L32.9465 18.0172H28.9131H24.8797L24.949 17.5785C24.9871 17.3372 25.2009 16.7615 25.4241 16.2991C25.8996 15.3143 26.5983 14.6247 27.4672 14.2829C28.2287 13.9834 29.6755 13.9605 30.466 14.2354ZM91.5192 14.455C91.8269 14.5642 92.3299 14.8953 92.668 15.2113C93.8583 16.3239 94.372 17.8491 94.3815 20.2986C94.3908 22.7059 93.9122 24.2211 92.7866 25.3482C91.9966 26.1392 91.2272 26.4408 89.9994 26.4408C88.7914 26.4408 88.0085 26.1395 87.248 25.3819C86.1676 24.3057 85.6578 22.6914 85.6544 20.3354C85.6504 17.5515 86.406 15.6751 87.9149 14.7212C88.8143 14.1527 90.3475 14.0395 91.5192 14.455Z" fill="white"/>
</svg>
