<svg width="134" height="21" viewBox="0 0 134 21" fill="none" xmlns="http://www.w3.org/2000/svg">
<path fill-rule="evenodd" clip-rule="evenodd" d="M0.839346 0.886023C0.377792 1.36624 0 2.14099 0 2.60769C0 3.07474 1.54638 6.96379 3.43602 11.2502C7.28231 19.9738 8.00575 21 10.3104 21C12.3847 21 13.2641 19.7557 16.7192 11.9292C19.093 6.55223 19.8383 5.17062 20.3648 5.17062C20.9918 5.17062 21.0353 5.54946 21.1973 12.4063C21.3645 19.4797 21.3864 19.6568 22.1755 20.3209C23.3116 21.2767 25.0016 21.1985 25.9524 20.1456C26.6884 19.3303 26.722 19.0386 26.6864 13.7541C26.6454 7.64748 26.9955 6.01972 28.5042 5.30473C29.545 4.81135 31.5628 5.16173 32.1891 5.94466C32.5245 6.36405 32.6975 8.31302 32.8217 13.0818C32.9875 19.4441 33.0169 19.6618 33.7998 20.3209C34.674 21.0566 36.2542 21.2077 37.2529 20.6518C38.3254 20.0545 38.6338 18.2606 38.6338 12.6168C38.6338 9.62953 38.7295 6.92608 38.8461 6.6095C39.1224 5.86107 40.7518 4.99277 41.8804 4.99277C42.3683 4.99277 43.1451 5.38583 43.6066 5.86605C44.4244 6.71657 44.446 6.87878 44.448 12.18C44.4501 18.0131 44.78 20.0687 45.806 20.64C46.8245 21.2074 48.3993 21.0619 49.28 20.3199C50.0831 19.6429 50.0872 19.5995 50.0872 11.9929V4.34679L49.0291 2.98012C47.4717 0.968905 45.6775 0.0241209 43.4203 0.0262552C41.5136 0.0283895 39.0649 0.91946 37.8673 2.04708C37.3052 2.57639 37.2006 2.56251 36.4888 1.86673C33.9834 -0.58202 28.9408 -0.493089 26.243 2.04708C25.6812 2.57603 25.5759 2.56394 24.8692 1.89128C22.941 0.0575581 19.9963 -0.515144 17.6765 0.493312C15.8416 1.29118 14.6309 3.14589 12.4791 8.45744C11.3508 11.2423 10.345 13.5228 10.2441 13.5253C10.1433 13.5278 8.91245 10.7106 7.50898 7.26473C6.09047 3.78155 4.65794 0.78073 4.28288 0.506117C3.24182 -0.255827 1.7816 -0.094687 0.839346 0.886023ZM52.036 0.795315C51.8103 1.03009 51.6264 1.47011 51.6271 1.77353C51.6295 2.90151 57.8041 20.1274 58.3593 20.5554C59.8735 21.7225 60.3457 20.9755 62.8774 13.4076C64.0453 9.91659 65.1595 6.63511 65.353 6.11541C65.6703 5.26453 65.9527 5.90803 68.1925 12.5802C69.5604 16.6553 70.9139 20.2334 71.2004 20.5312C71.8305 21.1871 73.0189 20.8812 73.5037 19.9389C73.8627 19.2406 77.3788 9.27026 78.9846 4.39552C80.0496 1.16277 79.8753 0.188462 78.2742 0.42359C77.5172 0.534574 77.2058 1.23249 74.967 7.82889C73.6077 11.8346 72.4022 15.3562 72.2876 15.6547C72.1693 15.9638 71.0025 12.9498 69.5809 8.66482C68.2068 4.5218 66.9801 0.960368 66.8553 0.750139C66.4519 0.0707211 64.9988 0.32897 64.5007 1.16882C64.2398 1.60884 62.981 5.14501 61.703 9.02623C60.3382 13.1718 59.279 15.8869 59.1361 15.607C59.0017 15.3452 57.8577 12.0093 56.5931 8.19421C55.3288 4.37916 54.1362 1.05783 53.9438 0.8131C53.5 0.249646 52.5687 0.241109 52.036 0.795315ZM84.6765 0.878196C82.6022 1.45837 81.741 2.2662 82.2743 3.13201C82.7051 3.83135 83.4767 3.84522 86.1568 3.20138C88.8448 2.55611 91.0435 2.97408 92.5591 4.41935C93.566 5.37943 93.7947 5.87423 93.9352 7.39919L94.1041 9.22828L92.7803 8.82739C92.0521 8.60684 90.0715 8.42579 88.3791 8.42507C85.0867 8.42401 83.2873 8.97003 81.7584 10.4345C79.4499 12.6449 79.4523 16.9071 81.7635 19.1204C84.4272 21.6719 90.118 21.5471 92.9294 18.8757L94.0204 17.8387V18.8604C94.0204 19.9154 94.778 21 95.5148 21C96.6249 21 96.7555 20.1584 96.7555 13.0007C96.7555 6.29682 96.708 5.75685 95.9862 4.27066C95.1517 2.5522 93.6162 1.29296 91.6675 0.729862C89.9925 0.245732 86.6871 0.316164 84.6765 0.878196ZM100.927 0.795315C100.628 1.10621 100.516 3.81214 100.516 10.7429C100.516 19.7916 100.549 20.2818 101.178 20.6318C102.033 21.1081 102.078 21.1024 102.714 20.4412C103.146 19.9912 103.251 18.9955 103.251 15.3477C103.251 9.54771 103.778 7.51906 105.814 5.4801C106.84 4.45208 107.813 3.86906 109.053 3.53824C111.045 3.00716 111.696 2.20929 111.093 1.03791C110.279 -0.545736 106.277 0.942226 104.363 3.54002L103.251 5.0479V3.13522C103.251 1.17735 102.851 0.368455 101.884 0.368455C101.583 0.368455 101.152 0.560542 100.927 0.795315ZM117.048 0.94756C116.268 1.23533 115.054 2.05242 114.351 2.76314C110.419 6.73578 110.229 14.0539 113.953 18.0966C117.224 21.647 123.269 21.9839 126.957 18.8212C129.275 16.8328 127.811 14.971 125.396 16.8363C123.051 18.6476 120.164 18.9984 117.721 17.768C116.016 16.9093 114.982 15.5511 114.338 13.3265L113.883 11.7514H120.847C124.678 11.7514 128.055 11.6543 128.352 11.5355C129.085 11.2431 129.07 8.5044 128.323 6.22461C127.597 4.0053 125.139 1.39861 123.212 0.80314C121.373 0.234706 118.818 0.294465 117.048 0.94756ZM129.925 1.33138C128.196 3.61792 130.899 6.42986 133.096 4.63136C134.846 3.19925 133.888 0.368455 131.653 0.368455C130.972 0.368455 130.42 0.676506 129.925 1.33138ZM133.197 1.61097C133.896 2.72045 133.616 4.03518 132.577 4.52785C130.96 5.29441 129.277 3.72606 129.897 2.02965C130.46 0.489042 132.34 0.250356 133.197 1.61097ZM130.95 2.74464C130.954 3.69832 131.048 3.95123 131.266 3.59267C131.515 3.18253 131.677 3.16865 132.086 3.52223C132.522 3.89858 132.588 3.79151 132.54 2.78804C132.495 1.86282 132.32 1.58927 131.714 1.49963C131.031 1.39897 130.945 1.53805 130.95 2.74464ZM132.141 2.50275C132.025 2.6984 131.785 2.85847 131.608 2.85847C131.431 2.85847 131.287 2.6984 131.287 2.50275C131.287 2.30711 131.527 2.14704 131.82 2.14704C132.113 2.14704 132.258 2.30711 132.141 2.50275ZM122.671 3.35825C124.464 4.329 126.158 7.01822 126.158 8.89426C126.158 9.59325 125.962 9.61708 120.232 9.61708C116.973 9.61708 114.211 9.51819 114.095 9.39725C113.798 9.08884 115.054 5.77321 115.798 4.90206C117.475 2.93744 120.598 2.23597 122.671 3.35825ZM93.0131 11.0542L94.2286 11.3857L94.0265 13.2934C93.7793 15.6312 93.0381 16.8712 91.3656 17.7459C88.6345 19.1745 85.5496 18.9778 83.9092 17.271C81.7064 14.9791 82.9495 11.5376 86.2755 10.7184C87.7863 10.3463 91.0066 10.5067 93.0131 11.0542Z" fill="white"/>
</svg>
