<svg width="120" height="35" viewBox="0 0 120 35" fill="none" xmlns="http://www.w3.org/2000/svg">
<path fill-rule="evenodd" clip-rule="evenodd" d="M7.13898 0.0610051C3.77529 0.525742 1.43062 2.33234 0.691246 5.029C0.486344 5.77603 0.562082 6.12006 0.964483 6.27119C1.4052 6.43654 4.84132 6.72496 5.02302 6.61177C5.11626 6.55379 5.25323 6.33332 5.32747 6.12194C5.63442 5.24818 5.80201 4.96212 6.21981 4.59903C7.11346 3.82246 8.54108 3.63785 9.60301 4.16155C10.5903 4.64851 10.8439 5.20728 10.8447 6.89821C10.8452 7.84349 10.8261 7.96015 10.6702 7.96103C10.2271 7.96341 7.68305 8.27702 6.68685 8.45205C4.44172 8.84655 3.04993 9.45323 1.89085 10.5426C1.07104 11.3133 0.655928 11.9568 0.275638 13.047C0.026013 13.7625 0 13.9678 0 15.22C0 16.4719 0.025913 16.6767 0.274137 17.3823C1.14277 19.8522 3.06554 21.0029 6.09295 20.8647C8.22662 20.7672 9.47965 20.2424 11.0009 18.8091L11.6068 18.2383L12.1488 18.9865C12.7517 19.8187 13.6399 20.6718 13.9953 20.7598C14.3344 20.8439 14.5688 20.6867 16.1858 19.2917C17.9147 17.8001 17.9183 17.7911 17.1921 16.7864C16.941 16.439 16.6145 15.8999 16.4667 15.5885L16.198 15.0225L16.1339 10.0343C16.083 6.07018 16.0382 4.91106 15.9159 4.38804C15.2758 1.65188 12.8925 0.110096 9.14448 0.00746904C8.40161 -0.0128786 7.49916 0.0112225 7.13898 0.0610051ZM55.9028 0.056659C53.7149 0.362565 52.069 1.12471 50.8752 2.38469C50.1742 3.12441 49.5469 4.31416 49.3489 5.27929C49.2213 5.90098 49.2226 5.90977 49.475 6.12402C49.6954 6.31119 49.9757 6.36483 51.5434 6.5202C52.5408 6.61898 53.4634 6.6734 53.5935 6.6412C53.8439 6.57917 53.9391 6.42834 54.2207 5.64831C54.3168 5.38192 54.5548 4.98978 54.7496 4.77692C55.982 3.43012 58.5494 3.59044 59.2793 5.05971C59.4819 5.46766 59.5233 5.72062 59.5537 6.73751L59.5896 7.93496L58.9043 8.00143C54.9132 8.38903 53.0437 8.84359 51.5657 9.786C49.664 10.9986 48.6643 12.8665 48.6643 15.2072C48.6643 18.1727 50.2011 20.2003 52.8758 20.7635C53.777 20.9532 55.7056 20.8942 56.612 20.6493C57.727 20.3478 58.7839 19.7108 59.8256 18.7126L60.3314 18.2277L60.8016 18.9072C61.3616 19.7163 62.3408 20.666 62.7092 20.7572C63.0519 20.8422 63.1933 20.7465 64.9415 19.2484L65.0209 19.1803C65.9498 18.3846 66.3396 18.0507 66.3569 17.6985C66.3693 17.4439 66.1869 17.1797 65.8727 16.7245L65.8356 16.6707C65.7936 16.6098 65.7534 16.5519 65.7148 16.4964C65.4918 16.1752 65.3255 15.9357 65.2005 15.6763C64.8338 14.9152 64.8227 13.9828 64.7789 10.3152C64.7763 10.0995 64.7736 9.87437 64.7707 9.63922C64.7156 5.14506 64.6877 4.48899 64.5307 4.00904C63.7 1.46885 61.4294 0.10496 57.8689 0.00756782C57.126 -0.0127798 56.2413 0.00934577 55.9028 0.056659ZM28.7808 0.309128C27.4413 0.665212 26.3978 1.5292 25.6779 2.87817L25.2587 3.66333L25.2556 2.30517C25.2554 2.19571 25.2557 2.09305 25.256 1.99677C25.2579 1.3445 25.259 0.985397 25.0808 0.788207C24.8626 0.546671 24.3755 0.548059 23.2917 0.551148C23.1612 0.55152 23.0221 0.551917 22.8737 0.551917C21.2446 0.551917 20.8555 0.57908 20.6726 0.70571L20.4501 0.859404V10.5679V20.2763L20.6608 20.4645C20.8538 20.6368 21.0466 20.6526 22.9516 20.6526C24.8566 20.6526 25.0493 20.6368 25.2421 20.4645C25.451 20.2777 25.4526 20.2368 25.4562 14.9331C25.4603 8.83974 25.5337 7.29598 25.8613 6.42508C26.2904 5.28393 27.1745 4.7138 28.3332 4.83105C28.9913 4.89762 29.4208 5.13893 29.779 5.64357C30.324 6.41135 30.3515 6.80043 30.3534 13.7696C30.3544 17.7211 30.3921 20.1907 30.4531 20.3031C30.6258 20.6218 31.1224 20.702 32.9245 20.702C34.8388 20.702 35.3073 20.6052 35.4034 20.19C35.4326 20.0641 35.4698 17.0943 35.486 13.5902C35.5123 7.90434 35.5337 7.1652 35.6857 6.71686C35.9298 5.9962 36.3461 5.48287 36.9485 5.15948C37.422 4.90533 37.5493 4.88113 38.2488 4.91254C39.1874 4.95472 39.6496 5.21222 39.9775 5.87579C40.3077 6.54371 40.347 7.40286 40.3538 14.0935C40.3601 20.2508 40.361 20.2771 40.5708 20.4645C40.7638 20.6368 40.9567 20.6526 42.8693 20.6526C44.8252 20.6526 44.9693 20.6402 45.1522 20.4551C45.3421 20.263 45.3481 20.043 45.3703 12.4543C45.3941 4.3676 45.3874 4.21232 44.9703 3.11671C44.1855 1.05557 41.5332 -0.226233 39.0378 0.249665C37.5117 0.540756 36.0045 1.63834 35.3981 2.90049C35.2382 3.23307 35.085 3.50707 35.0575 3.50934C35.0299 3.51161 34.8499 3.21973 34.6573 2.86069C34.2124 2.03127 33.3224 1.06752 32.6852 0.725169C32.4134 0.57908 31.9261 0.391506 31.6022 0.308239C30.8777 0.121949 29.4832 0.122344 28.7808 0.309128ZM91.7859 0.3033C88.8723 0.944054 86.864 2.87155 85.7863 6.06129C85.2036 7.78591 84.9715 10.0765 85.1783 12.062C85.6733 16.8165 87.9715 19.9669 91.5624 20.8137C92.8296 21.1126 94.7935 21.0445 95.9379 20.6618C98.5121 19.8013 100.563 17.5251 101.42 14.578C101.957 12.7312 102.091 10.0826 101.747 8.10821C101.042 4.06604 98.8264 1.2713 95.6378 0.403359C94.7955 0.174103 92.6292 0.117801 91.7859 0.3033ZM113.222 0.309424C111.735 0.704722 110.708 1.63617 109.9 3.32374L109.595 3.95966L109.595 2.51606C109.595 1.20522 109.576 1.04846 109.387 0.81219L109.18 0.551917H107.197C105.394 0.551917 105.193 0.569005 104.979 0.740775L104.742 0.929534V10.5661V20.2026L104.97 20.4276C105.193 20.6474 105.247 20.6526 107.286 20.6526C109.166 20.6526 109.394 20.6348 109.575 20.4725C109.772 20.2966 109.778 20.152 109.823 14.2003C109.863 8.8106 109.888 8.0285 110.044 7.41678C110.369 6.14259 110.89 5.35802 111.644 5.00796C112.563 4.58145 113.778 4.84616 114.272 5.58075L114.285 5.60041C114.361 5.71272 114.426 5.8096 114.483 5.91137C114.837 6.55063 114.844 7.38284 114.893 13.4444L114.894 13.6115C114.944 19.86 114.959 20.3117 115.126 20.4763C115.287 20.6347 115.525 20.6526 117.461 20.6526C119.607 20.6526 119.618 20.6515 119.809 20.4194C119.993 20.1948 120 19.9327 120 13.2791C120 6.12609 119.954 5.06416 119.583 3.68556C119.12 1.96331 117.821 0.712229 116.075 0.30577C115.292 0.12353 113.914 0.125308 113.222 0.309424ZM69.7248 0.569993C69.6148 0.632221 69.4916 0.73149 69.4512 0.790459C69.4108 0.849428 69.377 1.63528 69.3761 2.5368C69.3748 4.00055 69.3942 4.19346 69.5576 4.33945C69.7201 4.48465 70.1116 4.50292 73.0594 4.50292C74.8847 4.50292 76.3782 4.52485 76.3782 4.55162C76.3782 4.57838 74.7512 6.90078 72.7628 9.71261C70.7744 12.5243 69.0524 15.0027 68.9359 15.22C68.7395 15.5867 68.7243 15.7671 68.7243 17.7279V19.8407L68.9779 20.0278C69.2308 20.2145 69.2336 20.214 70.0029 19.8631C71.9627 18.9691 73.7458 18.5898 75.978 18.5921C78.15 18.5943 79.7075 18.9065 81.6308 19.7254C82.648 20.1587 82.8776 20.1889 83.1223 19.9219C83.2743 19.7561 83.2906 19.5231 83.2629 17.9071C83.2616 17.8303 83.2604 17.7564 83.2592 17.6852C83.2418 16.6152 83.2343 16.1584 83.0128 15.8612C82.8478 15.6398 82.564 15.507 82.0688 15.2752C82.0246 15.2545 81.9786 15.233 81.9309 15.2105C80.4525 14.5153 78.398 14.0851 76.5532 14.0844C76.1267 14.0842 75.7778 14.0587 75.7778 14.0277C75.7778 13.9967 77.3305 11.7812 79.2282 9.10436C81.1258 6.42755 82.75 4.06841 82.8375 3.86177C83.0731 3.30488 83.0101 0.932201 82.7528 0.678646C82.5858 0.513889 82.1661 0.501048 76.2496 0.479614C71.6401 0.462921 69.8707 0.487417 69.7248 0.569993ZM94.4223 4.11582C95.013 4.27771 95.6191 4.93871 95.8721 5.69691C96.3153 7.02534 96.4275 8.0441 96.4259 10.7257C96.4247 12.6491 96.3867 13.4196 96.265 13.9853C95.909 15.6405 95.4097 16.4822 94.5323 16.9059C93.8149 17.2524 92.9159 17.2237 92.3211 16.835C91.1796 16.0892 90.7185 14.5151 90.6186 11.0221C90.5274 7.83786 90.8054 6.06722 91.5681 4.97279C92.1413 4.15019 93.2899 3.80537 94.4223 4.11582ZM10.8453 12.2025C10.8453 13.7698 10.7439 14.3769 10.3411 15.22C9.73057 16.4977 8.7904 17.1835 7.64403 17.187C6.7971 17.1898 6.24313 16.9138 5.84213 16.2896C4.97639 14.9419 5.33377 12.8315 6.586 11.8971C7.26074 11.3937 8.44703 11.0239 9.69155 10.9291C10.2436 10.887 10.7291 10.8464 10.7703 10.8385C10.8115 10.8308 10.8453 11.4446 10.8453 12.2025ZM59.545 12.479C59.5055 13.8436 59.4593 14.2373 59.2812 14.7261C58.5526 16.7259 56.784 17.7126 55.2834 16.9565C55.0821 16.855 54.8439 16.6895 54.754 16.5886C53.9007 15.6313 53.8633 13.615 54.6783 12.5043C55.3151 11.6365 56.6986 11.0576 58.451 10.9261C58.9837 10.886 59.4586 10.8467 59.5062 10.8388C59.5538 10.8309 59.5713 11.569 59.545 12.479ZM73.5125 27.7717C66.7938 32.4934 57.0322 35 48.639 35C36.8761 35 26.2773 30.8612 18.272 23.9826C17.639 23.4386 18.2108 22.7002 18.9664 23.1277C27.6251 27.9077 38.3056 30.8029 49.3537 30.8029C56.8076 30.8029 64.9967 29.3262 72.5322 26.2949C73.6554 25.8091 74.6152 26.9944 73.5125 27.7717ZM67.5778 23.6965C69.8563 23.4389 74.8819 22.8841 75.7762 23.9541C76.6706 25.0044 74.7754 29.4234 73.9236 31.3852C73.6681 31.9797 74.2217 32.2175 74.7967 31.7617C78.5445 28.8289 79.5241 22.7057 78.7575 21.814C77.9909 20.9421 71.4108 20.1891 67.4074 22.8048C66.7899 23.2209 66.8964 23.7758 67.5778 23.6965Z" fill="white"/>
</svg>
