<svg width="113" height="37" viewBox="0 0 113 37" fill="none" xmlns="http://www.w3.org/2000/svg">
<path d="M13.0047 0.0628815C8.67641 0.598423 4.85268 2.94588 2.46285 6.51616C1.17943 8.43519 0.435923 10.4345 0.12613 12.7552C-0.0420433 14.0762 -0.0420433 14.942 0.12613 16.2362C0.85193 21.8505 4.72876 26.5187 10.1369 28.3038C11.6416 28.8036 12.8719 28.9911 14.6864 29C17.8286 29 20.2096 28.3216 22.564 26.7507C23.4757 26.1438 24.9627 24.7157 25.6531 23.7963C26.6178 22.5021 27.379 20.7437 27.8039 18.8247C27.9721 18.0749 27.9986 17.6644 27.9986 15.8971C28.0075 14.7635 27.9721 13.6924 27.9367 13.505L27.8659 13.1747H21.2805H14.6864V15.183V17.1913H19.3333H23.9802V17.4501C23.9802 18.0035 23.5288 19.4941 23.0862 20.4046C22.6702 21.2525 22.5374 21.431 21.6877 22.2789C20.3689 23.6 19.2625 24.2158 17.2621 24.7603C16.5009 24.9656 16.2442 24.9834 14.8192 24.9924C13.6331 24.9924 13.0578 24.9567 12.5798 24.8406C10.4378 24.3408 8.74722 23.4214 7.35758 22.0023C6.4636 21.074 5.99449 20.4224 5.43686 19.2888C4.56944 17.5216 4.27735 16.0845 4.35701 13.987C4.41897 12.2822 4.71106 11.1397 5.46342 9.64908C7.21596 6.15021 10.7299 3.97234 14.6333 3.98126C17.1116 3.99019 18.9792 4.64177 21.0681 6.23054L21.7851 6.77501L21.9798 6.56079C22.0949 6.44476 22.6879 5.81103 23.3163 5.15946L24.4493 3.97234L24.1483 3.65994C23.7412 3.2315 22.4843 2.30323 21.7054 1.84802C20.422 1.09826 18.6429 0.455612 17.1647 0.187841C16.1645 0.00932693 13.934 -0.0620785 13.0047 0.0628815Z" fill="white"/>
<path d="M90 14.5V28L92.0043 27.9825L94 27.9562L93.9914 27.7545C93.9914 27.6494 93.9828 21.5831 93.9742 14.2808L93.957 1H91.9785H90V14.5Z" fill="white"/>
<path d="M36.6475 11.0498C35.3657 11.2571 34.127 11.7063 33.0947 12.3455C32.2603 12.8552 31.142 13.8918 30.6172 14.6347C30.0667 15.4035 29.4903 16.6647 29.2237 17.6581C29.0172 18.4355 29 18.6687 29 20.0336C29 21.4071 29.0172 21.623 29.2323 22.4005C29.8258 24.5859 31.0646 26.3222 32.9141 27.5489C34.4367 28.5509 35.6754 28.931 37.6282 28.9914C39.6669 29.0606 41.1207 28.715 42.6261 27.808C44.6907 26.5555 46.0843 24.7242 46.7123 22.4523C47.0133 21.3466 47.0908 19.4807 46.8843 18.3837C46.0757 14.0559 42.6778 11.1448 38.2733 11.0066C37.6626 10.9893 36.9228 11.0066 36.6475 11.0498ZM39.3572 14.7297C40.6476 15.1098 41.8261 16.1118 42.4369 17.3644C42.91 18.3405 43.0735 19.1352 43.0218 20.2927C42.91 22.7028 41.5939 24.5341 39.4347 25.2684C38.7723 25.493 37.1722 25.493 36.5099 25.2684C35.641 24.9747 35.1851 24.681 34.5141 24.0072C33.456 22.9533 32.9055 21.5885 32.8969 20.0509C32.8969 18.1591 33.7915 16.3364 35.1765 15.4121C35.7615 15.0234 36.5271 14.7038 37.1378 14.5915C37.7142 14.4878 38.7637 14.5569 39.3572 14.7297Z" fill="white"/>
<path d="M58.1564 11.049C54.8574 11.4461 51.9482 13.5527 50.6974 16.4362C50.1536 17.6967 49.9543 18.7845 50.0086 20.2868C50.063 21.8322 50.3258 22.8768 50.9784 24.1287C52.2835 26.6324 54.7034 28.3504 57.658 28.8857C58.7818 29.0843 60.9751 29.0152 61.9902 28.7476C66.0867 27.6856 68.7966 24.4567 68.9869 20.4508C69.1229 17.6708 68.1984 15.4175 66.1592 13.5095C64.8994 12.3267 63.3225 11.5238 61.5733 11.1785C60.7485 11.0144 59.0174 10.9454 58.1564 11.049ZM61.1473 14.7959C63.3678 15.5384 64.8451 17.619 64.8451 20.0019C64.8451 20.9602 64.6366 21.7631 64.1744 22.6696C63.8391 23.3085 63.6397 23.5675 63.0868 24.0682C62.0264 25.0265 60.8845 25.4668 59.4706 25.4668C58.0114 25.4668 56.942 25.0265 55.8181 23.956C55.2472 23.4207 55.0115 23.1185 54.7577 22.6178C53.643 20.3645 54.078 17.6536 55.8181 16.0132C57.2773 14.6405 59.2893 14.1829 61.1473 14.7959Z" fill="white"/>
<path d="M77.5042 10.0969C73.8862 10.7825 70.9488 13.7119 70.1786 17.3981C69.8293 19.072 69.9995 21.1466 70.6264 22.7404C71.4592 24.8862 73.0891 26.667 75.1578 27.6821C78.1221 29.1512 81.4356 28.8307 83.576 26.8718L83.97 26.5068L84.0327 26.7561C84.1402 27.1567 83.9969 29.0176 83.7999 29.7567C83.3432 31.5642 82.2058 32.7128 80.4416 33.1579C79.8236 33.3182 78.6326 33.336 77.9609 33.1936C76.743 32.9443 75.4623 31.9737 74.6742 30.7005L74.2533 30.0149L72.6414 30.6738C71.7637 31.0388 70.9667 31.3683 70.8771 31.4039C70.7249 31.4662 70.7428 31.5374 71.11 32.2408C72.2204 34.3867 74.128 35.9449 76.5191 36.6305C79.7162 37.5565 83.3521 36.7017 85.4656 34.5202C86.6746 33.2826 87.4 31.7511 87.7851 29.6409C87.9284 28.8841 87.9463 27.8601 87.9731 19.6864L88 10.5866H86.0298H84.0685V11.2989C84.0685 11.6907 84.0506 12.0113 84.0238 12.0113C83.9969 12.0113 83.6655 11.7619 83.2805 11.4592C82.5103 10.8538 81.5968 10.3908 80.7371 10.186C79.9042 9.98117 78.346 9.93666 77.5042 10.0969ZM80.8535 13.9167C82.1163 14.353 83.0208 15.181 83.6655 16.5077C84.588 18.3864 84.5432 20.4788 83.5491 22.3754C82.0357 25.2602 78.149 25.7944 75.7758 23.4438C74.6832 22.3665 74.128 20.9953 74.128 19.348C74.128 16.4899 75.9191 14.1838 78.5161 13.703C79.1162 13.5872 80.1908 13.6852 80.8535 13.9167Z" fill="white"/>
<path d="M103.264 11.0914C102.945 11.1344 102.297 11.2979 101.819 11.4527C98.8215 12.4505 96.7023 14.9707 96.1082 18.2564C95.9131 19.3402 95.9929 21.3357 96.2589 22.3421C97.0038 25.0945 98.8747 27.2707 101.357 28.2684C104.47 29.5328 108.026 29.1372 110.606 27.2449C111.28 26.7546 112.566 25.516 112.752 25.1719C112.832 25.0343 112.663 24.8967 111.306 24.0193C110.455 23.4775 109.728 23.0302 109.693 23.0302C109.657 23.0302 109.542 23.1334 109.444 23.2624C108.735 24.1484 107.83 24.8193 106.855 25.1891C106.385 25.3612 106.172 25.387 105.082 25.387C104.035 25.387 103.76 25.3526 103.335 25.1977C102.324 24.8365 101.375 24.0623 100.825 23.1506C100.692 22.9356 100.604 22.7463 100.622 22.7291C100.63 22.7205 103.432 21.5937 106.828 20.2261L113 17.7575L112.823 17.2758C111.156 12.8203 107.573 10.4979 103.264 11.0914ZM106.119 14.6868C106.837 14.9019 107.556 15.3835 107.946 15.9168C108.114 16.1405 108.238 16.3383 108.221 16.3555C108.105 16.4415 100.054 19.6756 99.9476 19.6756C99.8324 19.6756 99.9033 18.8929 100.072 18.265C100.32 17.3189 100.719 16.6307 101.446 15.9254C102.413 14.9707 103.468 14.5234 104.78 14.5234C105.312 14.5148 105.729 14.5664 106.119 14.6868Z" fill="white"/>
</svg>
