<svg width="1724" height="6045" viewBox="0 0 1724 6045" fill="none" xmlns="http://www.w3.org/2000/svg">
<path d="M2 6043V4903.5V3090.5C2 3083.32 7.82029 3077.5 15 3077.5H171.5C178.68 3077.5 184.5 3071.68 184.5 3064.5V2910C184.5 2902.82 190.32 2897 197.5 2897H1709.5C1716.68 2897 1722.5 2891.18 1722.5 2884V1994.5C1722.5 1987.32 1716.68 1981.5 1709.5 1981.5H1606.5C1599.32 1981.5 1593.5 1975.68 1593.5 1968.5V1845.5C1593.5 1838.32 1587.68 1832.5 1580.5 1832.5H15C7.82031 1832.5 2 1826.68 2 1819.5V417C2 409.82 7.8203 404 15 404H1660.5C1667.68 404 1673.5 398.18 1673.5 391V2" stroke="white" stroke-opacity="0.7" stroke-width="3" stroke-linecap="round" stroke-linejoin="round" stroke-dasharray="2 20"/>
</svg>
