<svg width="104" height="29" viewBox="0 0 104 29" fill="none" xmlns="http://www.w3.org/2000/svg">
<path fill-rule="evenodd" clip-rule="evenodd" d="M0 14.5001V29L1.31852 28.8038C2.04369 28.6959 3.02246 28.5613 3.49352 28.5047C3.96458 28.4481 4.37538 28.394 4.40635 28.3846C4.45111 28.3709 4.46296 26.7474 4.46405 20.4728C4.46486 16.0348 4.48244 12.6088 4.50425 12.648C4.52562 12.6863 5.6536 16.0761 7.01089 20.1807C8.36818 24.2854 9.49296 27.6603 9.51036 27.6805C9.52776 27.7006 9.91543 27.6749 10.3719 27.6232C10.8283 27.5715 11.6765 27.4759 12.2568 27.4108C12.837 27.3457 13.5317 27.258 13.8007 27.216L14.2896 27.1395V13.5699V0.000326376H12.1034H9.9171V8.21664C9.9171 12.832 9.90006 16.4136 9.87815 16.3888C9.85674 16.3645 8.56386 12.6672 7.00508 8.17246L4.17091 0.000326376H2.08543H0V14.5001ZM18.572 13.3837V26.7675L18.696 26.7523C18.7642 26.7439 21.4367 26.5271 24.635 26.2705C27.8332 26.0139 30.5159 25.7932 30.5965 25.7802L30.743 25.7564V23.5963V21.4362L30.4387 21.4363C30.2714 21.4363 29.5868 21.4677 28.9174 21.5061C27.6343 21.5796 27.3829 21.5963 24.7284 21.7837C23.8129 21.8483 23.037 21.9012 23.0042 21.9012C22.9553 21.9012 22.9446 21.2965 22.9446 18.5368V15.1723L23.2488 15.1419C23.4162 15.1252 24.7449 15.0978 26.2014 15.0811L28.8497 15.0507V12.7988V10.5469L26.3817 10.5861C25.0244 10.6076 23.7007 10.6253 23.4404 10.6253H22.9671V7.57961V4.53395L26.8555 4.52204L30.7439 4.51018L30.7322 2.26686L30.7205 0.0235757L24.6462 0.0117637L18.572 0V13.3837ZM33.5829 2.25509V4.50986L35.848 4.5219L38.1132 4.53395L38.1246 14.9916L38.1359 25.4493L38.643 25.4191C38.9218 25.4026 39.9056 25.3889 40.8291 25.3888L42.5083 25.3886V14.9496V4.5107H44.7847H47.0611V2.25551V0.000326376H40.322H33.5829V2.25509ZM49.901 12.555V25.1096H52.0422H54.1834V19.9715V14.8334H57.2036H60.2238V12.5782V10.323H57.2033H54.1827L54.1943 7.42849L54.2059 4.53395L58.1841 4.52209L62.1622 4.51018V2.25528V0.000326376H56.0316H49.901V12.555ZM64.9119 12.7125V25.4248L65.8923 25.4554C67.2415 25.4975 69.9047 25.6106 70.8847 25.6673C74.5522 25.8794 76.2952 25.9872 76.5532 26.0175L76.7673 26.0428V23.8126V21.5824L76.5307 21.5564C76.1286 21.5122 72.5269 21.3008 71.2904 21.2489C70.6458 21.2218 69.9308 21.1881 69.7014 21.1741L69.2844 21.1485V10.5744V0.000326376H67.0982H64.9119V12.7125ZM80.4846 0.0584497C80.4728 0.0904408 80.4684 6.01725 80.4747 13.2292L80.4863 26.3418L80.7116 26.3533C81.8327 26.4105 84.3547 26.6098 84.6672 26.666L84.7912 26.6882V13.3443V0.000326376H82.6486C80.9759 0.000326376 80.5013 0.013067 80.4846 0.0584497ZM88.5777 0.0353877C88.5777 0.0546381 89.7215 3.12141 91.1193 6.85041L93.661 13.6304L90.8489 20.2337C89.3022 23.8654 88.0368 26.8563 88.0368 26.88C88.0368 26.9037 88.0456 26.923 88.0563 26.923C88.1754 26.923 91.5161 27.3182 92.0196 27.3919C92.3879 27.4458 92.705 27.4722 92.7242 27.4506C92.7509 27.4206 94.3882 23.5095 95.8357 20.018L95.9321 19.7855L97.5074 23.9675C98.3738 26.2675 99.09 28.1571 99.0992 28.1664C99.1218 28.1898 102.359 28.75 103.265 28.8874L104 28.9988L103.976 28.9025C103.963 28.8496 102.715 25.4301 101.203 21.3038L98.4534 13.8013L101.224 6.94262C102.748 3.17033 103.994 0.0650984 103.994 0.0421281C103.994 0.0179023 102.993 0.000326376 101.616 0.000326376H99.2379L97.7077 3.78997C96.8662 5.87427 96.1665 7.57956 96.1529 7.57947C96.1394 7.57942 95.6436 6.29778 95.0513 4.73143C94.4589 3.16507 93.8131 1.45983 93.616 0.941924L93.2578 0.000326376H90.9177C89.6307 0.000326376 88.5777 0.0160907 88.5777 0.0353877Z" fill="white"/>
</svg>
