<svg width="210" height="26" viewBox="0 0 210 26" fill="none" xmlns="http://www.w3.org/2000/svg">
<path fill-rule="evenodd" clip-rule="evenodd" d="M209.539 0.0401974C209.653 0.0622401 209.838 0.0622401 209.952 0.0401974C210.065 0.0180621 209.972 0 209.745 0C209.518 0 209.426 0.0180621 209.539 0.0401974ZM206.812 0.216634C194.879 1.3347 184.467 3.5824 174.588 7.17267C163.504 11.2006 153.53 17.0598 146.179 23.8604C145.467 24.519 144.701 25.249 144.476 25.4825L144.068 25.9074H147.983H151.898L153.198 24.6478C163.987 14.1923 179.028 6.4586 196.59 2.33754C200.425 1.43759 204.232 0.757139 208.691 0.17486L209.333 0.0911353L208.737 0.0915988C208.409 0.0918767 207.543 0.148191 206.812 0.216634ZM67.5403 9.80687C67.1147 10.3337 66.451 11.1563 66.0655 11.6349L65.3644 12.5053L65.6346 12.8852C65.7831 13.0943 66.907 14.6614 68.1321 16.3679L70.3595 19.4705L65.1115 19.5169L59.8634 19.5632L58.5785 20.9524L57.2936 22.3417L64.9233 22.37L72.553 22.3983L73.8229 24.1992L75.0927 26H78.0278H80.963L80.7362 25.699C80.6114 25.5335 77.8386 21.7512 74.5742 17.2941C71.3099 12.8369 68.566 9.11345 68.4766 9.01963C68.3198 8.85505 68.287 8.88265 67.5403 9.80687ZM4.06113 9.51698C2.44737 9.73555 1.37486 10.3601 0.856707 11.3829C0.529426 12.029 0.423725 12.9566 0.466812 14.8044C0.504491 16.4238 0.507057 16.4406 0.802893 17.0479C1.26402 17.9942 2.13246 18.6034 3.44773 18.9033C4.02785 19.0356 5.02235 19.0538 11.6756 19.0538H19.2437V20.9524V22.851H9.6218H0L0.124406 23.2073C0.479373 24.2238 1.06041 24.9148 1.93518 25.3609C3.02144 25.915 2.82901 25.9045 12.0096 25.906C20.0282 25.9073 20.4375 25.8992 21.103 25.7273C21.4863 25.6283 21.9308 25.4788 22.0908 25.3953C22.6176 25.12 23.1528 24.5355 23.4239 23.939C23.685 23.3648 23.6872 23.3445 23.7201 21.2527C23.7505 19.3196 23.7372 19.0919 23.5606 18.5042C23.2165 17.3598 22.2863 16.568 20.7563 16.1172C20.2559 15.9697 19.5228 15.9526 12.6201 15.927L5.03399 15.8987V14.1421V12.3854H14.1099C24.2394 12.3854 23.363 12.4513 22.9924 11.7173C22.7133 11.1648 21.926 10.4094 21.2925 10.0863C20.049 9.45206 20.4518 9.47966 12.1388 9.45947C8.00428 9.44937 4.36934 9.4753 4.06113 9.51698ZM89.023 9.5192C87.2216 9.76195 85.9736 10.6739 85.5717 12.041C85.3605 12.7597 85.3664 22.5898 85.5786 23.3115C85.9328 24.5167 86.7784 25.2613 88.2818 25.6921C88.8328 25.8501 89.4181 25.8611 97.2595 25.8611C105.022 25.8611 105.692 25.8488 106.239 25.6961C107.081 25.4615 107.576 25.1876 108 24.7233C108.382 24.3045 108.765 23.5662 108.867 23.0536L108.925 22.7584H99.7004H90.4755V17.5719V12.3854H99.6889C108.097 12.3854 108.902 12.3723 108.902 12.2363C108.902 11.9554 108.319 10.9823 107.97 10.6804C107.458 10.2375 106.809 9.90708 105.998 9.6772C105.287 9.47558 105.212 9.47364 97.4428 9.45734C93.1318 9.44826 89.3429 9.47613 89.023 9.5192ZM30.6114 17.7539V26H33.0867H35.5619V22.858V19.7159L42.7355 19.6769C49.1369 19.6421 49.9827 19.6205 50.5929 19.4768C52.5193 19.0235 53.5958 18.0251 53.8885 16.4203C54.0174 15.7135 54.0177 13.6909 53.889 12.9813C53.6079 11.4304 52.4583 10.3415 50.4968 9.76787C49.8246 9.57125 49.7163 9.56884 40.2144 9.53846L30.6114 9.50781V17.7539ZM116.236 10.9498V12.3854H127.375H138.513V10.9498V9.51429H127.375H116.236V10.9498ZM144.572 9.54893C144.593 9.56801 146.647 11.09 149.136 12.9311C152.072 15.1018 153.699 16.2503 153.766 16.1981C154.036 15.9875 155.816 14.8524 156.777 14.2779C157.369 13.9247 157.853 13.6137 157.855 13.5868C157.856 13.5599 156.605 12.6326 155.076 11.5261L152.294 9.51429H148.414C146.28 9.51429 144.551 9.52985 144.572 9.54893ZM48.8549 12.4892C49.0313 12.5718 49.2789 12.7523 49.4049 12.8905C49.6252 13.1318 49.6341 13.189 49.6341 14.3611C49.6341 15.8041 49.5318 16.0914 48.9176 16.3732C48.5525 16.5406 48.2214 16.5492 42.048 16.5511L35.5619 16.5531L35.5632 14.6313C35.5638 13.5743 35.5897 12.6142 35.6206 12.4976L35.6768 12.2857L42.1054 12.3124C47.8038 12.336 48.5705 12.3561 48.8549 12.4892ZM115.686 20.5356V26H126.733H137.78V24.4255V22.851H129.254H120.728V20.3504V17.8498H125.679H130.629V16.4605V15.0713H123.158H115.686V20.5356ZM163.128 18.2286C162.927 18.3785 162.072 19.0111 161.228 19.6342C160.385 20.2573 159.706 20.805 159.72 20.8513C159.734 20.8975 161.261 22.0544 163.112 23.4223L166.478 25.9093L170.36 25.8852L174.242 25.8611L168.934 21.9249C166.015 19.76 163.597 17.9813 163.561 17.9723C163.525 17.9632 163.33 18.0786 163.128 18.2286Z" fill="white"/>
</svg>
